<svg width="58" height="60" viewBox="0 0 58 60" fill="none" xmlns="http://www.w3.org/2000/svg">
<path d="M37.8252 4.1298C40.1209 6.43696 41.5388 9.46136 41.8631 12.6789C44.9394 7.76567 45.6215 5.20052 45.6215 5.20052C48.6319 7.39858 50.6501 10.7084 51.2322 14.4019C51.74 17.6246 51.1183 20.909 49.4988 23.7035C54.8612 21.5459 56.9133 19.8736 56.9133 19.8736C58.0632 23.4301 57.7601 27.3 56.0708 30.632C54.5969 33.5392 52.173 35.8291 49.2283 37.1332C54.8285 38.5553 57.4668 38.4146 57.4668 38.4146C56.3169 41.9712 53.8084 44.923 50.4929 46.6207C47.6002 48.102 44.3 48.5227 41.1549 47.8383C44.8538 52.2969 47.0705 53.7416 47.0705 53.7416C44.0602 55.9396 40.3043 56.8458 36.6291 56.2608C33.4225 55.7504 30.5065 54.1413 28.3623 51.7297C28.7471 57.5218 29.6955 60 29.6955 60C25.9745 60 22.4059 58.5145 19.7748 55.8702C17.4791 53.5631 16.0612 50.5387 15.7369 47.3212C12.6606 52.2344 11.9785 54.7995 11.9785 54.7995C8.96816 52.6015 6.94995 49.2917 6.36787 45.5981C5.85998 42.3755 6.48168 39.0911 8.1012 36.2966C2.73881 38.4542 0.686691 40.1265 0.686691 40.1265C-0.463156 36.57 -0.160099 32.7001 1.52919 29.3681C3.00312 26.4609 5.427 24.1711 8.37167 22.8669C2.77148 21.4448 0.133233 21.5855 0.133233 21.5855C1.28308 18.029 3.79164 15.0772 7.10707 13.3795C9.99981 11.8982 13.3001 11.4775 16.4451 12.1618C12.7462 7.7032 10.5295 6.25855 10.5295 6.25855C13.5398 4.0605 17.2957 3.15429 20.9709 3.73929C24.1775 4.2497 27.0935 5.85885 29.2377 8.27036C28.8529 2.47819 27.9045 0 27.9045 0C31.6254 7.28118e-07 35.194 1.48553 37.8252 4.1298Z" fill="#05CDFE"/>
</svg>
