<svg width="60" height="60" viewBox="0 0 60 60" fill="none" xmlns="http://www.w3.org/2000/svg">
<path d="M31.5 59.8772C47.3717 59.0967 60 45.9995 60 29.957C60 25.0341 58.8109 20.3886 56.7038 16.2913C48.2548 21.1623 44.0303 23.5978 40.8355 26.8802C37.0202 30.8002 34.2414 35.6063 32.7494 40.8657C31.5 45.2697 31.5 50.1389 31.5 59.8772Z" fill="#028090"/>
<path d="M28.5 59.8772C12.6284 59.0968 0 45.9995 0 29.957C0 25.0341 1.18915 20.3886 3.29625 16.2912C11.7453 21.1623 15.9698 23.5978 19.1646 26.8802C22.9799 30.8002 25.7587 35.6063 27.2507 40.8658C28.5 45.2698 28.5 50.1389 28.5 59.8772Z" fill="#028090"/>
<path d="M4.79864 13.6983C13.2468 18.5688 17.4709 21.0041 21.9164 22.1257C27.2221 23.4643 32.7779 23.4643 38.0837 22.1257C42.5291 21.0041 46.7532 18.5688 55.2014 13.6983C49.8568 5.45484 40.5664 0 30 0C19.4337 0 10.1432 5.45483 4.79864 13.6983Z" fill="#028090"/>
</svg>
