<svg width="60" height="60" viewBox="0 0 60 60" fill="none" xmlns="http://www.w3.org/2000/svg">
<path d="M27.8153 27.8153C25.7922 24.3399 22.9356 19.2156 21.8351 16.1881C20.0535 11.2871 20.2141 7.82493 21.3497 5.40199C23.0376 1.80066 26.5188 0 30 0C33.4813 0 36.9625 1.80066 38.6503 5.40199C39.7859 7.82493 39.9466 11.2871 38.165 16.1881C37.0645 19.2156 34.208 24.3398 32.1849 27.8152C35.6602 25.7921 40.7845 22.9356 43.8119 21.8351C48.7129 20.0535 52.1751 20.2141 54.598 21.3497C58.1993 23.0376 60 26.5188 60 30C60 33.4813 58.1993 36.9625 54.598 38.6503C52.1751 39.7859 48.7129 39.9466 43.8119 38.165C40.7845 37.0645 35.6603 34.2081 32.185 32.185C34.2081 35.6603 37.0645 40.7845 38.165 43.8119C39.9466 48.7129 39.7859 52.1751 38.6503 54.598C36.9625 58.1993 33.4813 60 30 60C26.5188 60 23.0376 58.1993 21.3497 54.598C20.2141 52.1751 20.0535 48.7129 21.8351 43.8119C22.9356 40.7845 25.7921 35.6603 27.8152 32.1849C24.3398 34.208 19.2156 37.0645 16.1881 38.165C11.2871 39.9466 7.82493 39.7859 5.40199 38.6504C1.80066 36.9625 -5.67645e-07 33.4813 0 30C0 26.5188 1.80066 23.0376 5.40199 21.3497C7.82493 20.2141 11.2871 20.0535 16.1881 21.8351C19.2156 22.9356 24.3399 25.7922 27.8153 27.8153Z" fill="#2D59E9"/>
</svg>
