<svg width="60" height="60" viewBox="0 0 60 60" fill="none" xmlns="http://www.w3.org/2000/svg">
<g clip-path="url(#clip0_210_293)">
<path d="M19.5 0.899998C19.5 0.402942 19.0968 -0.00216906 18.6003 0.0207637C16.3468 0.124845 14.1261 0.619308 12.0377 1.48435C9.67182 2.46431 7.52216 3.90067 5.71142 5.71141C3.90068 7.52215 2.46432 9.67182 1.48435 12.0377C0.504383 14.4035 2.31494e-07 16.9392 0 19.5C-2.31494e-07 22.0608 0.504382 24.5965 1.48435 26.9623C2.46431 29.3282 3.90067 31.4778 5.71141 33.2886C7.52216 35.0993 9.67182 36.5357 12.0377 37.5156C14.1261 38.3807 16.3468 38.8751 18.6003 38.9792C19.0968 39.0022 19.5 38.597 19.5 38.1L19.5 0.899998Z" fill="#2FBF71"/>
<path d="M59.1 19.5C59.597 19.5 60.0021 19.0968 59.9792 18.6003C59.8751 16.3468 59.3807 14.1261 58.5156 12.0377C57.5357 9.67182 56.0993 7.52216 54.2886 5.71142C52.4778 3.90068 50.3282 2.46432 47.9623 1.48435C45.5965 0.504383 43.0608 4.16077e-07 40.5 0C37.9392 -4.16077e-07 35.4035 0.504381 33.0377 1.48435C30.6718 2.46431 28.5221 3.90067 26.7114 5.71141C24.9007 7.52216 23.4643 9.67182 22.4843 12.0377C21.6193 14.1261 21.1248 16.3468 21.0208 18.6003C20.9978 19.0968 21.4029 19.5 21.9 19.5L59.1 19.5Z" fill="#2FBF71"/>
<path d="M40.5 59.1C40.5 59.597 40.9031 60.0021 41.3997 59.9792C43.6532 59.8751 45.8739 59.3807 47.9623 58.5156C50.3281 57.5357 52.4778 56.0993 54.2886 54.2886C56.0993 52.4778 57.5357 50.3282 58.5156 47.9623C59.4956 45.5965 60 43.0608 60 40.5C60 37.9392 59.4956 35.4035 58.5156 33.0377C57.5357 30.6718 56.0993 28.5221 54.2886 26.7114C52.4778 24.9007 50.3282 23.4643 47.9623 22.4843C45.8739 21.6193 43.6532 21.1248 41.3997 21.0208C40.9032 20.9978 40.5 21.4029 40.5 21.9L40.5 59.1Z" fill="#2FBF71"/>
<path d="M0.900003 40.5C0.402947 40.5 -0.00216414 40.9031 0.0207685 41.3997C0.124849 43.6532 0.619312 45.8739 1.48435 47.9623C2.46432 50.3281 3.90067 52.4778 5.71142 54.2886C7.52216 56.0993 9.67182 57.5356 12.0377 58.5156C14.4035 59.4956 16.9392 60 19.5 60C22.0608 60 24.5965 59.4956 26.9623 58.5156C29.3282 57.5357 31.4778 56.0993 33.2886 54.2886C35.0993 52.4778 36.5357 50.3282 37.5156 47.9623C38.3807 45.8739 38.8751 43.6532 38.9792 41.3997C39.0022 40.9031 38.597 40.5 38.1 40.5L0.900003 40.5Z" fill="#2FBF71"/>
</g>
<defs>
<clipPath id="clip0_210_293">
<rect width="60" height="60" fill="white"/>
</clipPath>
</defs>
</svg>
