<svg width="60" height="60" viewBox="0 0 60 60" fill="none" xmlns="http://www.w3.org/2000/svg">
<g clip-path="url(#clip0_210_367)">
<path d="M44.9763 15.0001C36.7008 15.0258 30 21.7316 30 30.0001C30 21.7316 23.2992 15.0255 15.0237 15C23.2991 14.9744 30 8.26849 30 0C30 8.26849 36.7007 14.9746 44.9763 15.0001Z" fill="#FC60A8"/>
<path d="M29.9526 30.0002C21.6772 30.0258 14.9763 36.7316 14.9763 45.0001C14.9763 36.7316 8.27554 30.0256 0 30C8.27539 29.9744 14.9763 23.2685 14.9763 15C14.9763 23.2685 21.677 29.9747 29.9526 30.0002Z" fill="#FC60A8"/>
<path d="M60 30.0002C51.7245 30.0258 45.0237 36.7316 45.0237 45.0001C45.0237 36.7316 38.3229 30.0256 30.0474 30C38.3228 29.9744 45.0237 23.2685 45.0237 15C45.0237 23.2685 51.7244 29.9747 60 30.0002Z" fill="#FC60A8"/>
<path d="M44.9763 45.0002C36.7008 45.0258 30 51.7317 30 60.0002C30 51.7317 23.2992 45.0256 15.0237 45C23.2991 44.9745 30 38.2686 30 30.0001C30 38.2686 36.7007 44.9747 44.9763 45.0002Z" fill="#FC60A8"/>
</g>
<defs>
<clipPath id="clip0_210_367">
<rect width="60" height="60" fill="white"/>
</clipPath>
</defs>
</svg>
