<svg width="60" height="60" viewBox="0 0 60 60" fill="none" xmlns="http://www.w3.org/2000/svg">
<g clip-path="url(#clip0_210_427)">
<path d="M28.3835 10.0291C28.3835 4.29738 28.3835 1.43152 26.6053 0.356817C24.827 -0.717882 22.456 0.715051 17.7141 3.58091L14.286 5.65268C9.54408 8.51854 7.17309 9.95147 7.17309 12.1009C7.17309 14.2503 9.54408 15.6832 14.286 18.5491L17.7141 20.6208C22.456 23.4867 24.827 24.9196 26.6053 23.8449C28.3835 22.7702 28.3835 19.9044 28.3835 14.1726V10.0291Z" fill="#7765E3"/>
<path d="M12.6694 21.48C7.92746 18.6142 5.55648 17.1812 3.77824 18.2559C2 19.3306 2 22.1965 2 27.9282V32.0718C2 37.8035 2 40.6693 3.77824 41.744C5.55648 42.8187 7.92746 41.3858 12.6694 38.52L16.0975 36.4482C20.8394 33.5823 23.2104 32.1494 23.2104 30C23.2104 27.8506 20.8394 26.4177 16.0975 23.5518L12.6694 21.48Z" fill="#7765E3"/>
<path d="M14.286 41.4509C9.54407 44.3168 7.17308 45.7497 7.17308 47.8991C7.17308 50.0485 9.54407 51.4815 14.286 54.3473L17.7141 56.4191C22.456 59.2849 24.827 60.7179 26.6053 59.6432C28.3835 58.5685 28.3835 55.7026 28.3835 49.9709V45.8274C28.3835 40.0956 28.3835 37.2298 26.6053 36.1551C24.827 35.0804 22.456 36.5133 17.7141 39.3792L14.286 41.4509Z" fill="#7765E3"/>
<path d="M31.6167 49.9708C31.6167 55.7025 31.6167 58.5684 33.3949 59.6431C35.1731 60.7178 37.5441 59.2848 42.2861 56.419L45.714 54.3473C50.456 51.4814 52.827 50.0485 52.827 47.8991C52.827 45.7497 50.456 44.3168 45.714 41.4509L42.2861 39.3792C37.5441 36.5133 35.1731 35.0804 33.3949 36.1551C31.6167 37.2298 31.6167 40.0957 31.6167 45.8274V49.9708Z" fill="#7765E3"/>
<path d="M47.3306 38.5199C52.0725 41.3858 54.4435 42.8187 56.2218 41.744C58 40.6693 58 37.8034 58 32.0717V27.9283C58 22.1966 58 19.3307 56.2218 18.256C54.4435 17.1813 52.0725 18.6142 47.3306 21.4801L43.9026 23.5518C39.1607 26.4177 36.7897 27.8506 36.7897 30C36.7897 32.1494 39.1607 33.5823 43.9026 36.4482L47.3306 38.5199Z" fill="#7765E3"/>
<path d="M45.714 18.5491C50.456 15.6832 52.827 14.2503 52.827 12.1009C52.827 9.95151 50.456 8.51858 45.714 5.65272L42.2861 3.58101C37.5441 0.715151 35.1731 -0.71778 33.3949 0.356918C31.6167 1.43162 31.6167 4.29748 31.6167 10.0292V14.1726C31.6167 19.9043 31.6167 22.7702 33.3949 23.8449C35.1731 24.9196 37.5441 23.4867 42.2861 20.6208L45.714 18.5491Z" fill="#7765E3"/>
</g>
<defs>
<clipPath id="clip0_210_427">
<rect width="60" height="60" fill="white"/>
</clipPath>
</defs>
</svg>
