<svg width="49" height="38" viewBox="0 0 49 38" fill="none" xmlns="http://www.w3.org/2000/svg">
<g clip-path="url(#clip0_1_4321)">
<path d="M40.7956 3.11187C37.6478 1.63903 34.3177 0.592521 30.8932 0C30.4667 0.771172 29.9683 1.8084 29.6246 2.63357C25.9324 2.07833 22.2742 2.07833 18.6499 2.63357C18.3064 1.80859 17.7968 0.771172 17.3663 0C13.9385 0.592778 10.6055 1.64196 7.4562 3.11956C1.18933 12.5898 -0.509576 21.8246 0.339782 30.9286C4.49639 34.0326 8.52455 35.9183 12.4848 37.1522C13.4691 35.7987 14.3392 34.3657 15.086 32.8681C13.6641 32.3268 12.2933 31.6596 10.9899 30.8746C11.3329 30.6204 11.6678 30.3554 11.9942 30.0802C19.8919 33.7743 28.4732 33.7743 36.2768 30.0802C36.6046 30.3536 36.9394 30.6185 37.2808 30.8746C35.9754 31.6617 34.6021 32.3302 33.1773 32.872C33.9284 34.3757 34.7969 35.8101 35.7784 37.1559C39.7425 35.9222 43.7744 34.0366 47.931 30.9286C48.9277 20.3748 46.2285 11.2248 40.7956 3.11187ZM16.162 25.3298C13.7911 25.3298 11.8468 23.1164 11.8468 20.4211C11.8468 17.7259 13.7497 15.5087 16.162 15.5087C18.5744 15.5087 20.5187 17.722 20.4772 20.4211C20.481 23.1164 18.5745 25.3298 16.162 25.3298ZM32.1088 25.3298C29.7379 25.3298 27.7937 23.1164 27.7937 20.4211C27.7937 17.7259 29.6964 15.5087 32.1088 15.5087C34.5213 15.5087 36.4654 17.722 36.424 20.4211C36.424 23.1164 34.5213 25.3298 32.1088 25.3298Z" fill="#5865F2"/>
</g>
<defs>
<clipPath id="clip0_1_4321">
<rect width="48" height="37.3117" fill="white" transform="translate(0.135376)"/>
</clipPath>
</defs>
</svg>
