<svg width="140" height="33" viewBox="0 0 140 33" fill="none" xmlns="http://www.w3.org/2000/svg">
<g clip-path="url(#clip0_29_1196)">
<path d="M32.2266 18.7125C32.2266 16.3989 32.2278 14.0866 32.2266 11.7731C32.2254 10.2054 32.8525 9.57833 34.4202 9.5902C36.318 9.60454 38.2206 9.53321 40.1125 9.64847C44.3666 9.90859 46.9094 12.2196 47.6445 16.4203C48.0625 18.8086 47.8915 21.1638 46.8488 23.3787C45.9284 25.3335 44.4224 26.71 42.3025 27.2373C41.1445 27.5247 39.932 27.647 38.736 27.7123C37.2777 27.792 35.8109 27.7457 34.3477 27.7326C32.8525 27.7195 32.2254 27.0782 32.2242 25.5936C32.2218 23.3003 32.2242 21.007 32.2242 18.7136H32.2278L32.2266 18.7125ZM36.0152 18.5914H36.0176C36.0176 20.4096 36.0235 22.2291 36.0128 24.0473C36.0104 24.4452 36.147 24.6138 36.5638 24.5972C37.5317 24.5616 38.502 24.5877 39.4676 24.5343C41.4521 24.4238 42.9913 23.2849 43.5697 21.3965C44.1184 19.6056 44.1849 17.7695 43.5828 15.9691C43.021 14.2897 41.9059 13.1341 40.1042 12.8764C38.9783 12.7149 37.8251 12.747 36.685 12.6817C36.1838 12.6532 35.995 12.8467 36.0033 13.3717C36.0318 15.1104 36.014 16.8515 36.014 18.5902L36.0152 18.5914ZM77.4114 25.6649V26.2255C77.4042 27.7279 77.409 29.2302 77.3864 30.7326C77.3685 31.9285 76.7617 32.5152 75.58 32.5211C74.5028 32.527 73.7379 31.818 73.7355 30.7183C73.7248 25.7552 73.726 20.7933 73.7511 15.8301C73.757 14.5795 74.5586 13.8848 75.77 13.962C76.7819 14.0273 77.4351 14.8895 77.3662 16.0617C77.3602 16.1674 77.3912 16.2755 77.4185 16.4881C77.5716 16.3182 77.6749 16.2375 77.7368 16.1329C79.3994 13.3028 83.8115 13.3729 85.7034 15.9192C87.2342 17.9809 87.4171 20.3205 87.0466 22.7588C86.8221 24.2374 86.3103 25.577 85.1867 26.6364C83.3911 28.3312 80.2046 28.3846 78.4066 26.7053C78.0729 26.3942 77.8234 25.9915 77.536 25.6316L77.4102 25.6637L77.4114 25.6649ZM83.5692 20.8099C83.3282 20.0497 83.1773 19.108 82.7498 18.317C81.7783 16.5237 79.2509 16.4381 78.1857 18.1579C77.1311 19.8574 77.1109 21.6946 77.9671 23.4844C78.5051 24.6079 79.4909 25.1032 80.7474 24.9784C81.9445 24.8597 82.6963 24.1412 83.0752 23.0628C83.308 22.4013 83.384 21.6851 83.5704 20.8099H83.5692ZM130.216 25.507C130.174 26.3988 130.196 27.1459 129.5 27.6435C128.894 28.0758 128.241 28.102 127.585 27.843C126.93 27.5841 126.621 27.0401 126.618 26.3466C126.612 23.8763 126.621 21.406 126.618 18.9358C126.616 16.4453 126.605 13.9548 126.602 11.4643C126.602 10.8693 126.602 10.2756 127.09 9.81598C127.662 9.27676 128.316 9.10569 129.053 9.38242C129.79 9.65916 130.205 10.1995 130.211 11.0036C130.224 12.6627 130.225 14.3218 130.232 15.9809C130.232 16.1103 130.25 16.2399 130.264 16.4571C130.399 16.342 130.487 16.298 130.526 16.2268C132.176 13.2363 136.985 13.2731 138.864 16.3693C139.444 17.3241 139.757 18.3526 139.86 19.4393C140.086 21.8372 140.019 24.1733 138.423 26.2053C136.726 28.3655 132.319 28.7457 130.56 25.8977C130.495 25.792 130.394 25.7076 130.214 25.5058L130.216 25.507ZM136.311 21.1899C136.232 20.5521 136.225 20.0497 136.102 19.5771C135.837 18.5605 135.413 17.627 134.358 17.1793C132.735 16.4904 131.019 17.3989 130.481 19.2066C130.126 20.3965 130.152 21.5854 130.483 22.7694C130.846 24.0639 131.865 24.9404 133.031 24.9903C134.444 25.052 135.469 24.3692 135.94 22.9595C136.142 22.3502 136.208 21.6958 136.311 21.1887V21.1899ZM120.475 25.7349C120.114 26.1519 119.882 26.501 119.575 26.7635C117.941 28.1613 115.331 28.3133 113.534 27.1435C112.289 26.3335 111.782 25.1436 111.812 23.7065C111.844 22.2148 112.61 21.1721 113.915 20.5177C115.237 19.8538 116.679 19.754 118.125 19.6946C118.758 19.6685 119.39 19.6353 120.021 19.608C120.355 19.5937 120.482 19.4511 120.505 19.0925C120.567 18.1352 120.298 17.3669 119.408 16.9192C118.573 16.4987 117.001 16.6876 116.37 17.2778C116.011 17.6151 115.693 17.9975 115.348 18.3502C114.657 19.0557 113.243 18.9156 112.789 18.0545C112.632 17.7564 112.587 17.3301 112.656 16.9963C112.855 16.0284 113.477 15.3052 114.335 14.8799C116.859 13.627 119.438 13.5343 121.969 14.8384C123.221 15.4833 123.986 16.5819 124.011 18.0284C124.059 20.7564 124.061 23.4856 124.039 26.2148C124.028 27.5426 123.181 28.1815 121.871 27.9451C121.169 27.8181 120.631 27.2456 120.551 26.5378C120.528 26.3252 120.512 26.1115 120.477 25.7373L120.475 25.7349ZM120.5 22.6281C120.369 22.3953 120.754 21.8217 120.156 21.8407C119.013 21.8775 117.864 21.9654 116.736 22.1424C115.928 22.2694 115.387 23.0081 115.424 23.6815C115.466 24.4368 116.076 25.1246 116.896 25.2314C117.377 25.2943 117.89 25.2943 118.367 25.2065C119.658 24.9689 120.51 23.9214 120.5 22.6281ZM58.4495 21.1305C58.4816 18.8622 58.965 16.8502 60.7547 15.4251C62.9744 13.6567 65.491 13.5058 68.029 14.513C70.4565 15.4761 71.6014 17.4939 71.7593 20.0295C71.8271 21.1198 71.7474 22.2516 71.5219 23.3193C71.0646 25.4725 69.7178 26.9238 67.6169 27.6233C65.8057 28.2254 63.9946 28.1898 62.2251 27.4618C59.8913 26.501 58.8616 24.596 58.5231 22.2196C58.4673 21.8301 58.4697 21.4321 58.4519 21.1316L58.4495 21.1305ZM62.0682 20.9856C62.2178 21.7362 62.2939 22.5118 62.5326 23.2326C62.9697 24.558 63.9246 25.2397 65.1584 25.2468C66.3283 25.254 67.2903 24.5473 67.757 23.2659C68.1418 22.2065 68.2369 21.0901 68.0171 19.9916C67.8687 19.2505 67.6691 18.4666 67.2725 17.8407C66.4233 16.4999 64.4672 16.3538 63.3485 17.4702C62.3842 18.4322 62.168 19.6673 62.0694 20.9856H62.0682ZM94.4789 13.9501C96.0763 13.9513 97.5821 14.2601 98.8648 15.2921C99.4208 15.7398 99.8107 16.3004 99.9363 17.0153C100.107 17.9833 99.2141 18.8288 98.2651 18.5332C97.8399 18.4013 97.4017 18.1162 97.1119 17.779C96.176 16.6899 95.0525 16.3052 93.6653 16.6448C92.9325 16.8241 92.4433 17.3051 92.4172 17.8883C92.3899 18.5142 92.7497 19.0201 93.5288 19.2267C94.8257 19.5712 96.1475 19.8169 97.4468 20.1542C98.8173 20.5094 100.012 21.1233 100.445 22.6269C100.854 24.0485 100.3 25.7052 99.1497 26.6304C97.9004 27.6352 96.4207 27.9736 94.8827 28.0199C93.1855 28.0711 91.5074 27.8395 90.0716 26.8383C89.5906 26.5022 89.1939 25.9879 88.8839 25.4785C88.4707 24.7991 88.6096 24.052 89.0906 23.6269C89.5526 23.2184 90.5431 23.1448 91.0989 23.5248C91.3887 23.7219 91.6665 23.9678 91.8732 24.248C92.8601 25.5865 94.6427 25.6019 95.9884 25.2338C96.5394 25.0829 96.8731 24.6566 96.9028 24.0473C96.9313 23.4475 96.6154 23.039 96.087 22.8847C95.1238 22.602 94.1368 22.4048 93.163 22.1602C92.5703 22.0117 91.9622 21.893 91.3982 21.6697C89.935 21.0901 88.9112 20.0972 88.8471 18.4334C88.7783 16.6579 89.6879 15.2304 91.3685 14.5867C92.3483 14.2113 93.4124 14.0569 94.4385 13.804L94.4813 13.9536L94.4789 13.9501ZM104.545 19.7018C104.545 17.5664 104.524 15.431 104.56 13.2969C104.569 12.7434 104.372 12.633 103.879 12.6472C102.793 12.6793 101.704 12.6829 100.618 12.6639C99.6306 12.6461 99.0716 12.0558 99.0775 11.0997C99.0825 10.253 99.685 9.61761 100.594 9.61404C104.508 9.60098 108.421 9.60217 112.336 9.62354C113.261 9.62829 113.881 10.3064 113.859 11.1603C113.841 11.8254 113.286 12.7256 112.297 12.6805C111.231 12.6318 110.163 12.671 109.095 12.6722C108.344 12.6734 108.33 12.6852 108.33 13.431C108.33 17.5035 108.332 21.5759 108.332 25.6482C108.332 25.9048 108.341 26.1649 108.309 26.4179C108.173 27.4713 107.414 28.0318 106.229 27.9701C105.308 27.9214 104.565 27.1744 104.559 26.2267C104.543 24.052 104.554 21.8775 104.554 19.7029H104.547L104.545 19.7018ZM53.49 16.2493C53.9781 15.6638 54.4484 15.0451 54.9829 14.488C55.1847 14.2779 55.5255 14.1674 55.8225 14.0854C56.6075 13.8681 57.4329 14.0795 57.7548 14.6152C58.174 15.3111 58.1847 16.0795 57.7476 16.7469C57.5493 17.051 57.1122 17.2493 56.7429 17.3752C56.3593 17.507 55.9259 17.4892 55.5149 17.5439C54.4709 17.6828 53.7821 18.2921 53.7287 19.3467C53.6432 21.001 53.6693 22.6614 53.6515 24.3193C53.6444 24.9321 53.661 25.545 53.6396 26.1566C53.6005 27.2943 52.8902 28.0057 51.8285 27.995C50.718 27.9831 49.9877 27.2623 49.984 26.1222C49.9745 22.6851 49.9733 19.2481 49.9828 15.811C49.9852 14.7659 50.6194 14.0415 51.5351 13.975C52.6753 13.8918 53.4128 14.5391 53.4876 15.6983C53.5018 15.9073 53.49 16.1186 53.49 16.2493Z" fill="#9F9F9F" stroke="white" stroke-width="0.92788"/>
<path d="M10.8015 31.3528C10.4445 31.3528 10.087 31.352 9.72993 31.3528C9.28935 31.3535 8.86678 31.2557 8.44906 31.1265C8.41373 31.1156 8.37564 31.1121 8.33913 31.1058C8.08041 31.0602 7.81633 31.0341 7.56404 30.9653C7.17006 30.8571 6.77687 30.7385 6.39694 30.5898C6.07677 30.4643 5.78411 30.2704 5.46513 30.142C5.06175 29.9796 4.69715 29.757 4.34997 29.5039C4.06038 29.2927 3.7688 29.0803 3.50255 28.8411C3.07058 28.4532 2.62654 28.0702 2.25334 27.6295C2.09137 27.4382 1.86876 27.2631 1.7991 26.981C1.76556 26.845 1.61686 26.7407 1.53543 26.6123C1.41799 26.4274 1.314 26.2334 1.20477 26.0432C1.15134 25.9494 1.0903 25.8587 1.04845 25.76C0.931005 25.4843 0.822171 25.2052 0.709578 24.9277C0.684348 24.8659 0.655359 24.8056 0.632009 24.7434C0.576602 24.597 0.516249 24.4516 0.471528 24.3021C0.398115 24.0577 0.335585 23.8098 0.268503 23.5635C0.262072 23.5394 0.252376 23.5153 0.250793 23.4909C0.220715 22.9267 0.0516271 22.3787 0.0741854 21.8066C0.0847719 21.5388 -0.0380125 21.2556 0.0120511 21.0017C0.115938 20.4745 0.0568709 19.9439 0.119797 19.4204C0.161154 19.0779 0.259104 18.7424 0.331429 18.4035C0.339344 18.367 0.345775 18.3297 0.351415 18.2928C0.395048 18.014 0.415033 17.7293 0.488447 17.4589C0.569083 17.161 0.703147 16.8781 0.805253 16.5858C0.865111 16.4138 0.897465 16.2322 0.961578 16.0621C1.04251 15.8462 1.14115 15.6372 1.23564 15.4271C1.30233 15.2787 1.37465 15.1333 1.44361 14.986C1.54077 14.7792 1.63378 14.5698 1.73588 14.3653C1.79198 14.2534 1.86619 14.1506 1.92644 14.0407C2.02202 13.8656 2.10978 13.6859 2.20743 13.5123C2.31775 13.3153 2.43598 13.1229 2.54976 12.9277C2.7892 12.5172 3.03101 12.1078 3.26638 11.6948C3.36018 11.5305 3.43478 11.355 3.52699 11.1897C3.67768 10.9193 3.83925 10.6553 3.98874 10.3841C4.13043 10.1269 4.25885 9.86248 4.39934 9.60485C4.48245 9.45228 4.57852 9.30654 4.66935 9.15863C4.73109 9.05771 4.80045 8.96075 4.85575 8.85656C5.07609 8.44151 5.27081 8.01062 5.51707 7.6118C5.72534 7.27471 5.96299 6.94395 6.24398 6.66761C6.39763 6.51624 6.59838 6.38207 6.84356 6.31202C7.18025 6.21566 7.51358 6.20655 7.84127 6.24356C8.19221 6.28313 8.53681 6.34942 8.82641 6.63338C9.21515 7.0145 9.4999 7.45735 9.78682 7.90773C10.0113 8.26035 10.2584 8.59853 10.484 8.95026C10.6659 9.23392 10.8252 9.53212 11.0049 9.81727C11.1871 10.1065 11.3856 10.3856 11.5697 10.6737C11.7535 10.9603 11.9241 11.2552 12.1083 11.5414C12.2929 11.828 12.4955 12.103 12.674 12.393C12.8703 12.7116 13.0416 13.0453 13.236 13.3647C13.3572 13.5642 13.5068 13.7466 13.634 13.9432C13.7447 14.1145 13.8355 14.2991 13.9463 14.4704C14.0799 14.6768 14.2332 14.8704 14.3639 15.0787C14.4844 15.2707 14.5842 15.4752 14.6957 15.6729C14.7865 15.8334 14.8878 15.9885 14.9714 16.1528C15.0501 16.3079 15.1115 16.4722 15.1808 16.6319C15.2286 16.7422 15.2701 16.8564 15.3266 16.9621C15.4791 17.248 15.6309 17.5293 15.6783 17.8604C15.7073 18.0622 15.7936 18.2562 15.8546 18.4535C15.8636 18.4829 15.8798 18.5108 15.8851 18.5409C16.0342 19.3514 16.0764 20.1698 16 20.9878C15.9653 21.3595 15.8742 21.7324 15.7567 22.0876C15.6328 22.4619 15.4614 22.8231 15.2832 23.176C15.1571 23.4261 14.9865 23.6539 14.8325 23.8897C14.692 24.1044 14.5665 24.3337 14.3986 24.5251C14.1896 24.763 13.9609 24.9921 13.7094 25.183C13.3866 25.4278 12.9968 25.5589 12.5945 25.5525C12.2345 25.5468 11.8594 25.4945 11.5423 25.3084C11.3378 25.1883 11.166 25.0011 11.0049 24.8214C10.8534 24.6523 10.731 24.4561 10.6038 24.2671C10.5623 24.2053 10.5502 24.124 10.5152 24.0569C10.3936 23.8249 10.3804 23.5741 10.3857 23.3218C10.3955 22.8732 10.5612 22.4815 10.8358 22.1324C11.0764 21.8262 11.3551 21.5418 11.5494 21.2089C11.7573 20.853 11.9027 20.4493 11.8447 20.0214C11.8104 19.7672 11.7212 19.5197 11.6526 19.2708C11.6059 19.1017 11.5634 18.9296 11.4982 18.7673C11.4093 18.5451 11.3118 18.3255 11.1988 18.1146C11.015 17.7711 10.8165 17.4348 10.6222 17.097C10.5834 17.0296 10.5352 16.9674 10.4908 16.9033C10.3374 16.6823 10.1819 16.4624 10.0317 16.2394C9.93131 16.0888 9.83399 15.9363 9.73983 15.7818C9.54511 15.4643 9.35673 15.143 9.15865 14.8278C9.01964 14.6064 8.86342 14.3958 8.72549 14.174C8.622 14.0076 8.54245 13.826 8.44005 13.6588C8.2397 13.3319 8.02767 13.0121 7.82692 12.6852C7.74104 12.5447 7.65447 12.5523 7.57166 12.6721C7.44125 12.8604 7.32183 13.0562 7.19865 13.2498C7.12187 13.3707 7.04134 13.4893 6.97238 13.6144C6.89253 13.7593 6.82852 13.9126 6.74937 14.058C6.66428 14.2144 6.5686 14.3653 6.47936 14.5194C6.27792 14.8659 6.07183 15.2097 5.87869 15.5607C5.78144 15.7377 5.71445 15.9314 5.62333 16.1121C5.51153 16.3346 5.37855 16.5468 5.27269 16.772C5.12883 17.0789 4.97963 17.3866 4.87386 17.7071C4.72842 18.147 4.61207 18.597 4.50244 19.0475C4.43961 19.3055 4.43961 19.5793 4.36808 19.8338C4.17218 20.5299 4.26934 21.236 4.28329 21.9365C4.28932 22.2401 4.40568 22.5429 4.48216 22.8434C4.51975 22.9922 4.58159 23.135 4.63096 23.2811C4.74989 23.6351 4.92501 23.959 5.10963 24.284C5.32532 24.664 5.63006 24.9665 5.90956 25.2844C6.15019 25.5577 6.48272 25.7532 6.78518 25.9682C7.01452 26.1314 7.25713 26.2771 7.50111 26.4187C7.60619 26.4797 7.7264 26.52 7.84423 26.5517C8.15985 26.6364 8.45093 26.7787 8.7812 26.8428C9.20347 26.9249 9.62337 26.9339 10.0445 26.9678C10.4975 27.0043 10.9528 27.0405 11.4067 27.0348C11.7856 27.0299 12.1659 26.9799 12.5407 26.9196C12.7494 26.8861 12.9489 26.7934 13.1516 26.7241C13.4051 26.6372 13.6649 26.563 13.9086 26.4533C14.1783 26.332 14.4498 26.2014 14.6893 26.0308C15.0437 25.7781 15.3872 25.5039 15.7035 25.2056C15.9228 24.9988 16.09 24.7371 16.2779 24.4976C16.3792 24.3684 16.4851 24.2407 16.5701 24.1009C16.6896 23.9051 16.8029 23.7036 16.8978 23.495C17.0206 23.2261 17.1468 22.9545 17.2266 22.6717C17.311 22.3741 17.3565 22.0631 17.3934 21.755C17.4364 21.3957 17.4793 21.033 17.4722 20.6726C17.4624 20.1924 17.4213 19.7115 17.3603 19.2351C17.3208 18.9255 17.221 18.6234 17.149 18.3176C17.1434 18.2935 17.1457 18.2675 17.1422 18.2426C17.0737 17.7429 16.9712 17.2567 16.6862 16.8228C16.6026 16.6955 16.5751 16.5279 16.5355 16.3754C16.4763 16.1478 16.3773 15.9475 16.227 15.763C16.1415 15.6583 16.11 15.5114 16.0456 15.3879C15.9487 15.2022 15.8463 15.0199 15.7439 14.8373C15.6372 14.6478 15.5303 14.4579 15.4188 14.2715C15.3274 14.1187 15.2267 13.971 15.1337 13.8189C14.9805 13.568 14.8347 13.3123 14.6776 13.0641C14.5462 12.8562 14.4001 12.6577 14.2663 12.451C14.2012 12.35 14.1522 12.2382 14.0916 12.1342C13.8841 11.7776 13.6736 11.4232 13.4664 11.0665C13.2973 10.775 13.1584 10.4609 12.9558 10.1954C12.7976 9.98784 12.6793 9.76493 12.5535 9.54241C12.404 9.27795 12.2568 9.01239 12.1008 8.75188C11.9668 8.52729 11.8184 8.3112 11.6831 8.08701C11.4937 7.77297 11.3155 7.45251 11.1239 7.13985C11.0266 6.98135 10.9073 6.8371 10.8056 6.68117C10.7597 6.61072 10.7389 6.52445 10.6972 6.45104C10.5108 6.122 10.3216 5.7946 10.1295 5.46886C10.0599 5.35092 9.96838 5.24545 9.90021 5.12682C9.77257 4.9054 9.65543 4.67754 9.53037 4.45423C9.50811 4.41426 9.46141 4.38863 9.43737 4.34945C9.35257 4.21054 9.2754 4.06747 9.191 3.92846C9.08069 3.74691 8.96315 3.5699 8.85471 3.38726C8.79901 3.29307 8.753 3.19255 8.70828 3.09242C8.53414 2.70181 8.46865 2.27429 8.58203 1.87961C8.71461 1.41677 8.92436 0.98401 9.33754 0.650781C9.59023 0.446965 9.82412 0.329424 10.131 0.307261C10.3533 0.291431 10.5755 0.233749 10.7954 0.243544C11.047 0.254922 11.3122 0.280844 11.5426 0.37276C11.8726 0.504152 12.1434 0.743784 12.3422 1.04387C12.5196 1.312 12.6771 1.59338 12.8469 1.86685C13.1173 2.30219 13.3979 2.73159 13.6604 3.17147C13.8547 3.49679 14.0209 3.83882 14.2114 4.16641C14.327 4.36499 14.4671 4.54911 14.5925 4.74195C14.7019 4.91083 14.809 5.08119 14.9138 5.25297C15.0648 5.49876 15.2137 5.74586 15.3604 5.99423C15.4625 6.16787 15.5532 6.34824 15.6591 6.5192C15.8048 6.75498 15.9634 6.98284 16.11 7.21822C16.2045 7.36999 16.2847 7.53087 16.3758 7.68482C16.5242 7.93563 16.6783 8.18308 16.8259 8.43399C16.9329 8.61584 17.03 8.80343 17.1378 8.98499C17.2141 9.11371 17.3042 9.23501 17.3825 9.36264C17.5041 9.56121 17.6206 9.76265 17.7407 9.96192C17.9878 10.3709 18.234 10.7803 18.4849 11.187C18.6762 11.497 18.9015 11.7896 19.0612 12.1143C19.1982 12.393 19.3827 12.6352 19.5405 12.8969C19.7025 13.165 19.8238 13.4581 19.9624 13.7401C20.1089 14.0377 20.261 14.3322 20.3989 14.6339C20.4667 14.7827 20.5051 14.9445 20.5624 15.0983C20.5962 15.1894 20.6429 15.276 20.6794 15.3664C20.7955 15.6533 20.9103 15.9404 21.0225 16.2289C21.038 16.2684 21.0312 16.3162 21.0421 16.3584C21.1107 16.6273 21.1815 16.8958 21.2519 17.1644C21.2568 17.1825 21.2681 17.199 21.2715 17.2171C21.3223 17.4754 21.3744 17.7335 21.4218 17.9926C21.493 18.3805 21.5702 18.7673 21.6263 19.1575C21.659 19.386 21.6665 19.6199 21.6669 19.8516C21.6677 20.5224 21.6719 21.1935 21.6485 21.8635C21.6375 22.1791 21.58 22.495 21.5193 22.8061C21.4569 23.1294 21.3777 23.4492 21.2821 23.7642C21.1875 24.0735 21.0308 24.3661 20.9585 24.679C20.8643 25.0866 20.5887 25.4063 20.4742 25.7931C20.4053 26.0255 20.2572 26.1705 20.1167 26.3426C19.9974 26.4887 19.9376 26.6824 19.8336 26.8431C19.5899 27.2213 19.3304 27.5839 19.0208 27.9172C18.4604 28.521 17.8258 29.0294 17.175 29.5277C16.8447 29.7804 16.4896 29.9672 16.1159 30.1352C15.9178 30.2244 15.7333 30.3442 15.5401 30.4448C15.4343 30.4998 15.3262 30.5536 15.2136 30.5905C14.9036 30.6918 14.5933 30.7939 14.2784 30.8763C13.9373 30.966 13.5806 31.0059 13.2472 31.1175C12.4477 31.3852 11.624 31.3614 10.8011 31.355L10.8015 31.3528Z" fill="#9F9F9F" stroke="white" stroke-width="0.92788"/>
</g>
<defs>
<clipPath id="clip0_29_1196">
<rect width="140" height="32.3534" fill="white" transform="translate(0 0.172852)"/>
</clipPath>
</defs>
</svg>
