<svg width="162" height="46" viewBox="0 0 162 46" fill="none" xmlns="http://www.w3.org/2000/svg">
<g opacity="0.5">
<path fill-rule="evenodd" clip-rule="evenodd" d="M22.9508 1.1731C35.133 1.1731 44.9591 10.9993 44.9591 23.2389C44.9591 35.3061 35.018 45.2471 22.7784 45.1897C10.9411 45.0748 1 35.3061 1 23.1814C1 10.9993 10.7687 1.11564 22.9508 1.1731ZM6.22912 34.674C6.22912 34.9038 6.34405 35.0188 6.45897 35.1911C7.32092 36.3979 8.29779 37.5471 9.44705 38.524C9.96421 38.9837 10.4814 39.4434 11.056 39.8456C12.665 40.88 14.3314 41.8568 16.1702 42.4889C17.6642 43.0061 19.2157 43.4083 20.7672 43.5807C21.974 43.6956 23.2381 43.7531 24.4449 43.5807C25.1344 43.4658 25.8814 43.4658 26.571 43.1785C26.6859 43.2359 26.7434 43.121 26.8008 43.121C28.2374 42.8912 29.6165 42.4315 30.9956 41.8568C35.4777 39.9031 38.8681 36.7426 41.0516 32.3755C43.0054 28.5254 43.6375 24.4456 43.0054 20.1933C42.4308 16.1135 40.7069 12.5508 37.9487 9.56268C34.271 5.36789 29.5591 3.1843 23.9852 2.83953C21.5143 2.66714 19.0434 3.01191 16.6874 3.81639C12.8374 5.08058 9.6769 7.26417 7.09107 10.4246C4.16046 14.0448 2.72389 18.1821 2.5515 22.7792C2.49403 23.9284 2.60896 25.0202 2.78135 26.1695C3.12613 28.7553 3.98807 31.2262 5.30972 33.4673C5.65449 33.812 5.88435 34.2717 6.22912 34.674Z" fill="#9F9F9F" stroke="white"/>
<path fill-rule="evenodd" clip-rule="evenodd" d="M26.571 43.1212C25.8814 43.466 25.1344 43.4659 24.4449 43.5234C23.2381 43.6958 21.974 43.6383 20.7672 43.5234C19.2157 43.351 17.6642 42.9488 16.1702 42.4316C14.3314 41.7995 12.665 40.8227 11.056 39.7883C10.4814 39.3861 9.96421 38.9264 9.44705 38.4667C8.29779 37.4898 7.32092 36.3405 6.45898 35.1338C6.34405 34.9614 6.22913 34.7891 6.22913 34.6167C7.60824 31.5137 8.1254 28.2383 8.41272 24.9054C8.52764 23.3539 8.5851 21.8024 8.87242 20.2509C9.15973 18.4696 9.84929 16.8606 11.1135 15.4815C12.2627 14.2748 13.6993 13.4703 15.2508 12.8957C16.515 12.3785 17.8366 11.9188 19.2732 11.8614C20.5949 11.8039 21.859 11.9763 23.1232 12.2636C25.0195 12.7233 26.9158 13.2979 28.6971 14.1599C30.1337 14.7345 31.6277 15.3091 33.1218 15.7688C34.6733 16.2285 36.2248 16.7457 37.5464 17.7226C39.2128 18.9868 39.6725 20.5957 38.9255 22.5495C38.4658 23.7562 37.6039 24.6756 36.7419 25.595C35.1904 27.2039 33.524 28.698 32.03 30.3644C30.3061 32.3756 28.7546 34.4443 27.6628 36.8577C26.7434 38.8689 26.2262 40.9376 26.571 43.1212ZM37.6613 24.2159C37.6039 24.2159 37.5464 24.2159 37.4889 24.2733C37.4315 24.2733 37.374 24.3308 37.374 24.3883C37.374 24.3883 37.374 24.3883 37.374 24.4457C37.4315 24.4457 37.4889 24.3883 37.4889 24.3308L37.6613 24.2159C37.7763 24.2159 37.7188 24.2159 37.6613 24.2159ZM20.0777 14.2173C17.8941 14.2173 16.1127 15.9987 16.1127 18.1248C16.1127 20.3084 17.8941 22.0323 20.0202 22.0897C22.2038 22.0897 23.9277 20.3084 23.9852 18.1248C23.9852 15.9412 22.2613 14.2173 20.0777 14.2173ZM23.2956 26.2845C23.6404 26.8017 24.2725 27.2614 25.0195 27.4913C26.5135 28.0084 28.0076 28.0084 29.5016 27.7211C32.1449 27.2039 34.6158 26.2845 36.8569 24.7905C36.9718 24.6756 37.2016 24.6756 37.2591 24.4457C37.1442 24.3883 37.0867 24.4457 37.0292 24.5032C36.2822 24.9629 35.4777 25.3077 34.6733 25.6524C32.6046 26.5144 30.421 27.089 28.1225 27.2039C26.4561 27.3189 24.7896 27.2039 23.2956 26.2845ZM34.1561 22.8942C34.6158 22.8942 35.018 22.492 35.018 21.9748C35.018 21.5151 34.6158 21.1129 34.0986 21.1703C33.6389 21.1703 33.2942 21.5726 33.2942 22.0323C33.2942 22.5495 33.6389 22.8942 34.1561 22.8942Z" fill="#9F9F9F"/>
<path d="M37.6613 24.2159C37.6039 24.2159 37.5464 24.2159 37.4889 24.2733C37.4315 24.2733 37.374 24.3308 37.374 24.3883C37.374 24.3883 37.374 24.3883 37.374 24.4457C37.4315 24.4457 37.4889 24.3883 37.4889 24.3308L37.6613 24.2159ZM37.6613 24.2159C37.7188 24.2159 37.7763 24.2159 37.6613 24.2159ZM26.571 43.1212C25.8814 43.4659 25.1344 43.4659 24.4449 43.5234C23.2381 43.6958 21.974 43.6383 20.7672 43.5234C19.2157 43.351 17.6642 42.9488 16.1702 42.4316C14.3314 41.7995 12.665 40.8227 11.056 39.7883C10.4814 39.3861 9.96421 38.9264 9.44705 38.4667C8.29779 37.4898 7.32092 36.3405 6.45898 35.1338C6.34405 34.9614 6.22913 34.7891 6.22913 34.6167C7.60824 31.5137 8.1254 28.2383 8.41272 24.9054C8.52764 23.3539 8.5851 21.8024 8.87242 20.2509C9.15973 18.4696 9.84929 16.8606 11.1135 15.4815C12.2627 14.2748 13.6993 13.4703 15.2508 12.8957C16.515 12.3785 17.8366 11.9188 19.2732 11.8614C20.5949 11.8039 21.859 11.9763 23.1232 12.2636C25.0195 12.7233 26.9158 13.2979 28.6971 14.1599C30.1337 14.7345 31.6277 15.3091 33.1218 15.7688C34.6733 16.2285 36.2248 16.7457 37.5464 17.7226C39.2128 18.9868 39.6725 20.5957 38.9255 22.5495C38.4658 23.7562 37.6039 24.6756 36.7419 25.595C35.1904 27.2039 33.524 28.698 32.03 30.3644C30.3061 32.3756 28.7546 34.4443 27.6628 36.8577C26.7434 38.8689 26.2262 40.9376 26.571 43.1212ZM20.0777 14.2173C17.8941 14.2173 16.1127 15.9987 16.1127 18.1248C16.1127 20.3084 17.8941 22.0323 20.0202 22.0897C22.2038 22.0897 23.9277 20.3084 23.9852 18.1248C23.9852 15.9412 22.2613 14.2173 20.0777 14.2173ZM23.2956 26.2845C23.6404 26.8017 24.2725 27.2614 25.0195 27.4913C26.5135 28.0084 28.0076 28.0084 29.5016 27.7211C32.1449 27.2039 34.6158 26.2845 36.8569 24.7905C36.9718 24.6756 37.2016 24.6756 37.2591 24.4457C37.1442 24.3883 37.0867 24.4457 37.0292 24.5032C36.2822 24.9629 35.4777 25.3077 34.6733 25.6524C32.6046 26.5144 30.421 27.089 28.1225 27.2039C26.4561 27.3189 24.7896 27.2039 23.2956 26.2845ZM34.1561 22.8942C34.6158 22.8942 35.018 22.492 35.018 21.9748C35.018 21.5151 34.6158 21.1129 34.0986 21.1703C33.6389 21.1703 33.2942 21.5726 33.2942 22.0323C33.2942 22.5495 33.6389 22.8942 34.1561 22.8942Z" stroke="white"/>
<path fill-rule="evenodd" clip-rule="evenodd" d="M23.0657 12.2634C21.8015 12.0335 20.5373 11.8037 19.2157 11.8611C17.7791 11.9186 16.5149 12.3783 15.1933 12.8955C13.6418 13.4701 12.2052 14.2746 11.056 15.4813C9.79177 16.8029 9.10222 18.4119 8.8149 20.2507C8.58505 21.8022 8.52759 23.3537 8.3552 24.9052C8.06789 28.2381 7.55072 31.5709 6.17161 34.6164C5.76937 34.2717 5.53952 33.7545 5.30967 33.3523C3.98802 31.1112 3.12608 28.6403 2.7813 26.0545C2.60891 24.9052 2.49398 23.8134 2.55145 22.6642C2.72384 18.0671 4.16041 13.9298 7.09102 10.3096C9.61938 7.14918 12.8373 4.96559 16.6873 3.70141C19.0433 2.95439 21.5142 2.60962 23.9851 2.72454C29.5015 3.06932 34.2135 5.31037 37.9486 9.39024C40.7068 12.4358 42.3732 15.9985 43.0053 20.0209C43.6374 24.2731 43.0053 28.353 41.0516 32.203C38.868 36.5702 35.4777 39.7306 30.9956 41.6844C29.6739 42.259 28.2948 42.7187 26.8008 42.9486C26.6859 42.9486 26.6284 43.121 26.5709 43.006C26.2262 40.8224 26.7433 38.7538 27.6053 36.7426C28.6971 34.3291 30.2486 32.2605 31.9725 30.2493C33.409 28.5828 35.0754 27.0313 36.6844 25.4798C37.6038 24.5604 38.4083 23.641 38.868 22.4343C39.6725 20.4806 39.2128 18.8716 37.4889 17.6074C36.1672 16.6306 34.6157 16.1134 33.0642 15.6537C31.5702 15.194 30.0762 14.6194 28.6396 14.0447C28.3523 13.0679 27.6627 12.4358 26.7433 12.091C25.5366 11.8037 24.3299 11.9186 23.0657 12.2634ZM41.8561 24.503H41.971C42.2008 23.6985 42.2009 22.8366 42.2009 21.9746C42.2009 20.9977 42.0859 20.0209 41.9135 19.044C41.2814 15.8835 39.8449 13.1253 37.6038 10.7693C36.2247 9.33278 34.6732 8.12605 33.1217 6.86187C31.7426 5.71261 30.2486 4.85067 28.5247 4.39096C26.8583 3.98872 25.2493 3.75887 23.5254 4.04619C23.4105 4.04619 23.2956 4.04619 23.2956 4.16112C23.2956 4.27604 23.4105 4.27604 23.5254 4.27604C26.0538 4.73574 28.4672 5.54023 30.8232 6.45963C33.1217 7.37904 35.0755 8.70068 36.512 10.7693C37.4889 12.2059 38.4083 13.7 39.1553 15.3089C40.1322 17.4925 40.8792 19.7336 41.3389 22.0321C41.5688 22.9515 41.7411 23.6985 41.8561 24.503Z" fill="#DADEEF" stroke="white"/>
<path fill-rule="evenodd" clip-rule="evenodd" d="M20.0776 14.217C22.2612 14.217 23.9851 15.9984 23.9851 18.1245C23.9851 20.3081 22.2037 22.032 20.0201 22.0895C17.8366 22.0895 16.1127 20.3081 16.1127 18.1245C16.1127 15.9409 17.894 14.217 20.0776 14.217ZM22.8358 18.182C22.8358 16.6305 21.6291 15.4238 20.0776 15.4238C18.5261 15.4238 17.3194 16.6305 17.3194 18.182C17.3194 19.676 18.5261 20.9402 20.0201 20.9402H20.0776C21.5716 20.9402 22.7784 19.7335 22.8358 18.182Z" fill="#FCFDFB" stroke="white"/>
<path fill-rule="evenodd" clip-rule="evenodd" d="M23.2956 26.2844C24.7897 27.2038 26.4561 27.3187 28.1225 27.2612C30.421 27.1463 32.6046 26.6291 34.6733 25.7097C35.4778 25.365 36.2823 25.0202 37.0293 24.5605C37.0867 24.503 37.1442 24.4455 37.2591 24.503C37.2017 24.6754 37.0293 24.7329 36.8569 24.8478C34.6158 26.3418 32.1449 27.2612 29.5016 27.7784C28.0076 28.0657 26.4561 28.0657 25.0195 27.5485C24.2725 27.2612 23.583 26.8015 23.2956 26.2844ZM23.0658 12.2634C24.2725 11.9186 25.5367 11.8037 26.7434 12.2634C27.6628 12.6082 28.3524 13.2403 28.6397 14.2171C26.9158 13.2977 25.0195 12.7231 23.0658 12.2634Z" fill="#9F9F9F" stroke="white"/>
<path fill-rule="evenodd" clip-rule="evenodd" d="M34.156 22.8941C33.6963 22.8941 33.2941 22.4918 33.2941 22.0321C33.2941 21.5724 33.6388 21.1702 34.0985 21.1702C34.5582 21.1702 34.9605 21.5149 35.018 21.9746C34.9605 22.4918 34.6157 22.8941 34.156 22.8941Z" fill="#FCFDFB" stroke="white"/>
<path fill-rule="evenodd" clip-rule="evenodd" d="M37.4888 24.3307C37.4888 24.3882 37.4314 24.4457 37.3739 24.4457C37.3739 24.3307 37.4314 24.2733 37.4888 24.3307ZM37.6612 24.2158L37.4888 24.3307L37.4314 24.2733C37.5463 24.2158 37.6038 24.2158 37.6612 24.2158Z" fill="#9F9F9F"/>
<path d="M37.4888 24.3307C37.4888 24.3882 37.4314 24.4457 37.3739 24.4457C37.3739 24.3307 37.4314 24.2733 37.4888 24.3307ZM37.4888 24.3307L37.6612 24.2158C37.6038 24.2158 37.5463 24.2158 37.4314 24.2733L37.4888 24.3307Z" stroke="white"/>
<path fill-rule="evenodd" clip-rule="evenodd" d="M37.6613 24.2158C37.7187 24.2158 37.7762 24.2158 37.6613 24.2158V24.2158Z" fill="#9F9F9F" stroke="white"/>
<path fill-rule="evenodd" clip-rule="evenodd" d="M41.8561 24.5031C41.6837 23.6986 41.5113 22.9516 41.3964 22.1471C40.9367 19.7911 40.1322 17.5501 39.2128 15.4239C38.5232 13.815 37.6038 12.3209 36.5695 10.8844C35.1329 8.81571 33.2366 7.49406 30.8807 6.57466C28.4672 5.65525 26.1112 4.79331 23.5829 4.39107C23.468 4.39107 23.353 4.39107 23.353 4.27614C23.353 4.16122 23.468 4.16122 23.5829 4.16122C25.2493 3.8739 26.9157 4.04629 28.5822 4.50599C30.306 4.9657 31.8001 5.8851 33.1792 6.9769C34.7307 8.24108 36.2822 9.4478 37.6613 10.8844C39.9023 13.2404 41.3389 15.9986 41.971 19.159C42.1434 20.1359 42.2583 21.1128 42.2583 22.0896C42.2583 22.8941 42.2583 23.7561 42.0285 24.618L41.8561 24.5031Z" fill="#FFFEFC" stroke="white"/>
<path fill-rule="evenodd" clip-rule="evenodd" d="M22.8359 18.1821C22.8359 19.6762 21.6292 20.9404 20.1351 20.9404H20.0777C18.5836 20.9404 17.3195 19.7336 17.3195 18.1821V18.1247C17.3195 16.5732 18.5836 15.3665 20.0777 15.3665C21.5717 15.3665 22.8359 16.6306 22.8359 18.1821Z" fill="#9F9F9F" stroke="white"/>
<path fill-rule="evenodd" clip-rule="evenodd" d="M110.007 29.2723C109.95 29.3298 109.892 29.3298 109.835 29.3872C108.054 31.3984 105.813 31.7432 103.399 31.1111C100.411 30.3641 98.802 28.238 98.1699 25.3074C97.7677 23.4111 97.8826 21.5148 98.6296 19.7335C99.9513 16.573 102.939 14.8491 106.33 15.3088C107.881 15.5387 109.318 16.0559 110.41 17.2051C111.214 18.0671 111.674 19.1014 111.846 20.2506C111.904 20.4805 111.789 20.538 111.616 20.538C110.927 20.538 110.18 20.538 109.49 20.538C109.318 20.538 109.26 20.4805 109.203 20.3081C108.858 18.7566 107.824 17.8947 106.33 17.6073C104.606 17.2626 103.112 17.6073 101.962 18.9865C100.928 20.2506 100.641 21.8021 100.641 23.4111C100.641 24.6178 100.871 25.7671 101.388 26.8014C102.595 29.0999 105.583 29.9044 107.824 28.5828C109.088 27.8357 109.49 26.629 109.605 25.2499C109.605 24.9626 109.433 25.0201 109.26 25.0201C108.111 25.0201 107.019 25.0201 105.87 25.0201C105.525 25.0201 105.468 24.9051 105.468 24.6178C105.468 24.1581 105.468 23.7559 105.468 23.2962C105.468 23.0089 105.583 22.9514 105.813 22.9514C107.766 22.9514 109.777 22.9514 111.731 22.9514C111.961 22.9514 112.076 23.0089 112.076 23.2387C112.076 25.7671 112.076 28.238 112.076 30.7664C112.076 30.9962 112.018 31.0537 111.789 31.0537C111.329 31.0537 110.754 31.1686 110.41 30.9962C110.065 30.7664 110.18 30.1917 110.065 29.732C110.065 29.5596 110.007 29.3872 110.007 29.2723ZM64.4967 20.538C64.1519 20.538 63.8071 20.538 63.4049 20.538C63.175 20.538 63.1176 20.4805 63.0601 20.2506C62.6004 18.6417 61.5661 17.6648 59.8997 17.4924C58.0608 17.32 56.5093 17.8947 55.5899 19.5611C54.2108 22.0895 54.2683 24.6753 55.6474 27.1462C56.5668 28.8126 58.578 29.5596 60.4168 29.0425C62.0258 28.5828 62.7728 27.376 63.1176 25.8245C63.2325 25.1925 63.2325 25.1925 63.8646 25.1925C64.4392 25.1925 65.0138 25.1925 65.5885 25.1925C65.8183 25.1925 65.8758 25.2499 65.8183 25.4798C65.531 28.5253 63.5773 30.8813 60.5892 31.341C56.2795 32.0305 52.7168 29.3872 52.0272 25.0775C51.7399 23.1812 51.9123 21.3424 52.6593 19.5611C53.981 16.573 56.9116 14.9641 60.187 15.3663C61.7385 15.5961 63.175 16.1133 64.3243 17.2626C65.1288 18.1245 65.5885 19.1588 65.7609 20.3081C65.8183 20.538 65.7609 20.5954 65.531 20.5954C65.2437 20.4805 64.8415 20.538 64.4967 20.538ZM149.082 30.9962C148.105 30.9962 147.243 30.9962 146.324 30.9962C146.094 30.9962 145.979 30.8813 145.922 30.7089C144.945 29.0999 143.91 27.5484 142.934 25.9395C142.761 25.6522 142.704 25.6522 142.416 25.882C141.44 26.5716 141.037 27.491 141.21 28.6977C141.325 29.3298 141.21 30.0193 141.21 30.7089C141.21 30.9962 141.095 31.0537 140.865 31.0537C140.29 31.0537 139.716 31.0537 139.141 31.0537C138.854 31.0537 138.796 30.9387 138.796 30.6514C138.796 28.2955 138.796 25.9395 138.796 23.526C138.796 21.0551 138.796 18.5842 138.796 16.0559C138.796 15.6536 138.911 15.5387 139.313 15.5961C139.831 15.6536 140.348 15.6536 140.865 15.5961C141.21 15.5961 141.267 15.7111 141.267 15.9984C141.267 18.5842 141.267 21.1701 141.267 23.7559V24.2156L141.382 24.273C141.554 24.0432 141.784 23.8133 141.957 23.5835C143.106 22.3768 144.255 21.2275 145.462 20.0208C145.577 19.9059 145.692 19.7909 145.864 19.7909C146.784 19.7909 147.703 19.7909 148.622 19.7909C148.622 19.9633 148.45 20.0208 148.393 20.1357C147.186 21.285 146.037 22.4342 144.772 23.5835C144.485 23.8133 144.485 23.9857 144.715 24.3305C146.094 26.3992 147.473 28.4678 148.852 30.5365C148.852 30.7089 148.967 30.8238 149.082 30.9962ZM120.695 26.0544C119.431 26.0544 118.224 26.0544 116.96 26.0544C116.673 26.0544 116.616 26.1119 116.616 26.3992C116.73 28.6402 118.799 30.0193 120.868 29.1574C121.442 28.9275 121.902 28.4678 122.132 27.8357C122.247 27.5484 122.419 27.491 122.649 27.491C123.166 27.491 123.741 27.491 124.258 27.491C124.545 27.491 124.603 27.5484 124.488 27.8357C123.856 29.8469 122.477 30.9387 120.408 31.2261C118.569 31.5134 116.845 31.1111 115.524 29.732C114.604 28.7552 114.202 27.491 114.087 26.1693C113.972 24.5604 114.202 23.0089 115.236 21.6298C116.558 19.9059 118.339 19.2738 120.408 19.6185C122.592 20.0208 123.913 21.3999 124.545 23.4686C124.775 24.2156 124.833 24.9626 124.775 25.7671C124.775 26.0544 124.66 26.1119 124.43 26.1119C123.224 26.0544 121.96 26.0544 120.695 26.0544ZM119.489 24.4454C120.351 24.4454 121.213 24.4454 122.017 24.4454C122.304 24.4454 122.362 24.388 122.304 24.1007C122.075 22.6066 120.983 21.5148 119.546 21.4574C118.052 21.3999 116.845 22.4342 116.616 23.9857C116.558 24.273 116.616 24.388 116.96 24.388C117.822 24.4454 118.627 24.4454 119.489 24.4454ZM67.4848 25.4223C67.4848 24.7328 67.5997 23.9857 67.7721 23.2962C68.5191 20.8827 70.6452 19.3887 73.2885 19.5611C75.2997 19.676 76.9661 20.3656 77.943 22.1469C79.0923 24.3305 79.0923 26.629 77.8855 28.7552C76.7937 30.7664 74.8975 31.3984 72.7139 31.2835C69.4385 31.1111 67.4848 28.8701 67.4848 25.4223ZM69.9557 25.4223C69.9557 26.3992 70.128 27.2611 70.7027 28.0656C71.6221 29.3872 73.4034 29.7895 74.7251 28.8701C75.0124 28.6402 75.2997 28.4104 75.5296 28.1231C76.5064 26.6865 76.5639 24.273 75.5296 22.779C74.3228 21.0551 71.7945 21.0551 70.6452 22.8365C70.128 23.5835 69.9557 24.5029 69.9557 25.4223ZM149.714 25.4798C149.714 23.8708 150.059 22.4342 151.151 21.2275C152.243 19.9633 153.737 19.5036 155.346 19.5036C156.954 19.5036 158.449 19.9633 159.598 21.2275C160.804 22.6066 161.092 24.273 160.977 26.0544C160.919 26.6865 160.804 27.3186 160.575 27.8932C159.713 30.1343 157.644 31.3984 155.001 31.2261C151.898 31.0537 149.944 29.0425 149.772 25.9395C149.772 25.8245 149.714 25.5947 149.714 25.4798ZM158.506 25.5947C158.506 24.4454 158.219 23.4686 157.816 22.779C156.954 21.3999 155.116 21.0551 153.794 21.9171C153.449 22.1469 153.162 22.4342 152.932 22.779C151.955 24.2156 152.013 26.629 152.932 28.0081C153.851 29.3298 155.633 29.732 156.954 28.8126C157.299 28.5828 157.529 28.3529 157.759 28.0081C158.334 27.2611 158.506 26.3417 158.506 25.5947ZM88.2863 21.3999C88.9759 20.538 89.7804 19.9059 90.8722 19.6185C91.849 19.3887 92.8259 19.4462 93.7453 19.8484C95.1244 20.423 95.699 21.6298 95.7565 23.0663C95.814 25.5947 95.7565 28.1231 95.7565 30.6514C95.7565 30.9387 95.699 30.9962 95.4117 30.9962C94.8371 30.9962 94.2625 30.9962 93.6878 30.9962C93.4005 30.9962 93.2856 30.9387 93.2856 30.594C93.2856 28.4678 93.2856 26.2842 93.2856 24.1581C93.2856 23.6984 93.2281 23.2387 93.1132 22.8365C92.7684 21.6872 91.6766 21.2275 90.355 21.5723C89.2057 21.9171 88.4587 22.9514 88.4587 24.273C88.4587 26.3417 88.4587 28.4678 88.4587 30.5365C88.4587 30.8813 88.4012 31.0537 87.999 30.9962C87.4818 30.9387 86.9072 30.9387 86.39 30.9962C86.1027 30.9962 85.9878 30.9387 85.9878 30.594C85.9878 28.985 85.9878 27.4335 85.9878 25.8245C85.9878 23.9857 85.9878 22.1469 85.9878 20.3081C85.9878 19.9059 86.1027 19.7909 86.505 19.8484C87.0221 19.9059 87.4818 19.8484 87.999 19.8484C88.2863 19.8484 88.4013 19.9059 88.3438 20.1932C88.2863 20.5954 88.2863 20.9977 88.2863 21.3999ZM135.406 23.5835C135.348 23.5835 135.291 23.5835 135.234 23.5835C134.601 23.641 134.199 23.5835 133.912 22.8365C133.222 21.1126 130.464 21.0551 129.315 22.6641C128.913 23.1813 128.74 23.8133 128.625 24.5029C128.51 25.5947 128.51 26.6865 128.97 27.7208C129.545 28.985 130.579 29.5596 131.901 29.3872C132.992 29.2149 133.739 28.5253 134.027 27.3186C134.084 26.9738 134.257 26.8589 134.601 26.9163C135.176 26.9163 135.693 26.9163 136.268 26.9163C136.555 26.9163 136.613 27.0313 136.555 27.2611C135.981 30.0193 134.027 31.5708 131.154 31.3984C128.28 31.2261 126.384 29.3298 126.154 26.3992C126.039 25.135 126.154 23.8708 126.672 22.6641C127.533 20.6529 129.487 19.5036 131.786 19.6185C133.165 19.676 134.429 20.0208 135.463 20.9977C136.095 21.6298 136.44 22.4342 136.613 23.2962C136.67 23.5835 136.555 23.6984 136.268 23.641C136.038 23.5835 135.751 23.5835 135.406 23.5835ZM83.2871 25.4798C83.2871 27.1462 83.2871 28.8126 83.2871 30.479C83.2871 30.9387 83.1721 31.0537 82.7699 30.9962C82.2527 30.9387 81.793 30.9387 81.2759 30.9962C80.9311 30.9962 80.8161 30.9387 80.8161 30.5365C80.8161 27.5484 80.8161 24.5604 80.8161 21.5723C80.8161 21.1126 80.8161 20.6529 80.8161 20.1932C80.8161 19.9059 80.8736 19.8484 81.1609 19.8484C81.7356 19.8484 82.3102 19.8484 82.8848 19.8484C83.2296 19.8484 83.3445 19.9059 83.3445 20.3081C83.287 22.032 83.2871 23.7559 83.2871 25.4798ZM82.1378 15.5961C82.4826 15.6536 82.9997 15.4238 83.2296 15.6536C83.4594 15.8835 83.2871 16.4006 83.2871 16.8029C83.2871 17.1476 83.4594 17.6073 83.2296 17.8372C82.9997 18.0671 82.54 17.8947 82.1953 17.8947C81.7355 17.8947 81.1609 18.0671 80.8736 17.8372C80.6438 17.5499 80.8161 16.9753 80.8161 16.573C80.8161 15.5961 80.8161 15.5961 81.793 15.5961H82.1378Z" fill="#9F9F9F" stroke="white"/>
</g>
</svg>
