<svg width="160" height="27" viewBox="0 0 160 27" fill="none" xmlns="http://www.w3.org/2000/svg">
<g clip-path="url(#clip0_29_1199)">
<path d="M27.7464 5.52916V8.5749H26.7935C23.8258 8.5749 21.9177 10.6766 21.9177 13.8298V20.9751H18.6323V5.73921H21.9177V9.62755C22.4486 7.31579 23.9325 5.42413 26.7935 5.42413C27.1111 5.42413 27.4288 5.42413 27.7464 5.52916ZM45.7719 5.73086L39.3482 20.9655L36.9257 26.4293H33.766L36.294 20.7555L29.9745 5.72966H33.2397L37.7683 16.9722L42.4024 5.62583H45.7719V5.73086ZM64.608 13.3011C64.608 18.5523 60.8178 21.178 57.2385 21.178C54.5019 21.178 52.5025 19.7076 51.9763 18.4473H51.8697V26.4293H48.608V5.73921H51.8708V8.1548H51.9763C52.5025 6.99952 54.5019 5.42413 57.2385 5.42413C60.9233 5.42413 64.608 8.04977 64.608 13.3011ZM61.4495 13.3011C61.4495 10.0453 59.0282 8.36485 56.608 8.36485C54.1867 8.36485 51.7654 10.0453 51.7654 13.3011C51.7654 16.5569 54.1867 18.2373 56.608 18.2373C59.1337 18.2373 61.4495 16.5569 61.4495 13.3011ZM72.0937 8.28847V16.5724C72.0937 17.4114 72.5144 18.1454 73.7742 18.1454C74.0895 18.1454 74.6145 18.0403 75.1396 17.8303V20.3473C74.6145 20.7662 73.5633 20.9763 72.7242 20.9763C70.4131 20.9763 68.7337 19.8234 68.7337 17.0975V8.28847H66.6311V5.6688H68.7325V1.78881H71.987V5.6676H75.0329V8.28966H72.0925L72.0937 8.28847ZM77.7719 13.3011C77.7719 8.1548 81.7482 5.42413 85.6178 5.42413C89.5941 5.42413 93.5704 8.1548 93.5704 13.3011C93.5704 18.4473 89.5941 21.178 85.6178 21.178C81.7482 21.178 77.7719 18.4473 77.7719 13.3011ZM90.3265 13.3011C90.3265 10.1503 88.1292 8.36485 85.619 8.36485C83.1076 8.36485 80.9114 10.1503 80.9114 13.3011C80.9114 16.4518 83.2119 18.2373 85.619 18.2373C88.0249 18.2373 90.3265 16.4518 90.3265 13.3011ZM105.925 5.52916V8.5749H104.971C102.003 8.5749 100.095 10.6766 100.095 13.8298V20.9751H96.8107V5.73921H100.096V9.62755C100.626 7.31579 102.108 5.42413 104.971 5.42413C105.288 5.42413 105.606 5.42413 105.925 5.52916ZM141.569 12.0407V20.9751H138.312V12.5671C138.312 9.93904 136.841 8.46749 134.635 8.46749C132.428 8.46749 130.852 9.93904 130.852 12.5671V20.9751H127.595V5.83946H130.852V8.15241C131.693 6.78589 133.268 5.62941 135.685 5.62941C138.943 5.52439 141.569 7.52107 141.569 12.0407ZM150.81 14.7774L148.696 17.0891V20.9763H145.417V0.172852H148.696V12.8857L155.146 5.7416H159.058L152.819 12.5707L159.797 20.9763H156.097L150.81 14.7774ZM124.354 13.1805V5.33701H121.092V7.76812H120.986C120.46 6.49945 118.459 5.02074 115.724 5.02074C112.145 5.02074 108.354 7.6619 108.354 12.9454C108.354 18.2289 112.143 20.8701 115.723 20.9763C116.103 20.9763 116.469 20.9453 116.819 20.8892C117.478 20.4822 118.206 19.8317 119.074 18.8447C118.556 18.766 118.138 18.7099 117.783 18.6609C116.532 18.4915 116.018 18.4211 114.514 17.8816C113.748 17.6071 112.395 16.3874 111.989 15.2416C111.687 14.5912 111.512 13.8262 111.512 12.9454C111.512 9.66932 113.933 7.97936 116.354 7.97936C118.776 7.97936 121.197 9.66932 121.197 12.9442L121.196 13.0492C122.383 13.0898 123.494 13.1387 124.354 13.1805Z" fill="#9F9F9F" stroke="white"/>
<path d="M119.331 22.1864L118.694 21.5634L121.458 18.5487L118.48 15.7416L119.119 15.1187L122.734 18.5487L119.331 22.1864Z" fill="#9F9F9F" stroke="#9F9F9F" stroke-width="1.196" stroke-miterlimit="10"/>
<path d="M6.5683 18.1107C5.82637 17.8266 5.05956 17.4006 4.512 16.768C3.69517 15.801 3.24873 14.5717 3.25333 13.3022C3.25333 10.1514 5.45778 8.36479 7.97511 8.36479C9.23496 8.36479 10.4936 8.78489 11.3339 9.73012C11.5828 9.98075 11.7843 10.2397 11.9455 10.5035L12.5357 10.2791C13.3535 9.96882 14.1701 9.65732 14.9879 9.33986C13.5656 6.76554 10.771 5.42407 7.97511 5.42407C3.98815 5.42407 0 8.15474 0 13.301C0 18.3649 3.85896 21.0908 7.78074 21.1779C8.46815 20.5931 9.25037 19.7995 9.83348 19.2063L10.2376 18.7957C8.88652 18.7957 7.53541 18.5678 6.5683 18.1107Z" fill="#9F9F9F" stroke="white"/>
<path d="M10.3703 22.5912L9.73144 21.9682L12.4965 18.9535L9.51929 16.1464L10.1569 15.5222L13.7717 18.9535L10.3703 22.5912Z" fill="#9F9F9F" stroke="#9F9F9F" stroke-width="1.196" stroke-miterlimit="10"/>
</g>
<defs>
<clipPath id="clip0_29_1199">
<rect width="160" height="26.2564" fill="white" transform="translate(0 0.172852)"/>
</clipPath>
</defs>
</svg>
