<svg width="180" height="53" viewBox="0 0 180 53" fill="none" xmlns="http://www.w3.org/2000/svg">
<g clip-path="url(#clip0_29_1190)">
<path d="M29.3575 29.4339C28.8417 29.749 28.24 29.8063 27.7816 29.5485C27.2086 29.2046 26.8647 28.431 26.8647 27.3709V24.1332C26.8647 22.586 26.263 21.4685 25.2315 21.182C23.4838 20.6662 22.1657 22.8152 21.6787 23.6174L18.5842 28.5743V22.4713C18.5555 21.0674 18.0971 20.2365 17.2375 19.9786C16.6645 19.8067 15.8049 19.8926 14.974 21.1533L8.06879 32.2131C7.15191 30.4653 6.66482 28.517 6.66482 26.54C6.66482 19.864 12.0228 14.4487 18.5842 14.4487C25.1456 14.4487 30.5036 19.864 30.5036 26.54V26.5686V26.5973C30.5609 27.8866 30.1597 28.9181 29.3575 29.4339ZM33.1396 26.54V26.5113V26.4827C33.1109 18.3741 26.5782 11.7554 18.5842 11.7554C10.5615 11.7554 4.02881 18.3741 4.02881 26.54C4.02881 34.6772 10.5615 41.3246 18.5842 41.3246C22.2804 41.3246 25.7759 39.9206 28.4693 37.3706C29.0137 36.8548 29.0423 36.0239 28.5266 35.4795C28.0395 34.9351 27.2086 34.9065 26.6642 35.3936C26.6642 35.3936 26.6642 35.3936 26.6355 35.4222C24.4579 37.4852 21.5354 38.6599 18.5269 38.6599C15.0027 38.6599 11.8509 37.1127 9.67332 34.6486L15.8909 24.6776V29.2906C15.8909 31.4968 16.7504 32.2131 17.4668 32.4137C18.1831 32.6143 19.2719 32.471 20.4466 30.6086L23.8562 25.0787C23.9708 24.9068 24.0568 24.7349 24.1714 24.6203V27.4282C24.1714 29.4912 25.0023 31.153 26.4349 31.9553C27.7243 32.7002 29.3575 32.6143 30.7041 31.7834C32.366 30.6946 33.2542 28.8035 33.1396 26.54ZM53.4255 21.4972C53.7693 21.6977 54.0845 22.1848 54.0845 22.6146C54.0845 23.3023 53.5114 23.8753 52.8524 23.8753C52.6805 23.8753 52.5372 23.818 52.394 23.7894C51.6204 23.2163 50.6462 22.8438 49.6147 22.8438C47.1792 22.8438 45.5174 24.8208 45.5174 27.2849C45.5174 29.749 47.2079 31.6974 49.6147 31.6974C50.8181 31.6974 51.9069 31.2103 52.7091 30.4367C52.9097 30.2934 53.1676 30.2075 53.4255 30.2075C54.0845 30.2075 54.6002 30.7232 54.6002 31.3822C54.6002 31.812 54.3423 32.1845 54.0272 32.3851C52.8524 33.3879 51.2765 34.0469 49.6433 34.0469C45.9185 34.0469 42.8814 30.9811 42.8814 27.199C42.8814 23.4169 45.9185 20.3511 49.6433 20.3511C51.0187 20.3224 52.3367 20.7522 53.4255 21.4972ZM60.2447 24.3624C62.7948 24.3624 64.915 26.5113 64.915 29.176C64.915 31.812 62.7661 34.0755 60.2447 34.0755C57.58 34.0755 55.3738 31.8407 55.3738 29.176C55.3738 26.5113 57.58 24.3624 60.2447 24.3624ZM60.2161 31.6974C61.3335 31.6974 62.279 30.6373 62.279 29.2046C62.279 27.772 61.3335 26.8552 60.2161 26.8552C59.0127 26.8552 58.0098 27.7434 58.0098 29.2046C58.0098 30.6086 59.0127 31.6974 60.2161 31.6974ZM66.5196 32.5856V25.8237C66.5196 25.0787 67.0926 24.477 67.8376 24.477C68.5539 24.477 69.1556 25.0787 69.1556 25.8237V32.5856C69.1556 33.3306 68.5539 33.9323 67.8376 33.9323C67.1213 33.9323 66.5196 33.3019 66.5196 32.5856ZM66.319 21.927C66.319 21.0387 67.0067 20.3511 67.8376 20.3511C68.6972 20.3511 69.3848 21.0674 69.3848 21.927C69.3848 22.7865 68.6972 23.4742 67.8376 23.4742C66.978 23.4455 66.319 22.7579 66.319 21.927ZM74.1984 28.9181V32.5856C74.1984 33.3306 73.5967 33.9323 72.8804 33.9323C72.1641 33.9323 71.5624 33.3306 71.5624 32.5856V25.5085C71.5624 24.9354 72.0208 24.477 72.5939 24.477C73.1669 24.477 73.5967 24.9641 73.5967 25.5085C74.6568 24.5057 75.6024 24.3624 76.4906 24.3624C79.1266 24.3624 80.3013 26.3394 80.3013 28.603V32.5856C80.3013 33.3306 79.6996 33.9323 78.9833 33.9323C78.267 33.9323 77.6653 33.3306 77.6653 32.5856V28.9181C77.6653 27.772 77.5221 26.7979 75.8602 26.7979C74.6855 26.7979 74.1984 27.772 74.1984 28.9181ZM88.8398 30.3221C88.5246 30.3221 88.324 30.1788 88.1521 29.9783L85.0863 26.6546V32.5856C85.0863 33.3306 84.4846 33.9323 83.7683 33.9323C83.052 33.9323 82.4503 33.3306 82.4503 32.5856V20.8382C82.5362 20.6376 82.7368 20.4943 82.9374 20.4943C83.1666 20.4943 83.3672 20.6949 83.5104 20.8382L88.41 26.3394C88.5532 26.5113 88.7251 26.5973 88.8398 26.5973C88.9257 26.5973 89.1263 26.5113 89.2695 26.3394L94.1691 20.8382C94.3123 20.6949 94.4843 20.4943 94.7421 20.4943C94.9714 20.4943 95.1719 20.6376 95.2292 20.8382V32.5856C95.2292 33.3306 94.6562 33.9323 93.9112 33.9323C93.1949 33.9323 92.5932 33.3306 92.5932 32.5856V26.6546L89.5274 29.9783C89.2982 30.1788 89.0976 30.3221 88.8398 30.3221ZM101.504 31.6974C102.679 31.6974 103.682 30.6373 103.682 29.2046C103.682 27.772 102.65 26.8265 101.504 26.8265C100.358 26.8265 99.4125 27.8007 99.4125 29.2046C99.4125 30.58 100.329 31.6974 101.504 31.6974ZM104.312 32.9008L104.255 32.5856C103.739 33.5885 102.106 34.0469 101.074 34.0469C98.6102 34.0469 96.7765 31.812 96.7765 29.1473C96.7765 26.5113 98.6388 24.3337 101.218 24.3337C101.647 24.3337 103.137 24.4484 104.283 25.795L104.341 25.4798C104.341 24.9068 104.77 24.4484 105.343 24.4484C105.917 24.4484 106.375 24.9354 106.375 25.4798V32.8722C106.375 33.4452 105.917 33.9036 105.343 33.9036C104.742 33.9323 104.312 33.4452 104.312 32.9008ZM113.624 26.7979H113.338C111.676 26.8838 111.36 27.8293 111.36 28.9181V32.5856C111.36 33.3306 110.759 33.9323 110.042 33.9323C109.326 33.9323 108.724 33.3306 108.724 32.5856V25.5085C108.724 24.9354 109.183 24.477 109.756 24.477C110.329 24.477 110.759 24.9641 110.759 25.5085C111.733 24.5916 112.535 24.3911 113.338 24.3624H113.595C114.226 24.3624 114.799 24.9068 114.799 25.5945C114.827 26.2248 114.254 26.7979 113.624 26.7979ZM123.796 31.9553C123.91 32.1558 123.996 32.3564 123.996 32.5856C123.996 33.2733 123.366 33.9036 122.678 33.9036C122.22 33.9036 121.819 33.5598 121.503 33.1587L118.466 29.6344V32.557C118.466 33.3019 117.865 33.9036 117.148 33.9036C116.432 33.9036 115.83 33.3019 115.83 32.557V21.8123C115.83 21.0674 116.403 20.4657 117.148 20.4657C117.893 20.4657 118.466 21.0674 118.466 21.8123V28.517L121.503 25.1647C121.819 24.8208 122.191 24.4484 122.65 24.4484C123.309 24.4484 123.91 25.0501 123.91 25.7377C123.91 25.9383 123.853 26.1675 123.738 26.3394L121.332 28.9754L123.796 31.9553ZM128.953 26.8265C128.237 26.8265 127.062 27.199 127.062 28.3164H130.873C130.844 27.199 129.641 26.8265 128.953 26.8265ZM132.391 30.0069H127.062C127.062 31.5828 128.581 31.8407 129.24 31.8407C129.727 31.8407 130.414 31.7547 130.959 31.4968C131.131 31.3822 131.388 31.2963 131.646 31.2963C132.219 31.2963 132.706 31.7834 132.706 32.3851C132.706 32.7862 132.449 33.13 132.133 33.3306C131.331 33.9323 130.271 34.0755 129.268 34.0755C126.604 34.0755 124.397 32.6429 124.397 29.2906C124.397 26.6546 125.744 24.3624 128.896 24.3624C131.446 24.3624 133.365 26.0242 133.423 28.9754C133.423 29.5198 132.964 30.0069 132.391 30.0069ZM139.726 34.0469H139.01C137.004 34.0469 135.83 33.1587 135.83 30.0356V26.7979H135.142C134.512 26.7979 133.967 26.2248 133.967 25.5945C133.967 24.9068 134.54 24.3624 135.142 24.3624H135.83V21.8697C135.83 21.1247 136.403 20.523 137.148 20.523C137.864 20.523 138.466 21.1247 138.466 21.8697V24.3624H139.554C140.185 24.3624 140.729 24.9068 140.729 25.5945C140.729 26.2248 140.156 26.7979 139.554 26.7979H138.466V29.5198C138.466 31.3249 138.552 31.6974 139.354 31.6974H139.726C140.357 31.6974 140.901 32.2131 140.901 32.8722C140.901 33.5025 140.357 34.0469 139.726 34.0469ZM152.477 21.4972C152.82 21.6977 153.136 22.1848 153.136 22.6146C153.136 23.3023 152.563 23.8753 151.904 23.8753C151.732 23.8753 151.588 23.818 151.445 23.7894C150.672 23.2163 149.697 22.8438 148.666 22.8438C146.23 22.8438 144.569 24.8208 144.569 27.2849C144.569 29.749 146.259 31.6974 148.666 31.6974C149.869 31.6974 150.958 31.2103 151.76 30.4367C151.961 30.2934 152.219 30.2075 152.477 30.2075C153.136 30.2075 153.651 30.7232 153.651 31.3822C153.651 31.812 153.393 32.1845 153.078 32.3851C151.904 33.3879 150.328 34.0469 148.694 34.0469C144.97 34.0469 141.933 30.9811 141.933 27.199C141.933 23.4169 144.97 20.3511 148.694 20.3511C150.07 20.3224 151.416 20.7522 152.477 21.4972ZM159.153 31.6974C160.327 31.6974 161.33 30.6373 161.33 29.2046C161.33 27.772 160.299 26.8265 159.153 26.8265C157.978 26.8265 157.061 27.8007 157.061 29.2046C157.061 30.58 158.007 31.6974 159.153 31.6974ZM161.961 32.9008L161.903 32.5856C161.387 33.5885 159.754 34.0469 158.723 34.0469C156.259 34.0469 154.425 31.812 154.425 29.1473C154.425 26.5113 156.287 24.3337 158.866 24.3337C159.296 24.3337 160.786 24.4484 161.932 25.795L161.989 25.4798C161.989 24.9068 162.419 24.4484 162.992 24.4484C163.565 24.4484 164.023 24.9354 164.023 25.4798V32.8722C164.023 33.4452 163.565 33.9036 162.992 33.9036C162.39 33.9323 161.961 33.4452 161.961 32.9008ZM171.215 31.6974C172.39 31.6974 173.307 30.58 173.307 29.2046C173.307 27.772 172.361 26.8265 171.215 26.8265C170.04 26.8265 169.038 27.772 169.038 29.2046C169.038 30.6373 170.04 31.6974 171.215 31.6974ZM169.038 33.2733V36.6256C169.038 37.3706 168.436 37.9723 167.72 37.9723C167.003 37.9723 166.402 37.3706 166.402 36.6256V25.5085C166.402 24.9354 166.86 24.477 167.433 24.477C168.006 24.477 168.436 24.9641 168.436 25.6231C169.41 24.6203 170.614 24.3624 171.53 24.3624C174.08 24.3624 175.972 26.5113 175.972 29.176C175.972 31.812 174.166 34.0755 171.674 34.0755C170.9 34.0469 169.754 33.8177 169.038 33.2733Z" fill="#9F9F9F"/>
</g>
<defs>
<clipPath id="clip0_29_1190">
<rect width="180" height="52.7344" fill="white" transform="translate(0 0.172852)"/>
</clipPath>
</defs>
</svg>
