<svg width="49" height="48" viewBox="0 0 49 48" fill="none" xmlns="http://www.w3.org/2000/svg">
<path d="M9.22545 14.528C9.25059 14.2845 9.21807 14.0385 9.13051 13.8098C9.04295 13.5812 8.90282 13.3764 8.72145 13.212L4.98545 8.678V8H16.5814L25.5454 27.81L33.4254 8H44.4814V8.678L41.2874 11.76C41.1518 11.8642 41.0471 12.0035 40.9847 12.1628C40.9223 12.3221 40.9046 12.4954 40.9334 12.664V35.332C40.9046 35.5006 40.9223 35.6739 40.9847 35.8332C41.0471 35.9925 41.1518 36.1318 41.2874 36.236L44.4074 39.32V40H28.7194V39.322L31.9514 36.162C32.2694 35.842 32.2694 35.748 32.2694 35.26V16.936L23.2854 39.924H22.0734L11.6134 16.936V32.344C11.5274 32.99 11.7414 33.644 12.1934 34.112L16.3954 39.248V39.924H4.48145V39.248L8.68145 34.112C8.90367 33.8801 9.0686 33.5995 9.16305 33.2925C9.25751 32.9855 9.27887 32.6607 9.22545 32.344V14.528Z" fill="black"/>
</svg>
