<svg width="48" height="48" viewBox="0 0 48 48" fill="none" xmlns="http://www.w3.org/2000/svg">
<mask id="mask0_1_4332" style="mask-type:luminance" maskUnits="userSpaceOnUse" x="3" y="5" width="42" height="37">
<path d="M24 18.84C32.84 18.84 40 23.58 40 29.42C40 35.26 32.84 40 24 40C15.16 40 8 35.26 8 29.42C8 23.58 15.16 18.84 24 18.84Z" fill="white" stroke="white" stroke-width="4" stroke-linecap="round" stroke-linejoin="round"/>
<path d="M7.8799 28.42C10.3541 28.42 12.3599 26.4142 12.3599 23.94C12.3599 21.4657 10.3541 19.46 7.8799 19.46C5.40567 19.46 3.3999 21.4657 3.3999 23.94C3.3999 26.4142 5.40567 28.42 7.8799 28.42Z" fill="white"/>
<path d="M40.1199 28.42C42.5941 28.42 44.5999 26.4142 44.5999 23.94C44.5999 21.4657 42.5941 19.46 40.1199 19.46C37.6457 19.46 35.6399 21.4657 35.6399 23.94C35.6399 26.4142 37.6457 28.42 40.1199 28.42Z" fill="white"/>
<path d="M36.8999 11.68C38.6783 11.68 40.1199 10.2383 40.1199 8.45999C40.1199 6.68163 38.6783 5.23999 36.8999 5.23999C35.1216 5.23999 33.6799 6.68163 33.6799 8.45999C33.6799 10.2383 35.1216 11.68 36.8999 11.68Z" fill="white"/>
<path d="M24 17.5L26.36 6.21997L36.42 8.35997" stroke="white" stroke-width="1.6" stroke-linecap="round" stroke-linejoin="round"/>
<path d="M16.8999 30.4C18.6783 30.4 20.1199 28.9583 20.1199 27.18C20.1199 25.4016 18.6783 23.96 16.8999 23.96C15.1216 23.96 13.6799 25.4016 13.6799 27.18C13.6799 28.9583 15.1216 30.4 16.8999 30.4Z" fill="black"/>
<path d="M31.0999 30.4C32.8782 30.4 34.3199 28.9583 34.3199 27.18C34.3199 25.4016 32.8782 23.96 31.0999 23.96C29.3215 23.96 27.8799 25.4016 27.8799 27.18C27.8799 28.9583 29.3215 30.4 31.0999 30.4Z" fill="black"/>
<path d="M16.9399 35.04C16.9399 35.04 18.8199 37.16 23.9999 37.16C29.1599 37.16 31.0599 35.04 31.0599 35.04" stroke="black" stroke-width="1.6" stroke-linecap="round" stroke-linejoin="round"/>
</mask>
<g mask="url(#mask0_1_4332)">
<path d="M48 0H0V48H48V0Z" fill="#FF4500"/>
</g>
</svg>
