<svg width="48" height="48" viewBox="0 0 48 48" fill="none" xmlns="http://www.w3.org/2000/svg">
<path fill-rule="evenodd" clip-rule="evenodd" d="M39.554 8.86005C40.0483 8.65203 40.5892 8.58029 41.1206 8.65229C41.652 8.72428 42.1544 8.93739 42.5754 9.26942C42.9965 9.60146 43.3209 10.0403 43.5148 10.5402C43.7087 11.0402 43.7651 11.5829 43.678 12.1121L39.142 39.6261C38.702 42.2801 35.79 43.8021 33.356 42.4801C31.32 41.3741 28.296 39.6701 25.576 37.8921C24.216 37.0021 20.05 34.1521 20.562 32.1241C21.002 30.3901 28.002 23.8741 32.002 20.0001C33.572 18.4781 32.856 17.6001 31.002 19.0001C26.398 22.4761 19.006 27.7621 16.562 29.2501C14.406 30.5621 13.282 30.7861 11.938 30.5621C9.48604 30.1541 7.21204 29.5221 5.35604 28.7521C2.84804 27.7121 2.97004 24.2641 5.35404 23.2601L39.554 8.86005Z" fill="#1098F7"/>
</svg>
