<svg width="49" height="48" viewBox="0 0 49 48" fill="none" xmlns="http://www.w3.org/2000/svg">
<path fill-rule="evenodd" clip-rule="evenodd" d="M24.3083 8C26.0183 8 27.7723 8.044 29.4723 8.116L31.4804 8.212L33.4024 8.326L35.2024 8.448L36.8463 8.576C38.6307 8.71178 40.3099 9.47287 41.5883 10.7252C42.8666 11.9775 43.662 13.6408 43.8344 15.422L43.9143 16.272L44.0644 18.092C44.2043 19.978 44.3083 22.034 44.3083 24C44.3083 25.966 44.2043 28.022 44.0644 29.908L43.9143 31.728L43.8344 32.578C43.6619 34.3595 42.8662 36.023 41.5875 37.2754C40.3088 38.5278 38.6291 39.2887 36.8443 39.424L35.2043 39.55L33.4044 39.674L31.4804 39.788L29.4723 39.884C27.752 39.9585 26.0303 39.9972 24.3083 40C22.5864 39.9972 20.8647 39.9585 19.1444 39.884L17.1363 39.788L15.2143 39.674L13.4143 39.55L11.7703 39.424C9.98598 39.2882 8.30675 38.5271 7.02844 37.2748C5.75013 36.0225 4.95473 34.3592 4.78235 32.578L4.70235 31.728L4.55235 29.908C4.40002 27.9422 4.31863 25.9716 4.30835 24C4.30835 22.034 4.41235 19.978 4.55235 18.092L4.70235 16.272L4.78235 15.422C4.95466 13.6411 5.74977 11.9781 7.02768 10.7258C8.30558 9.47352 9.98433 8.71223 11.7683 8.576L13.4103 8.448L15.2104 8.326L17.1343 8.212L19.1423 8.116C20.8634 8.04145 22.5857 8.00278 24.3083 8ZM20.3083 19.15V28.85C20.3083 29.774 21.3083 30.35 22.1083 29.89L30.5084 25.04C30.6911 24.9348 30.843 24.7832 30.9485 24.6007C31.0541 24.4181 31.1097 24.2109 31.1097 24C31.1097 23.7891 31.0541 23.5819 30.9485 23.3993C30.843 23.2168 30.6911 23.0652 30.5084 22.96L22.1083 18.112C21.9259 18.0066 21.7189 17.9512 21.5082 17.9512C21.2974 17.9513 21.0905 18.0068 20.908 18.1122C20.7256 18.2176 20.5741 18.3692 20.4688 18.5517C20.3636 18.7343 20.3082 18.9413 20.3083 19.152V19.15Z" fill="#FF1931"/>
</svg>
