<svg width="26" height="26" viewBox="0 0 26 26" fill="none" xmlns="http://www.w3.org/2000/svg">
<path d="M10.8334 16.2498L16.4559 12.9998L10.8334 9.74984V16.2498ZM23.3567 7.76734C23.4975 8.2765 23.595 8.959 23.66 9.82567C23.7359 10.6923 23.7684 11.4398 23.7684 12.0898L23.8334 12.9998C23.8334 15.3723 23.66 17.1165 23.3567 18.2323C23.0859 19.2073 22.4575 19.8357 21.4825 20.1065C20.9734 20.2473 20.0417 20.3448 18.6117 20.4098C17.2034 20.4857 15.9142 20.5182 14.7225 20.5182L13 20.5832C8.46085 20.5832 5.63335 20.4098 4.51752 20.1065C3.54252 19.8357 2.91419 19.2073 2.64335 18.2323C2.50252 17.7232 2.40502 17.0407 2.34002 16.174C2.26419 15.3073 2.23169 14.5598 2.23169 13.9098L2.16669 12.9998C2.16669 10.6273 2.34002 8.88317 2.64335 7.76734C2.91419 6.79234 3.54252 6.164 4.51752 5.89317C5.02669 5.75234 5.95835 5.65484 7.38835 5.58984C8.79669 5.514 10.0859 5.4815 11.2775 5.4815L13 5.4165C17.5392 5.4165 20.3667 5.58984 21.4825 5.89317C22.4575 6.164 23.0859 6.79234 23.3567 7.76734Z" fill="#8B8B8B"/>
</svg>
