<svg width="26" height="26" viewBox="0 0 26 26" fill="none" xmlns="http://www.w3.org/2000/svg">
<g clip-path="url(#clip0_5067_3323)">
<path d="M8.66669 6.5C10.3906 6.5 12.0439 7.18482 13.2629 8.40381C14.4819 9.62279 15.1667 11.2761 15.1667 13C15.1667 14.7239 14.4819 16.3772 13.2629 17.5962C12.0439 18.8152 10.3906 19.5 8.66669 19.5C6.94278 19.5 5.28948 18.8152 4.07049 17.5962C2.85151 16.3772 2.16669 14.7239 2.16669 13C2.16669 11.2761 2.85151 9.62279 4.07049 8.40381C5.28948 7.18482 6.94278 6.5 8.66669 6.5ZM18.4167 7.58333C20.0417 7.58333 21.125 10.0089 21.125 13C21.125 15.9911 20.0417 18.4167 18.4167 18.4167C16.7917 18.4167 15.7084 15.9911 15.7084 13C15.7084 10.0089 16.7917 7.58333 18.4167 7.58333ZM22.75 8.125C23.1617 8.125 23.5214 9.02092 23.7034 10.5582L23.7543 11.0381L23.7749 11.2927L23.8074 11.8278L23.8182 12.1084L23.8312 12.6945L23.8334 13L23.8312 13.3055L23.8182 13.8916L23.8074 14.1733L23.7749 14.7073L23.7532 14.9619L23.7044 15.4418C23.5214 16.9802 23.1628 17.875 22.75 17.875C22.3384 17.875 21.9787 16.9791 21.7967 15.4418L21.7458 14.9619C21.7383 14.8771 21.7314 14.7922 21.7252 14.7073L21.6927 14.1722C21.6885 14.0787 21.6849 13.9851 21.6819 13.8916L21.6689 13.3055V12.6945L21.6819 12.1084L21.6927 11.8267L21.7252 11.2927L21.7469 11.0381L21.7956 10.5582C21.9787 9.01983 22.3373 8.125 22.75 8.125Z" fill="#8B8B8B"/>
</g>
<defs>
<clipPath id="clip0_5067_3323">
<rect width="26" height="26" fill="white"/>
</clipPath>
</defs>
</svg>
