<svg width="26" height="26" viewBox="0 0 26 26" fill="none" xmlns="http://www.w3.org/2000/svg">
<path d="M21.6613 7.24524C22.6324 6.66467 23.359 5.7505 23.7055 4.67341C22.793 5.21486 21.7946 5.59627 20.7534 5.80116C19.31 4.27423 17.023 3.90264 15.1704 4.89403C13.3177 5.88542 12.3581 7.99435 12.8278 10.0424C9.08984 9.85474 5.60731 8.08907 3.24677 5.18474C2.01484 7.30961 2.64438 10.0259 4.68543 11.3922C3.94737 11.3685 3.22567 11.1687 2.58052 10.8094C2.58052 10.8289 2.58052 10.8484 2.58052 10.8679C2.58094 13.0813 4.14092 14.9879 6.31043 15.4266C5.62584 15.6128 4.90774 15.6402 4.21093 15.5067C4.82107 17.3996 6.56561 18.6964 8.55402 18.7351C6.90717 20.0276 4.87337 20.7286 2.77985 20.7252C2.40878 20.7257 2.03799 20.7043 1.66943 20.6612C3.79536 22.0274 6.26967 22.7525 8.79668 22.7499C12.3124 22.7741 15.691 21.3881 18.177 18.9019C20.6629 16.4158 22.0486 13.037 22.0242 9.52132C22.0242 9.31982 22.0195 9.11941 22.0101 8.92007C22.9206 8.26206 23.7064 7.4469 24.3306 6.51291C23.4824 6.88889 22.5826 7.13574 21.6613 7.24524Z" fill="#8B8B8B"/>
</svg>
