<svg width="123" height="30" viewBox="0 0 123 30" fill="none" xmlns="http://www.w3.org/2000/svg">
<path fill-rule="evenodd" clip-rule="evenodd" d="M25.1166 4.62953L25.2709 5.59199C25.3866 6.47746 25.4445 7.36293 25.4252 8.26764C25.4252 10.2503 25.1937 12.2137 24.7308 14.1387C24.1135 16.7373 23.0332 19.2205 21.5478 21.4534C19.8309 23.9943 17.3424 26.4775 13.735 28.5179L13.2913 28.7681L12.8477 28.5179C9.24028 26.516 6.75177 24.0136 5.03489 21.4534C3.53021 19.2205 2.46922 16.7566 1.85191 14.1387C1.38893 12.2137 1.15745 10.2503 1.15745 8.26764C1.15745 7.38218 1.19603 6.47746 1.31177 5.59199L1.44681 4.62953C1.4661 4.55253 1.4661 4.47553 1.44681 4.39854C1.42752 4.32154 1.40823 4.24454 1.35035 4.18679C1.31177 4.12905 1.2539 4.0713 1.19603 4.0328C1.13815 3.9943 1.06099 3.97505 1.00312 3.9558C0.925956 3.93655 0.848794 3.93655 0.771631 3.9558C0.694468 3.97505 0.617305 4.01355 0.559433 4.05205C0.50156 4.09055 0.443687 4.1483 0.405106 4.20604C0.366524 4.28304 0.347233 4.36004 0.327942 4.43704L0.173617 5.3995C0.0578726 6.34271 0 7.30518 0 8.26764C0 10.3466 0.250781 12.4062 0.73305 14.4274C1.06099 15.7941 1.50468 17.1416 2.06411 18.4313C2.62354 19.721 3.29872 20.9529 4.08964 22.1271C5.90297 24.822 8.52652 27.4592 12.3075 29.5381L13.0213 29.9423C13.1177 29.9808 13.2142 30.0001 13.3106 30.0001C13.4071 30.0001 13.5035 29.9808 13.6 29.9423L14.3137 29.5381C18.0754 27.4399 20.7183 24.8028 22.5316 22.1271C24.1135 19.7787 25.2516 17.1608 25.8882 14.4274C26.3705 12.4062 26.602 10.3466 26.602 8.26764C26.602 7.30518 26.5441 6.34272 26.4284 5.38025L26.274 4.41779C26.2547 4.34079 26.2354 4.26379 26.1969 4.18679C26.1583 4.12905 26.1004 4.0713 26.0425 4.0328C25.9847 3.9943 25.9075 3.95581 25.8303 3.93656C25.7532 3.91731 25.676 3.91731 25.5988 3.93656C25.5217 3.95581 25.4445 3.97505 25.3674 4.01355C25.3095 4.05205 25.2516 4.1098 25.213 4.16755C25.1744 4.22529 25.1359 4.30229 25.1166 4.37929V4.62953Z" fill="black"/>
<path fill-rule="evenodd" clip-rule="evenodd" d="M4.68813 3.97498L13.3304 1.26083L22.1463 4.03273C22.2234 4.05197 22.3006 4.05197 22.3778 4.05197C22.4549 4.05197 22.5321 4.03272 22.6092 3.99422C22.6864 3.95573 22.7443 3.91723 22.8022 3.84023C22.86 3.78248 22.8986 3.70549 22.8986 3.62849C22.9179 3.55149 22.9179 3.4745 22.9179 3.3975C22.9179 3.3205 22.8986 3.2435 22.86 3.16651C22.8214 3.08951 22.7829 3.03176 22.725 2.97401C22.6671 2.91627 22.59 2.87777 22.5128 2.87777L13.504 0.0288739C13.3883 -0.00962464 13.2725 -0.00962464 13.1568 0.0288739L4.36018 2.80077C4.28302 2.82002 4.22515 2.85852 4.14799 2.89702C4.09011 2.95476 4.03224 3.01251 4.01295 3.08951C3.97437 3.16651 3.95508 3.2435 3.95508 3.3205C3.95508 3.3975 3.95508 3.4745 3.97437 3.55149C3.99366 3.62849 4.03224 3.70549 4.07082 3.76323C4.1094 3.82098 4.18657 3.87873 4.26373 3.91723C4.3216 3.95573 4.39877 3.97498 4.49522 3.97498C4.5338 3.99423 4.61096 3.99423 4.68813 3.97498Z" fill="black"/>
<path fill-rule="evenodd" clip-rule="evenodd" d="M0.42402 4.80262L12.7894 29.6727C12.828 29.7689 12.9051 29.8459 12.9823 29.9037C13.1752 30.0192 13.4067 30.0192 13.5996 29.9037C13.6961 29.8459 13.7732 29.7689 13.8311 29.6727L21.3738 15.1395L21.3931 15.1202L26.2158 4.78337C26.2544 4.70637 26.2736 4.62937 26.2736 4.55237C26.2736 4.47538 26.2736 4.39838 26.2351 4.32138C26.2158 4.24439 26.1772 4.16739 26.1193 4.10964C26.0807 4.05189 26.0036 3.99414 25.9457 3.95565C25.8878 3.91715 25.8107 3.8979 25.7142 3.8979C25.6371 3.8979 25.5599 3.8979 25.4827 3.91715C25.4056 3.9364 25.3284 3.9749 25.2705 4.03264C25.2127 4.09039 25.1548 4.14814 25.1355 4.22514L20.3128 14.562L13.291 28.0942L1.44643 4.22514C1.40785 4.16739 1.34998 4.09039 1.3114 4.03264C1.25352 3.9749 1.17636 3.9364 1.0992 3.91715C1.02203 3.87865 0.944871 3.87865 0.867708 3.8979C0.790545 3.8979 0.713382 3.91715 0.636219 3.95565C0.578347 3.99414 0.501184 4.05189 0.462602 4.10964C0.424021 4.16739 0.385439 4.24439 0.366148 4.32138C0.346857 4.39838 0.327567 4.47538 0.346858 4.55237C0.366149 4.64862 0.385438 4.72562 0.42402 4.80262Z" fill="black"/>
<path fill-rule="evenodd" clip-rule="evenodd" d="M6.34648 15.8902H20.1201C20.1973 15.8902 20.2744 15.871 20.3516 15.8517C20.4287 15.8325 20.4866 15.7747 20.5252 15.717C20.5831 15.6592 20.6216 15.6015 20.6409 15.5245C20.6988 15.3705 20.6988 15.2165 20.6409 15.0625C20.6216 14.9855 20.5638 14.9277 20.5252 14.87C20.4673 14.8122 20.4095 14.7737 20.3516 14.7352C20.2744 14.716 20.1973 14.6967 20.1201 14.6967H6.34648C6.26932 14.6967 6.19216 14.716 6.11499 14.7352C6.03783 14.7545 5.97996 14.8122 5.94138 14.87C5.8835 14.9277 5.84492 14.9855 5.82563 15.0625C5.76776 15.2165 5.76776 15.3705 5.82563 15.5245C5.84492 15.6015 5.8835 15.6592 5.94138 15.717C5.99925 15.7747 6.05712 15.8132 6.11499 15.8517C6.19216 15.871 6.26932 15.871 6.34648 15.8902ZM44.7351 10.7121H35.7842C35.707 10.7121 35.6299 10.7314 35.5527 10.7506C35.4755 10.7699 35.4177 10.8276 35.3791 10.8854C35.3212 10.9431 35.2826 11.0009 35.2633 11.0779C35.244 11.1549 35.2248 11.2319 35.2248 11.3089V18.7198C35.2248 18.7968 35.244 18.8738 35.2633 18.9508C35.2826 19.0278 35.3212 19.0856 35.3791 19.1433C35.437 19.2011 35.4948 19.2396 35.5527 19.2781C35.6299 19.2973 35.707 19.3166 35.7842 19.3166H44.7351V20.5678H35.7842C35.6684 20.5678 35.5527 20.5485 35.437 20.5293C35.3212 20.51 35.2055 20.4715 35.0897 20.433C34.974 20.3945 34.8775 20.3368 34.7811 20.279C34.6846 20.202 34.6075 20.125 34.511 20.048C34.3374 19.8748 34.2216 19.6823 34.1252 19.4706C34.0866 19.3551 34.048 19.2396 34.0287 19.1241C34.0094 19.0086 33.9902 18.8931 33.9902 18.7776V11.3281C33.9902 11.2126 34.0094 11.0971 34.0287 10.9816C34.048 10.8661 34.0866 10.7506 34.1252 10.6351C34.1638 10.5196 34.2216 10.4042 34.2795 10.3079C34.3374 10.2117 34.4145 10.1154 34.511 10.0384C34.5882 9.96142 34.6846 9.88443 34.7811 9.80743C34.8775 9.74968 34.974 9.69193 35.0897 9.65343C35.2055 9.61493 35.3212 9.57643 35.437 9.55718C35.5527 9.53793 35.6684 9.51869 35.7842 9.51869H44.7351V10.7121ZM61.5374 9.46094V10.7121H52.9144V14.3888H59.8398V15.6592H52.9144V19.3358H61.5374V20.587H51.7184V9.46094H61.5374Z" fill="black"/>
<path d="M79.3043 11.3474V14.6005C79.3043 14.716 79.285 14.8315 79.2657 14.947C79.2464 15.0625 79.2078 15.178 79.1693 15.2935C79.1307 15.409 79.0728 15.5245 79.0149 15.6207C78.9378 15.717 78.8799 15.8132 78.7834 15.8902C78.7063 15.9672 78.6098 16.0442 78.5134 16.1212C78.4169 16.179 78.3205 16.2367 78.2047 16.2752C78.089 16.3137 77.9732 16.3522 77.8575 16.3907C77.7417 16.41 77.626 16.4292 77.5102 16.4292H75.8705L79.2464 20.5678H77.626L74.2694 16.4292H70.3341C70.1412 16.4292 69.9483 16.41 69.7554 16.3715V20.5678H68.54V9.48022H77.5295C77.6453 9.48022 77.761 9.49948 77.8768 9.51873C77.9925 9.53797 78.1083 9.57647 78.224 9.61497C78.3398 9.65347 78.4362 9.71122 78.5327 9.78821C78.7256 9.92296 78.8799 10.0962 79.0149 10.2887C79.0728 10.3849 79.1307 10.5004 79.1693 10.6159C79.2078 10.7314 79.2464 10.8469 79.2657 10.9624C79.285 11.0972 79.3043 11.2319 79.3043 11.3474ZM70.3148 15.1973H77.5102C77.5874 15.1973 77.6646 15.178 77.7417 15.1588C77.8189 15.1395 77.8768 15.101 77.9154 15.024C77.9732 14.9663 78.0118 14.9085 78.0311 14.8315C78.0504 14.7545 78.0697 14.6775 78.0697 14.6005V11.3474C78.0697 11.1934 78.0118 11.0394 77.9154 10.9239C77.8189 10.8084 77.6646 10.7314 77.5102 10.7314H70.3148C70.2376 10.7314 70.1605 10.7507 70.0833 10.7699C70.0061 10.7892 69.9483 10.8469 69.9097 10.9047C69.8518 10.9624 69.8132 11.0202 69.7939 11.0972C69.7746 11.1742 69.7554 11.2512 69.7554 11.3282V14.5813C69.7554 14.7353 69.8132 14.8893 69.9483 15.0048C70.0254 15.1203 70.1798 15.1973 70.3148 15.1973Z" fill="black"/>
<path fill-rule="evenodd" clip-rule="evenodd" d="M85.748 9.46094H96.5123V10.7121H91.7475V20.5678H90.5322V10.7121H85.748V9.46094ZM103.071 20.587V9.48019H104.286V20.587H103.071ZM120.471 9.46094H122.034L117.539 15.024L122.053 20.587H120.471L116.459 15.6592H112.987V20.587H111.771V9.48019H113.006V14.408H116.478L120.471 9.46094Z" fill="black"/>
</svg>
