<svg width="24" height="25" viewBox="0 0 24 25" fill="none" xmlns="http://www.w3.org/2000/svg">
<path d="M7.5 3.95605C7.5 2.92005 8.34 2.08105 9.375 2.08105H9.75C10.7446 2.08105 11.6984 2.47614 12.4017 3.1794C13.1049 3.88267 13.5 4.83649 13.5 5.83105V7.70605C13.5 8.74205 14.34 9.58105 15.375 9.58105H17.25C18.2446 9.58105 19.1984 9.97614 19.9017 10.6794C20.6049 11.3827 21 12.3365 21 13.3311V16.7061C21 17.7411 20.16 18.5811 19.125 18.5811H9.375C8.87772 18.5811 8.4008 18.3835 8.04917 18.0319C7.69754 17.6802 7.5 17.2033 7.5 16.7061V3.95605Z" fill="#099AFF"/>
<path d="M15 5.83097C15.0018 4.56952 14.5475 3.34994 13.721 2.39697C15.3943 2.83694 16.9207 3.71345 18.1441 4.93686C19.3675 6.16027 20.244 7.68668 20.684 9.35997C19.731 8.53346 18.5115 8.07922 17.25 8.08097H15.375C15.2755 8.08097 15.1802 8.04146 15.1098 7.97114C15.0395 7.90081 15 7.80543 15 7.70597V5.83097ZM4.875 6.58097H6V16.706C6 17.6011 6.35558 18.4595 6.98851 19.0925C7.62145 19.7254 8.47989 20.081 9.375 20.081H16.5V21.206C16.5 22.241 15.66 23.081 14.625 23.081H4.875C4.37772 23.081 3.90081 22.8834 3.54917 22.5318C3.19754 22.1802 3 21.7033 3 21.206V8.45597C3 7.41997 3.84 6.58097 4.875 6.58097Z" fill="#099AFF"/>
</svg>
