<svg width="230" height="36" viewBox="0 0 230 36" fill="none" xmlns="http://www.w3.org/2000/svg">
<g clip-path="url(#clip0_5067_3310)">
<mask id="mask0_5067_3310" style="mask-type:luminance" maskUnits="userSpaceOnUse" x="0" y="0" width="230" height="36">
<path d="M229.714 0H0V36H229.714V0Z" fill="white"/>
</mask>
<g mask="url(#mask0_5067_3310)">
<path d="M18.5303 35.8787C28.7644 35.8787 37.0607 27.8468 37.0607 17.9393C37.0607 8.03171 28.7644 0 18.5303 0C8.29632 0 0 8.03171 0 17.9393C0 27.8468 8.29632 35.8787 18.5303 35.8787Z" fill="black"/>
<path d="M23.6569 0.697266L13.9443 14.5276L13.2049 15.5763L12.4655 14.5276L9.6556 10.4937H6.06931L8.88289 14.5276L11.4155 18.1355L9.30436 21.1278L3.8584 28.8947C4.47765 29.6629 5.16015 30.3809 5.89927 31.0422L12.8943 21.1278L13.1975 20.6983L13.497 21.1278L16.7468 25.7808H25.8789C26.9034 25.7811 27.9 25.4566 28.716 24.8566C29.5317 24.2567 30.1225 23.4146 30.3971 22.4589C30.6716 21.5034 30.6153 20.4869 30.2368 19.5652C29.8581 18.6434 29.1779 17.8673 28.3005 17.3552C28.7277 16.6669 28.9583 15.8811 28.9686 15.0782C28.979 14.2753 28.7689 13.4842 28.3596 12.7857C27.9503 12.0873 27.3568 11.5066 26.6395 11.1034C25.9224 10.7 25.1074 10.4884 24.278 10.4902H20.3849L26.5739 1.76032C25.6338 1.32806 24.658 0.972475 23.6569 0.697266ZM24.2742 13.3715C24.7303 13.3715 25.1676 13.5469 25.4899 13.859C25.8123 14.1711 25.9935 14.5944 25.9935 15.0358C25.9935 15.4773 25.8123 15.9006 25.4899 16.2128C25.1676 16.5249 24.7303 16.7002 24.2742 16.7002H17.6194L16.5915 18.1569L17.5898 19.5887H25.8751C26.3312 19.5887 26.7684 19.7641 27.0908 20.0762C27.4132 20.3883 27.5944 20.8116 27.5944 21.253C27.5944 21.6945 27.4132 22.1178 27.0908 22.43C26.7684 22.7421 26.3312 22.9174 25.8751 22.9174H18.3218L17.0795 21.1278L15.9962 19.5887L14.9944 18.1569L16.0074 16.7252L17.538 14.5526L18.3514 13.3965H24.2669L24.2742 13.3715Z" fill="white"/>
<path d="M67.4255 9.79992H63.3918L60.264 14.8396L57.1733 9.79992H53.0362L57.8683 17.5634L52.6294 26.0784H56.7259L60.2455 20.1512L63.8652 26.0784H67.932L62.6046 17.4882L67.4255 9.79992ZM88.1297 17.4739C88.604 17.0485 88.9763 16.5279 89.2209 15.9487C89.4657 15.3693 89.5764 14.7452 89.5459 14.1201C89.5089 11.1887 87.1243 9.77843 83.9114 9.79992H77.0346V26.0784H84.6989C87.8933 26.1107 90.2667 24.3353 90.3076 21.4827C90.34 20.6886 90.1563 19.9002 89.7747 19.1966C89.3932 18.4929 88.8273 17.8989 88.1334 17.4739H88.1297ZM80.6985 12.8209H83.6562C85.2757 12.8673 86.0926 13.1787 86.1702 14.4888C86.1147 15.8275 85.002 16.3356 83.5822 16.3608H80.7282L80.6985 12.8209ZM86.1814 22.4848C85.7822 22.8428 85.1166 23.0754 84.0518 23.0754H80.6985V19.1383H84.1184C85.6676 19.1669 86.7064 19.7037 86.747 21.1784C86.7565 21.421 86.7108 21.6626 86.6139 21.8864C86.5167 22.1102 86.3705 22.3108 86.185 22.4742L86.1814 22.4848ZM105.858 9.81067L98.519 26.0784H102.364L103.473 23.5265H110.261L111.341 26.0784H115.275L107.932 9.79992L105.858 9.81067ZM104.778 20.3945L106.856 15.5303L108.904 20.3945H104.778ZM162.931 9.79992H158.414L153.359 16.1137V9.79992H149.688V26.0784H153.355V18.9199L159.404 26.0784H163.981L156.694 17.4882L162.931 9.79992ZM172.914 10.1579V26.0784H176.563V9.79992H172.914V10.1579ZM198.565 19.3208L189.803 9.79992H187.684V26.0784H191.352V16.4323L200.199 26.0784H202.236V9.79992H198.565V19.3208ZM135.343 19.3208L126.58 9.79992H124.458V26.0784H128.13V16.4323L136.977 26.0784H139.011V9.79992H135.343V19.3208ZM222.63 16.6221L220.12 19.736H225.872C225.602 20.7348 225.003 21.621 224.166 22.26C223.328 22.8989 222.298 23.2556 221.233 23.2759C220.496 23.2943 219.763 23.1699 219.078 22.91C218.393 22.65 217.767 22.2596 217.24 21.7622C216.712 21.2646 216.294 20.6698 216.007 20.013C215.72 19.356 215.573 18.6503 215.573 17.9374C215.573 17.2245 215.72 16.5187 216.007 15.8619C216.294 15.205 216.712 14.6103 217.24 14.1127C217.767 13.6151 218.393 13.2249 219.078 12.9649C219.763 12.7049 220.496 12.5804 221.233 12.5989C222.676 12.6103 224.061 13.1499 225.111 14.1094L225.406 14.3742L227.624 11.6289L227.337 11.407C225.606 10.043 223.441 9.29844 221.21 9.29883C216.156 9.29883 211.997 13.0321 211.968 17.9177C211.937 22.8034 216.127 26.5903 221.21 26.576C226.072 26.576 229.736 22.6101 229.714 17.9392V16.6221H222.63Z" fill="#0C0C0C"/>
</g>
</g>
<defs>
<clipPath id="clip0_5067_3310">
<rect width="230" height="36" fill="white"/>
</clipPath>
</defs>
</svg>
