<svg width="24" height="24" viewBox="0 0 24 24" fill="none" xmlns="http://www.w3.org/2000/svg">
<g clip-path="url(#clip0_5030_3532)">
<path d="M12.005 24.01C18.6352 24.01 24.01 18.6352 24.01 12.005C24.01 5.37482 18.6352 0 12.005 0C5.37482 0 0 5.37482 0 12.005C0 18.6352 5.37482 24.01 12.005 24.01Z" fill="url(#paint0_linear_5030_3532)"/>
<path fill-rule="evenodd" clip-rule="evenodd" d="M5.4277 11.8749C8.92624 10.3555 11.2553 9.34591 12.4248 8.85611C15.7534 7.46669 16.4531 7.22679 16.9029 7.2168C17.0029 7.2168 17.2228 7.23679 17.3727 7.35674C17.4927 7.4567 17.5227 7.58664 17.5427 7.6866C17.5626 7.78656 17.5826 7.99647 17.5626 8.15641C17.3827 10.0556 16.603 14.6637 16.2032 16.7828C16.0333 17.6824 15.7034 17.9823 15.3835 18.0123C14.6838 18.0723 14.1541 17.5525 13.4843 17.1127C12.4248 16.423 11.835 15.9931 10.8055 15.3134C9.61595 14.5337 10.3856 14.1039 11.0653 13.4042C11.2453 13.2243 14.314 10.4255 14.374 10.1756C14.384 10.1456 14.384 10.0256 14.314 9.96565C14.244 9.90568 14.1441 9.92567 14.0641 9.94566C13.9541 9.96565 12.2748 11.0852 9.00621 13.2943C8.52641 13.6241 8.09659 13.7841 7.70675 13.7741C7.27693 13.7641 6.45727 13.5342 5.83753 13.3342C5.08784 13.0943 4.48809 12.9644 4.53807 12.5446C4.56806 12.3247 4.86793 12.1048 5.4277 11.8749Z" fill="white"/>
</g>
<defs>
<linearGradient id="paint0_linear_5030_3532" x1="11.995" y1="0" x2="11.995" y2="23.8201" gradientUnits="userSpaceOnUse">
<stop stop-color="#2AABEE"/>
<stop offset="1" stop-color="#229ED9"/>
</linearGradient>
<clipPath id="clip0_5030_3532">
<rect width="24" height="24" fill="white"/>
</clipPath>
</defs>
</svg>
