<svg width="49" height="50" viewBox="0 0 49 50" fill="none" xmlns="http://www.w3.org/2000/svg">
<path fill-rule="evenodd" clip-rule="evenodd" d="M24.2217 0H23.9711C21.8048 0 20 1.04308e-07 18.5687 0.192771C17.0554 0.395181 15.6892 0.843374 14.5928 1.93976C13.494 3.03855 13.0458 4.40482 12.8434 5.91566C12.706 6.94458 12.6651 9.4 12.6554 11.506C7.78313 11.6675 4.85542 12.2361 2.8241 14.2699C-2.38419e-07 17.0916 0 21.6361 0 30.7229C0 39.8096 -2.38419e-07 44.3542 2.8241 47.1759C5.64819 49.9976 10.1904 50 19.2771 50H28.9157C38.0024 50 42.547 50 45.3687 47.1759C48.1904 44.3518 48.1928 39.8096 48.1928 30.7229C48.1928 21.6361 48.1928 17.0916 45.3687 14.2699C43.3373 12.2361 40.4096 11.6675 35.5373 11.5084C35.5277 9.4 35.4892 6.94458 35.3494 5.91807C35.147 4.40482 34.6988 3.03855 33.6 1.94217C32.5036 0.843374 31.1373 0.395181 29.6241 0.192771C28.1928 1.04308e-07 26.3855 0 24.2217 0ZM31.9229 11.4506C31.9108 9.40964 31.8771 7.21446 31.7687 6.39759C31.6169 5.28675 31.359 4.80964 31.0458 4.49639C30.7325 4.18313 30.2554 3.9253 29.1422 3.77349C27.9807 3.61928 26.4193 3.61446 24.0964 3.61446C21.7735 3.61446 20.212 3.61928 19.0482 3.7759C17.9373 3.9253 17.4602 4.18313 17.147 4.4988C16.8337 4.81446 16.5759 5.28675 16.4241 6.39759C16.3157 7.21687 16.2795 9.40964 16.2699 11.4506C17.2145 11.4458 18.2169 11.4442 19.2771 11.4458H28.9157C29.9791 11.4458 30.9815 11.4474 31.9229 11.4506ZM24.0964 19.2771C24.5757 19.2771 25.0354 19.4675 25.3743 19.8064C25.7132 20.1454 25.9036 20.605 25.9036 21.0843V21.1084C28.5277 21.7687 30.7229 23.8386 30.7229 26.706C30.7229 27.1853 30.5325 27.645 30.1936 27.9839C29.8546 28.3228 29.395 28.5133 28.9157 28.5133C28.4364 28.5133 27.9767 28.3228 27.6378 27.9839C27.2988 27.645 27.1084 27.1853 27.1084 26.706C27.1084 25.7807 26.0819 24.4988 24.0964 24.4988C22.1108 24.4988 21.0843 25.7807 21.0843 26.706C21.0843 27.6313 22.1108 28.9157 24.0964 28.9157C27.4337 28.9157 30.7229 31.2289 30.7229 34.7398C30.7229 37.6072 28.5277 39.6747 25.9036 40.3373V40.3614C25.9036 40.8408 25.7132 41.3004 25.3743 41.6394C25.0354 41.9783 24.5757 42.1687 24.0964 42.1687C23.6171 42.1687 23.1574 41.9783 22.8185 41.6394C22.4796 41.3004 22.2892 40.8408 22.2892 40.3614V40.3373C19.6651 39.6771 17.4699 37.6072 17.4699 34.7398C17.4699 34.2605 17.6603 33.8008 17.9992 33.4619C18.3381 33.1229 18.7978 32.9325 19.2771 32.9325C19.7564 32.9325 20.2161 33.1229 20.555 33.4619C20.8939 33.8008 21.0843 34.2605 21.0843 34.7398C21.0843 35.6651 22.1108 36.947 24.0964 36.947C26.0819 36.947 27.1084 35.6651 27.1084 34.7398C27.1084 33.8145 26.0819 32.5301 24.0964 32.5301C20.759 32.5301 17.4699 30.2169 17.4699 26.706C17.4699 23.8386 19.6651 21.7687 22.2892 21.1084V21.0843C22.2892 20.605 22.4796 20.1454 22.8185 19.8064C23.1574 19.4675 23.6171 19.2771 24.0964 19.2771Z" fill="#2FBF71"/>
</svg>
