<svg width="50" height="50" viewBox="0 0 50 50" fill="none" xmlns="http://www.w3.org/2000/svg">
<path d="M25 0C38.8075 0 50 11.1925 50 25C50 38.8075 38.8075 50 25 50C11.1925 50 0 38.8075 0 25C0 11.1925 11.1925 0 25 0ZM23.2325 16.16L16.16 23.2325C15.6913 23.7013 15.428 24.3371 15.428 25C15.428 25.6629 15.6913 26.2987 16.16 26.7675L23.2325 33.84C23.7013 34.3087 24.3371 34.572 25 34.572C25.6629 34.572 26.2987 34.3087 26.7675 33.84L33.84 26.7675C34.3087 26.2987 34.572 25.6629 34.572 25C34.572 24.3371 34.3087 23.7013 33.84 23.2325L26.7675 16.16C26.2987 15.6913 25.6629 15.428 25 15.428C24.3371 15.428 23.7013 15.6913 23.2325 16.16Z" fill="#2752E7"/>
</svg>
