<svg width="55" height="50" viewBox="0 0 55 50" fill="none" xmlns="http://www.w3.org/2000/svg">
<path fill-rule="evenodd" clip-rule="evenodd" d="M7.74716 9.15137C5.69248 9.15137 3.72196 9.96758 2.26909 11.4205C0.816216 12.8733 0 14.8439 0 16.8985V42.2529C0 44.3075 0.816216 46.2781 2.26909 47.7309C3.72196 49.1838 5.69248 50 7.74716 50H47.1872C49.2419 50 51.2124 49.1838 52.6653 47.7309C54.1182 46.2781 54.9344 44.3075 54.9344 42.2529V16.8985C54.9344 14.8439 54.1182 12.8733 52.6653 11.4205C51.2124 9.96758 49.2419 9.15137 47.1872 9.15137H7.74716ZM40.1444 26.0543C39.2104 26.0543 38.3147 26.4253 37.6543 27.0857C36.9939 27.7461 36.6229 28.6418 36.6229 29.5757C36.6229 30.5096 36.9939 31.4053 37.6543 32.0657C38.3147 32.7261 39.2104 33.0971 40.1444 33.0971C41.0783 33.0971 41.974 32.7261 42.6344 32.0657C43.2948 31.4053 43.6658 30.5096 43.6658 29.5757C43.6658 28.6418 43.2948 27.7461 42.6344 27.0857C41.974 26.4253 41.0783 26.0543 40.1444 26.0543Z" fill="#FFBA0C"/>
<path d="M40.102 0.189999C40.9361 -0.0322788 41.8101 -0.0599313 42.6566 0.109175C43.5031 0.278281 44.2994 0.639624 44.9841 1.16532C45.6687 1.69101 46.2235 2.36699 46.6055 3.14109C46.9874 3.91518 47.1864 4.7667 47.1871 5.62991H19.0156L40.102 0.189999Z" fill="#FFBA0C"/>
</svg>
