<svg width="36" height="36" viewBox="0 0 36 36" fill="none" xmlns="http://www.w3.org/2000/svg">
<circle cx="18" cy="18" r="18" transform="matrix(1 0 0 -1 0 36)" fill="url(#paint0_linear_1_3233)"/>
<g clip-path="url(#clip0_1_3233)">
<path d="M11.7389 22.0876C11.8491 21.9755 12.0007 21.9102 12.1615 21.9102H26.7416C27.008 21.9102 27.1412 22.2369 26.9529 22.4283L24.0727 25.3554C23.9625 25.4674 23.8109 25.5328 23.6501 25.5328H9.07002C8.80359 25.5328 8.67037 25.206 8.85871 25.0146L11.7389 22.0876Z" fill="white"/>
<path d="M11.7389 11.1591C11.8537 11.047 12.0053 10.9817 12.1615 10.9817L26.7416 10.9817C27.008 10.9817 27.1412 11.3085 26.9529 11.4999L24.0727 14.4269C23.9625 14.5389 23.8109 14.6043 23.6501 14.6043H9.07002C8.80359 14.6043 8.67037 14.2775 8.85871 14.0861L11.7389 11.1591Z" fill="white"/>
<path d="M24.0727 16.5883C23.9625 16.4762 23.8109 16.4109 23.6501 16.4109H9.07002C8.80359 16.4109 8.67037 16.7377 8.85871 16.9291L11.7389 19.8561C11.8491 19.9681 12.0007 20.0335 12.1615 20.0335H26.7416C27.008 20.0335 27.1412 19.7067 26.9529 19.5153L24.0727 16.5883Z" fill="white"/>
</g>
<defs>
<linearGradient id="paint0_linear_1_3233" x1="18" y1="0" x2="18" y2="36" gradientUnits="userSpaceOnUse">
<stop stop-color="#C934F7"/>
<stop offset="1" stop-color="#1BE5AE"/>
</linearGradient>
<clipPath id="clip0_1_3233">
<rect width="18.5758" height="14.5511" fill="white" transform="translate(8.61792 10.9817)"/>
</clipPath>
</defs>
</svg>
