<svg width="127" height="20" viewBox="0 0 127 20" fill="none" xmlns="http://www.w3.org/2000/svg">
<g clip-path="url(#clip0_81_1239)">
<mask id="mask0_81_1239" style="mask-type:luminance" maskUnits="userSpaceOnUse" x="0" y="0" width="127" height="20">
<path d="M126.842 0H0V20H126.842V0Z" fill="white"/>
</mask>
<g mask="url(#mask0_81_1239)">
<path d="M10.2319 19.9326C15.883 19.9326 20.464 15.4704 20.464 9.96628C20.464 4.46206 15.883 0 10.2319 0C4.58101 0 0 4.46206 0 9.96628C0 15.4704 4.58101 19.9326 10.2319 19.9326Z" fill="#E9E9E9"/>
<path d="M13.0627 0.387451L7.69966 8.07097L7.29139 8.65358L6.88311 8.07097L5.33156 5.82992H3.3513L4.90489 8.07097L6.30333 10.0754L5.13761 11.7377L2.13049 16.0527C2.47243 16.4795 2.84929 16.8784 3.25741 17.2457L7.11988 11.7377L7.2873 11.4991L7.45268 11.7377L9.24713 14.3227H14.2896C14.8553 14.3229 15.4056 14.1426 15.8562 13.8093C16.3066 13.476 16.6328 13.0082 16.7845 12.4772C16.936 11.9464 16.905 11.3817 16.696 10.8696C16.4868 10.3575 16.1113 9.92636 15.6268 9.64186C15.8627 9.25947 15.99 8.82292 15.9957 8.37686C16.0014 7.9308 15.8854 7.4913 15.6594 7.10325C15.4334 6.71525 15.1057 6.39264 14.7096 6.16864C14.3137 5.94453 13.8636 5.82697 13.4057 5.82797H11.256L14.6734 0.978037C14.1543 0.737892 13.6155 0.540345 13.0627 0.387451ZM13.4036 7.42869C13.6554 7.42869 13.8969 7.52614 14.0748 7.69953C14.2529 7.87292 14.3529 8.10808 14.3529 8.3533C14.3529 8.59858 14.2529 8.83375 14.0748 9.00719C13.8969 9.18058 13.6554 9.27797 13.4036 9.27797H9.72896L9.16138 10.0872L9.71261 10.8827H14.2875C14.5394 10.8827 14.7808 10.9801 14.9588 11.1535C15.1368 11.3269 15.2369 11.5621 15.2369 11.8073C15.2369 12.0526 15.1368 12.2877 14.9588 12.4612C14.7808 12.6346 14.5394 12.732 14.2875 12.732H10.1168L9.43084 11.7377L8.83267 10.8827L8.2795 10.0872L8.83885 9.29186L9.68401 8.08486L10.1332 7.44258H13.3995L13.4036 7.42869Z" fill="white"/>
<path d="M37.2306 5.4444H35.0033L33.2762 8.24422L31.5696 5.4444H29.2852L31.9533 9.75744L29.0605 14.488H31.3225L33.266 11.1951L35.2647 14.488H37.5102L34.5686 9.71567L37.2306 5.4444ZM48.6629 9.70772C48.9248 9.47139 49.1304 9.18217 49.2654 8.86039C49.4006 8.5385 49.4617 8.19178 49.4449 7.8445C49.4244 6.21594 48.1077 5.43246 46.3337 5.4444H42.5365V14.488H46.7685C48.5324 14.5059 49.8429 13.5196 49.8655 11.9348C49.8834 11.4937 49.7819 11.0557 49.5712 10.6648C49.3606 10.2738 49.0481 9.94383 48.6649 9.70772H48.6629ZM44.5596 7.12272H46.1927C47.087 7.1485 47.5381 7.3215 47.5809 8.04933C47.5503 8.79305 46.9359 9.07533 46.1519 9.08933H44.576L44.5596 7.12272ZM47.5871 12.4916C47.3667 12.6904 46.9991 12.8197 46.4112 12.8197H44.5596V10.6324H46.448C47.3034 10.6483 47.877 10.9465 47.8994 11.7658C47.9046 11.9006 47.8794 12.0348 47.8259 12.1591C47.7722 12.2834 47.6915 12.3949 47.5891 12.4857L47.5871 12.4916ZM58.452 5.45037L54.3996 14.488H56.5227L57.1351 13.0703H60.8832L61.4796 14.488H63.6518L59.5972 5.4444L58.452 5.45037ZM57.8556 11.3303L59.0031 8.62794L60.1339 11.3303H57.8556ZM89.9662 5.4444H87.472L84.6808 8.95206V5.4444H82.6538V14.488H84.6786V10.5111L88.0187 14.488H90.546L86.5223 9.71567L89.9662 5.4444ZM95.4786 5.64328V14.488H97.4935V5.4444H95.4786V5.64328ZM109.642 10.7338L104.804 5.4444H103.634V14.488H105.66V9.12906L110.545 14.488H111.669V5.4444H109.642V10.7338ZM74.7328 10.7338L69.8941 5.4444H68.7224V14.488H70.75V9.12906L75.6351 14.488H76.7582V5.4444H74.7328V10.7338ZM122.93 9.2345L121.544 10.9644H124.721C124.572 11.5193 124.241 12.0117 123.779 12.3667C123.316 12.7216 122.747 12.9198 122.159 12.9311C121.752 12.9413 121.347 12.8722 120.969 12.7278C120.591 12.5833 120.245 12.3664 119.954 12.0901C119.663 11.8137 119.432 11.4832 119.273 11.1183C119.115 10.7533 119.034 10.3613 119.034 9.96522C119.034 9.56917 119.115 9.17705 119.273 8.81217C119.432 8.44722 119.663 8.11683 119.954 7.84039C120.245 7.56394 120.591 7.34717 120.969 7.20272C121.347 7.05828 121.752 6.98911 122.159 6.99939C122.956 7.00572 123.721 7.3055 124.3 7.83855L124.463 7.98567L125.688 6.4605L125.53 6.33722C124.574 5.57944 123.378 5.1658 122.146 5.16602C119.356 5.16602 117.059 7.24005 117.043 9.95428C117.026 12.6686 119.34 14.7724 122.146 14.7644C124.831 14.7644 126.854 12.5612 126.842 9.96622V9.2345H122.93Z" fill="#E9E9E9"/>
</g>
</g>
<defs>
<clipPath id="clip0_81_1239">
<rect width="127" height="20" fill="white"/>
</clipPath>
</defs>
</svg>
