<svg width="104" height="100" viewBox="0 0 104 100" fill="none" xmlns="http://www.w3.org/2000/svg">
<path d="M51.6471 99.9998C80.1712 99.9998 103.294 77.6135 103.294 49.9996C103.294 22.3855 80.1712 -0.000244141 51.6471 -0.000244141C23.1232 -0.000244141 0 22.3855 0 49.9996C0 77.6135 23.1232 99.9998 51.6471 99.9998Z" fill="black"/>
<path d="M65.9356 1.94312L38.8649 40.4906L36.8041 43.4135L34.7432 40.4906L26.9116 29.2474H16.916L24.7579 40.4906L31.8167 50.5464L25.9326 58.8865L10.7538 80.5341C12.4797 82.6752 14.382 84.6764 16.442 86.5196L35.9384 58.8865L36.7834 57.6894L37.6182 58.8865L46.6759 71.8552H72.1286C74.9841 71.856 77.7618 70.9516 80.0361 69.2793C82.3096 67.6072 83.9563 65.2602 84.7216 62.5965C85.4867 59.9333 85.3298 57.1002 84.2748 54.5312C83.2193 51.962 81.3235 49.7989 78.8781 48.3716C80.0687 46.4532 80.7114 44.263 80.7402 42.0252C80.7691 39.7874 80.1836 37.5825 79.0428 35.6356C77.902 33.6891 76.2478 32.0706 74.2486 30.9468C72.2499 29.8224 69.9783 29.2327 67.6667 29.2377H56.8159L74.0657 4.90603C71.4455 3.70124 68.7258 2.71017 65.9356 1.94312ZM67.6561 37.2683C68.9273 37.2683 70.1461 37.7572 71.0444 38.6271C71.943 39.497 72.448 40.6768 72.448 41.907C72.448 43.1376 71.943 44.3174 71.0444 45.1875C70.1461 46.0574 68.9273 46.546 67.6561 46.546H49.108L46.2431 50.6061L49.0255 54.5967H72.118C73.3893 54.5967 74.6078 55.0856 75.5064 55.9555C76.405 56.8254 76.91 58.0052 76.91 59.2354C76.91 60.466 76.405 61.6458 75.5064 62.5159C74.6078 63.3858 73.3893 63.8744 72.118 63.8744H51.0657L47.6032 58.8865L44.5839 54.5967L41.7917 50.6061L44.6151 46.6157L48.8811 40.5603L51.1482 37.338H67.6357L67.6561 37.2683Z" fill="white"/>
</svg>
