<svg width="40" height="50" viewBox="0 0 40 50" fill="none" xmlns="http://www.w3.org/2000/svg">
<path d="M32.5 17.5H12.5V12.5C12.5 10.5 13.25 8.75 14.75 7.25C17.75 4.25 22.5 4.25 25.25 7.25C26.25 8.25 26.75 9.5 27.25 10.75C27.5 12 29 12.75 30.25 12.5C31.5 12.25 32.5 10.75 32 9.5C31.5 7.25 30.25 5.25 28.75 3.75C26.5 1.25 23.25 0 20 0C13 0 7.5 5.5 7.5 12.5V17.5C3.25 17.5 0 20.75 0 25V42.5C0 46.75 3.25 50 7.5 50H32.5C36.75 50 40 46.75 40 42.5V25C40 20.75 36.75 17.5 32.5 17.5Z" fill="#FFBA0C"/>
</svg>
