<svg width="60" height="60" viewBox="0 0 60 60" fill="none" xmlns="http://www.w3.org/2000/svg">
<g clip-path="url(#clip0_210_458)">
<mask id="mask0_210_458" style="mask-type:luminance" maskUnits="userSpaceOnUse" x="0" y="0" width="60" height="60">
<path d="M60 0H0V60H60V0Z" fill="white"/>
</mask>
<g mask="url(#mask0_210_458)">
<path d="M29.2078 44.3764L29.8266 43.6396C30.5082 42.8277 31.7203 42.7218 32.5322 43.4033L34.006 44.6399C34.8178 45.3214 34.9238 46.5336 34.2432 47.3455L33.6244 48.0824L28.066 54.6974C26.2416 56.8668 23.5435 58.1249 20.7113 58.1249C18.4557 58.1249 16.2666 57.328 14.5378 55.8786L7.18409 49.7052C5.01472 47.8808 3.75659 45.1836 3.75659 42.3411C3.75659 40.0855 4.55347 37.9058 6.01315 36.178L17.1207 22.948C17.1207 22.9386 17.1207 22.9386 17.1207 22.9386C18.945 20.7693 21.6432 19.5205 24.4753 19.5205C26.731 19.5205 28.92 20.3174 30.6478 21.7677L34.2863 24.8202L35.0166 25.4361C35.8275 26.1186 35.9325 27.3327 35.251 28.1446L34.0228 29.6089C33.3422 30.4208 32.13 30.5268 31.3182 29.8461L30.5813 29.2274L26.9419 26.1739C26.251 25.5983 25.3772 25.2814 24.4753 25.2814C23.3419 25.2814 22.2666 25.7802 21.5372 26.6446L10.4194 39.8839C9.84378 40.5749 9.51753 41.4486 9.51753 42.3514C9.51753 43.4839 10.0257 44.5593 10.89 45.2886L18.2438 51.4621C18.9357 52.048 19.8094 52.3649 20.7113 52.3649C21.8447 52.3649 22.92 51.8652 23.6494 50.9914L29.2078 44.3764Z" fill="#FF3500"/>
<path d="M30.7932 15.6234L30.1744 16.3603C29.4938 17.1722 28.2816 17.2781 27.4697 16.5966L25.9951 15.36C25.1832 14.6784 25.0772 13.4663 25.7588 12.6544L26.3776 11.9175L31.936 5.3025C33.7604 3.13313 36.4576 1.875 39.2897 1.875C41.5463 1.875 43.7354 2.67187 45.4632 4.12125L52.8169 10.2947C54.9872 12.1191 56.2444 14.8163 56.2444 17.6588C56.2444 19.9144 55.4476 22.0941 53.9888 23.8219L42.8804 37.0519C42.8804 37.0613 42.8804 37.0613 42.8804 37.0613C41.056 39.2306 38.3588 40.4794 35.5266 40.4794C33.2701 40.4794 31.081 39.6825 29.3532 38.2322L25.7147 35.1797L24.9844 34.5638C24.1744 33.8813 24.0694 32.6672 24.7501 31.8553L25.9782 30.3909C26.6597 29.5791 27.871 29.4731 28.6829 30.1538L29.4207 30.7725L33.0591 33.8259C33.7501 34.4016 34.6238 34.7184 35.5266 34.7184C36.6591 34.7184 37.7344 34.2197 38.4647 33.3553L49.5816 20.1159C50.1582 19.425 50.4844 18.5513 50.4844 17.6484C50.4844 16.5159 49.9754 15.4406 49.111 14.7113L41.7572 8.53781C41.0663 7.95188 40.1926 7.635 39.2897 7.635C38.1572 7.635 37.0819 8.13469 36.3526 9.00844L30.7932 15.6234Z" fill="#FF3500"/>
</g>
</g>
<defs>
<clipPath id="clip0_210_458">
<rect width="60" height="60" fill="white"/>
</clipPath>
</defs>
</svg>
