<svg width="56" height="56" viewBox="0 0 56 56" fill="none" xmlns="http://www.w3.org/2000/svg">
<path d="M49.0526 37.2106V17.4737L32.6053 8.22241M23.3947 8.22241L6.94736 17.4737V37.2106M10.8947 43.379L28 53L38.5263 47.079L45.1053 43.379" stroke="#FF3500" stroke-width="5" stroke-linecap="round" stroke-linejoin="round"/>
<path d="M24.0526 22.4079L20.1053 24.7105V33.921L24.0526 36.2236L28 38.5263L31.9474 36.2236L35.8947 33.921V24.7105L31.9474 22.4079L28 20.1052L24.0526 22.4079Z" fill="#FF3500" stroke="#FF3500" stroke-width="5" stroke-linecap="round" stroke-linejoin="round"/>
<path d="M28 20.1053V10.8948M35.8947 33.2632L45.1053 38.5264M20.1053 33.2632L10.8947 38.5264" stroke="#FF3500" stroke-width="5" stroke-linecap="round" stroke-linejoin="round"/>
<path d="M28 10.8947C30.1801 10.8947 31.9474 9.12744 31.9474 6.94737C31.9474 4.7673 30.1801 3 28 3C25.8199 3 24.0526 4.7673 24.0526 6.94737C24.0526 9.12744 25.8199 10.8947 28 10.8947Z" fill="#FF3500" stroke="#FF3500" stroke-width="5" stroke-linecap="round" stroke-linejoin="round"/>
<path d="M6.94737 45.1052C9.12744 45.1052 10.8947 43.3379 10.8947 41.1578C10.8947 38.9777 9.12744 37.2104 6.94737 37.2104C4.7673 37.2104 3 38.9777 3 41.1578C3 43.3379 4.7673 45.1052 6.94737 45.1052Z" fill="#FF3500" stroke="#FF3500" stroke-width="5" stroke-linecap="round" stroke-linejoin="round"/>
<path d="M49.0526 45.1052C51.2327 45.1052 53 43.3379 53 41.1578C53 38.9777 51.2327 37.2104 49.0526 37.2104C46.8726 37.2104 45.1053 38.9777 45.1053 41.1578C45.1053 43.3379 46.8726 45.1052 49.0526 45.1052Z" fill="#FF3500" stroke="#FF3500" stroke-width="5" stroke-linecap="round" stroke-linejoin="round"/>
</svg>
