<svg width="45" height="50" viewBox="0 0 45 50" fill="none" xmlns="http://www.w3.org/2000/svg">
<path d="M37.5 27.5034H35.8L30.8 32.5034H35.575L40 37.5034H5L9.45 32.5034H14.575L9.575 27.5034H7.5L0 35.0034V45.0034C0 46.3294 0.526784 47.6012 1.46447 48.5389C2.40215 49.4766 3.67392 50.0034 5 50.0034H40C41.3261 50.0034 42.5979 49.4766 43.5355 48.5389C44.4732 47.6012 45 46.3294 45 45.0034V35.0034L37.5 27.5034ZM35 14.8784L22.625 27.2534L13.75 18.4034L26.15 6.02835L35 14.8784ZM24.4 0.728355L8.475 16.6534C8.24324 16.8846 8.05937 17.1594 7.93392 17.4618C7.80846 17.7642 7.74389 18.0884 7.74389 18.4159C7.74389 18.7433 7.80846 19.0675 7.93392 19.3699C8.05937 19.6723 8.24324 19.9471 8.475 20.1784L20.85 32.5034C21.825 33.5284 23.4 33.5284 24.375 32.5034L40.275 16.6534C40.5068 16.4221 40.6906 16.1473 40.8161 15.8449C40.9415 15.5425 41.0061 15.2183 41.0061 14.8909C41.0061 14.5634 40.9415 14.2392 40.8161 13.9368C40.6906 13.6344 40.5068 13.3596 40.275 13.1284L27.9 0.753355C27.6744 0.51736 27.4038 0.329075 27.1041 0.199675C26.8044 0.070274 26.4817 0.00239389 26.1553 6.21843e-05C25.8289 -0.00226953 25.5053 0.0609947 25.2037 0.186101C24.9022 0.311207 24.6289 0.495606 24.4 0.728355Z" fill="#7765E3"/>
</svg>
