<svg width="52" height="52" viewBox="0 0 52 52" fill="none" xmlns="http://www.w3.org/2000/svg">
<g clip-path="url(#clip0_210_449)">
<path d="M6.5 52H45.6365C46.4985 52 47.3251 51.6576 47.9346 51.0481C48.5441 50.4386 48.8865 49.612 48.8865 48.75V3.25C48.8865 2.38805 48.5441 1.5614 47.9346 0.951903C47.3251 0.34241 46.4985 0 45.6365 0L6.5 0C5.63805 0 4.8114 0.34241 4.2019 0.951903C3.59241 1.5614 3.25 2.38805 3.25 3.25V48.75C3.25 49.612 3.59241 50.4386 4.2019 51.0481C4.8114 51.6576 5.63805 52 6.5 52ZM24.375 9.75H37.5115C37.9425 9.75 38.3558 9.92121 38.6606 10.226C38.9653 10.5307 39.1365 10.944 39.1365 11.375C39.1365 11.806 38.9653 12.2193 38.6606 12.524C38.3558 12.8288 37.9425 13 37.5115 13H24.375C23.944 13 23.5307 12.8288 23.226 12.524C22.9212 12.2193 22.75 11.806 22.75 11.375C22.75 10.944 22.9212 10.5307 23.226 10.226C23.5307 9.92121 23.944 9.75 24.375 9.75ZM14.625 19.5H37.5115C37.9425 19.5 38.3558 19.6712 38.6606 19.976C38.9653 20.2807 39.1365 20.694 39.1365 21.125C39.1365 21.556 38.9653 21.9693 38.6606 22.274C38.3558 22.5788 37.9425 22.75 37.5115 22.75H14.625C14.194 22.75 13.7807 22.5788 13.476 22.274C13.1712 21.9693 13 21.556 13 21.125C13 20.694 13.1712 20.2807 13.476 19.976C13.7807 19.6712 14.194 19.5 14.625 19.5ZM14.625 29.25H37.5115C37.9425 29.25 38.3558 29.4212 38.6606 29.726C38.9653 30.0307 39.1365 30.444 39.1365 30.875C39.1365 31.306 38.9653 31.7193 38.6606 32.024C38.3558 32.3288 37.9425 32.5 37.5115 32.5H14.625C14.194 32.5 13.7807 32.3288 13.476 32.024C13.1712 31.7193 13 31.306 13 30.875C13 30.444 13.1712 30.0307 13.476 29.726C13.7807 29.4212 14.194 29.25 14.625 29.25ZM14.625 39H37.5115C37.9425 39 38.3558 39.1712 38.6606 39.476C38.9653 39.7807 39.1365 40.194 39.1365 40.625C39.1365 41.056 38.9653 41.4693 38.6606 41.774C38.3558 42.0788 37.9425 42.25 37.5115 42.25H14.625C14.194 42.25 13.7807 42.0788 13.476 41.774C13.1712 41.4693 13 41.056 13 40.625C13 40.194 13.1712 39.7807 13.476 39.476C13.7807 39.1712 14.194 39 14.625 39Z" fill="#2FBF71"/>
</g>
<defs>
<clipPath id="clip0_210_449">
<rect width="52" height="52" fill="white"/>
</clipPath>
</defs>
</svg>
