<svg width="51" height="50" viewBox="0 0 51 50" fill="none" xmlns="http://www.w3.org/2000/svg">
<path d="M35.3989 24.8499C35.4013 22.9165 34.7741 21.0348 33.6121 19.4895L38.096 15.0394C38.9723 15.4056 39.9108 15.6002 40.8604 15.6125C41.7194 15.6395 42.5753 15.4969 43.3792 15.1929C44.1831 14.8889 44.9191 14.4294 45.5453 13.8408C46.1715 13.2522 46.6756 12.5459 47.0287 11.7624C47.3817 10.9789 47.5769 10.1334 47.6031 9.27439C47.6031 7.48612 46.8927 5.77111 45.6282 4.50661C44.3637 3.24212 42.6487 2.53174 40.8604 2.53174C39.0722 2.53174 37.3572 3.24212 36.0927 4.50661C34.8282 5.77111 34.1178 7.48612 34.1178 9.27439C34.1221 10.3172 34.4012 11.3405 34.9269 12.2412L30.4431 16.725C28.8669 15.8428 27.0912 15.3786 25.2849 15.3765C23.0548 15.3457 20.877 16.0531 19.0905 17.3884C17.304 18.7237 16.0089 20.6121 15.407 22.7597H13.0807C12.5716 21.5007 11.6941 20.4247 10.5632 19.6728C9.43224 18.9209 8.10062 18.528 6.74265 18.5455C5.01346 18.4909 3.33307 19.1237 2.06936 20.3052C0.805647 21.4868 0.0615627 23.1209 0 24.8499C0.0261565 25.7089 0.221357 26.5544 0.574443 27.3379C0.927529 28.1214 1.43158 28.8277 2.05777 29.4163C2.68397 30.005 3.42004 30.4644 4.2239 30.7684C5.02776 31.0724 5.88365 31.215 6.74265 31.188C8.10062 31.2056 9.43224 30.8127 10.5632 30.0607C11.6941 29.3088 12.5716 28.2329 13.0807 26.9738H15.407C16.0089 29.1214 17.304 31.0098 19.0905 32.3451C20.877 33.6805 23.0548 34.3878 25.2849 34.357C26.5734 34.3975 27.8573 34.1836 29.0631 33.7276C30.2688 33.2717 31.3729 32.5825 32.3122 31.6996C33.2515 30.8166 34.0076 29.7572 34.5372 28.5819C35.0669 27.4066 35.3597 26.1384 35.3989 24.8499ZM40.8604 7.18417C41.4726 7.1278 42.0821 7.31601 42.5559 7.70767C43.0297 8.09933 43.3292 8.66259 43.3889 9.27439C43.2907 9.87412 42.9824 10.4194 42.5193 10.8128C42.0561 11.2063 41.4682 11.4223 40.8604 11.4223C40.2527 11.4223 39.6648 11.2063 39.2016 10.8128C38.7384 10.4194 38.4302 9.87412 38.332 9.27439C38.4001 8.6661 38.7018 8.10806 39.1736 7.71807C39.6454 7.32808 40.2502 7.13664 40.8604 7.18417ZM6.74265 26.9738C6.12714 27.0208 5.51771 26.8248 5.04505 26.4278C4.57238 26.0307 4.27409 25.4643 4.21416 24.8499C4.28226 24.2416 4.58404 23.6836 5.05581 23.2936C5.52757 22.9036 6.13241 22.7122 6.74265 22.7597C7.35289 22.7122 7.95772 22.9036 8.42949 23.2936C8.90125 23.6836 9.20304 24.2416 9.27114 24.8499C9.2112 25.4643 8.91292 26.0307 8.44025 26.4278C7.96758 26.8248 7.35816 27.0208 6.74265 26.9738ZM25.2849 30.1429C23.8024 30.2165 22.3507 29.7017 21.2458 28.7105C20.1409 27.7192 19.4722 26.3317 19.3851 24.8499C19.472 23.3709 20.1419 21.9866 21.2479 21.0007C22.3539 20.0149 23.8056 19.5078 25.2849 19.5906C26.762 19.5167 28.2088 20.0269 29.3128 21.011C30.4168 21.9951 31.0892 23.3741 31.1847 24.8499C31.0891 26.3286 30.4179 27.7109 29.315 28.7004C28.212 29.6898 26.7653 30.2077 25.2849 30.1429Z" fill="#028090"/>
<path d="M6.74265 12.6457C7.69426 12.6519 8.63641 12.4566 9.50713 12.0726L15.4407 18.1073C16.2983 16.9586 17.3476 15.9664 18.5423 15.1742L12.6762 9.2744C13.2019 8.37377 13.481 7.35048 13.4853 6.30764C13.4237 4.57868 12.6796 2.94455 11.4159 1.76298C10.1522 0.581404 8.47184 -0.0513405 6.74265 0.00326193C5.01346 -0.0513405 3.33307 0.581404 2.06936 1.76298C0.805647 2.94455 0.0615627 4.57868 0 6.30764C0.0261565 7.16666 0.221357 8.0121 0.574443 8.79564C0.927529 9.57918 1.43158 10.2855 2.05777 10.8741C2.68397 11.4627 3.42004 11.9221 4.2239 12.2261C5.02776 12.5301 5.88365 12.6727 6.74265 12.6457ZM6.74265 4.21742C7.35289 4.1699 7.95772 4.36133 8.42949 4.75133C8.90125 5.14132 9.20304 5.69935 9.27114 6.30764C9.2112 6.92202 8.91292 7.48846 8.44025 7.88551C7.96758 8.28255 7.35816 8.47858 6.74265 8.43157C6.12714 8.47858 5.51771 8.28255 5.04505 7.88551C4.57238 7.48846 4.27409 6.92202 4.21416 6.30764C4.28226 5.69935 4.58404 5.14132 5.05581 4.75133C5.52757 4.36133 6.13241 4.1699 6.74265 4.21742ZM43.8272 37.0878C42.8756 37.0816 41.9335 37.277 41.0627 37.661L35.1292 31.5926C34.2527 32.708 33.1924 33.6657 31.9939 34.4245L37.86 40.2906C37.3445 41.1939 37.077 42.2174 37.0846 43.2574C37.0846 45.0456 37.795 46.7606 39.0594 48.0251C40.3239 49.2896 42.039 50 43.8272 50C45.6155 50 47.3305 49.2896 48.595 48.0251C49.8595 46.7606 50.5699 45.0456 50.5699 43.2574C50.4739 41.5523 49.7149 39.9523 48.4549 38.7995C47.195 37.6466 45.5341 37.0323 43.8272 37.0878ZM43.8272 45.5161C43.2117 45.5631 42.6023 45.3671 42.1296 44.9701C41.6569 44.573 41.3587 44.0066 41.2987 43.3922C41.397 42.7925 41.7052 42.2472 42.1684 41.8537C42.6315 41.4603 43.2195 41.2443 43.8272 41.2443C44.4349 41.2443 45.0229 41.4603 45.486 41.8537C45.9492 42.2472 46.2574 42.7925 46.3557 43.3922C46.2958 44.0066 45.9975 44.573 45.5248 44.9701C45.0521 45.3671 44.4427 45.5631 43.8272 45.5161Z" fill="#028090"/>
</svg>
