<svg width="46" height="50" viewBox="0 0 46 50" fill="none" xmlns="http://www.w3.org/2000/svg">
<path fill-rule="evenodd" clip-rule="evenodd" d="M7.97914 8.57821C7.97895 6.82121 8.52048 5.10688 9.52993 3.6688C10.5394 2.23072 11.9677 1.13884 13.6202 0.541929C15.2726 -0.0549819 17.069 -0.127892 18.7644 0.333134C20.4599 0.794159 21.9719 1.7667 23.0946 3.11824C24.5241 1.37929 26.5821 0.274776 28.8214 0.0447487C31.0607 -0.185279 33.3003 0.477767 35.0535 1.88978C36.8066 3.3018 37.9317 5.34868 38.1841 7.58557C38.4365 9.82245 37.7959 12.0686 36.4015 13.8358H38.8673C39.7303 13.8358 40.5849 14.0058 41.3823 14.336C42.1796 14.6663 42.9041 15.1504 43.5143 15.7606C44.1246 16.3709 44.6087 17.0954 44.939 17.8927C45.2692 18.6901 45.4392 19.5447 45.4392 20.4077V23.6937C45.4392 24.2166 45.2315 24.7181 44.8618 25.0878C44.492 25.4575 43.9905 25.6653 43.4676 25.6653H25.8548C25.7513 25.6653 25.6487 25.6449 25.553 25.6052C25.4574 25.5656 25.3704 25.5075 25.2972 25.4343C25.2239 25.361 25.1659 25.2741 25.1262 25.1784C25.0866 25.0827 25.0662 24.9802 25.0662 24.8766V15.7811C24.3242 15.3037 23.6594 14.716 23.0946 14.0382C22.5297 14.7151 21.8648 15.3019 21.123 15.7784V24.8766C21.123 25.0858 21.0399 25.2864 20.892 25.4343C20.7441 25.5822 20.5436 25.6653 20.3344 25.6653H2.72158C2.19869 25.6653 1.69721 25.4575 1.32746 25.0878C0.95772 24.7181 0.75 24.2166 0.75 23.6937V20.4077C0.75 19.5447 0.919988 18.6901 1.25026 17.8927C1.58053 17.0954 2.06462 16.3709 2.67488 15.7606C3.28514 15.1504 4.00963 14.6663 4.80697 14.336C5.60432 14.0058 6.4589 13.8358 7.32194 13.8358H9.78774C8.61373 12.3349 7.97692 10.4837 7.97914 8.57821ZM21.123 8.57821C21.123 7.35812 20.6384 6.188 19.7756 5.32526C18.9129 4.46253 17.7428 3.97785 16.5227 3.97785C15.3026 3.97785 14.1325 4.46253 13.2697 5.32526C12.407 6.188 11.9223 7.35812 11.9223 8.57821C11.9223 9.7983 12.407 10.9684 13.2697 11.8312C14.1325 12.6939 15.3026 13.1786 16.5227 13.1786C17.7428 13.1786 18.9129 12.6939 19.7756 11.8312C20.6384 10.9684 21.123 9.7983 21.123 8.57821ZM25.0662 8.57821C25.0662 9.18234 25.1852 9.78055 25.4164 10.3387C25.6476 10.8968 25.9864 11.404 26.4136 11.8312C26.8408 12.2583 27.3479 12.5972 27.9061 12.8284C28.4642 13.0596 29.0624 13.1786 29.6666 13.1786C30.2707 13.1786 30.8689 13.0596 31.427 12.8284C31.9852 12.5972 32.4923 12.2583 32.9195 11.8312C33.3467 11.404 33.6855 10.8968 33.9167 10.3387C34.1479 9.78055 34.2669 9.18234 34.2669 8.57821C34.2669 7.35812 33.7822 6.188 32.9195 5.32526C32.0568 4.46253 30.8866 3.97785 29.6666 3.97785C28.4465 3.97785 27.2763 4.46253 26.4136 5.32526C25.5509 6.188 25.0662 7.35812 25.0662 8.57821Z" fill="#2752E7"/>
<path d="M21.123 30.0027C21.123 29.7936 21.0399 29.593 20.892 29.4451C20.7441 29.2972 20.5435 29.2141 20.3344 29.2141H6.39923C5.88275 29.2131 5.38268 29.3954 4.98797 29.7285C4.59325 30.0616 4.3295 30.5239 4.24363 31.0332C3.66024 34.4399 3.66024 37.9209 4.24363 41.3275L4.83248 44.7686C5.02668 45.8958 5.58141 46.9295 6.41333 47.7145C7.24524 48.4995 8.30942 48.9933 9.44598 49.1219L12.2456 49.4347C14.9322 49.7344 17.6232 49.9228 20.3186 49.9999C20.4233 50.002 20.5273 49.9832 20.6246 49.9447C20.722 49.9061 20.8107 49.8486 20.8855 49.7755C20.9604 49.7023 21.02 49.615 21.0607 49.5185C21.1015 49.4221 21.1227 49.3185 21.123 49.2139V30.0027ZM25.8706 49.9999C25.7659 50.002 25.6619 49.9832 25.5646 49.9447C25.4672 49.9061 25.3785 49.8486 25.3037 49.7755C25.2288 49.7023 25.1692 49.615 25.1284 49.5185C25.0877 49.4221 25.0665 49.3185 25.0662 49.2139V30.0027C25.0662 29.7936 25.1493 29.593 25.2972 29.4451C25.4451 29.2972 25.6457 29.2141 25.8548 29.2141H39.79C40.8572 29.2141 41.7668 29.9817 41.9456 31.0332C42.5318 34.4401 42.5318 37.9206 41.9456 41.3275L41.3593 44.7686C41.165 45.8962 40.6099 46.9302 39.7775 47.7152C38.945 48.5003 37.8802 48.9939 36.7432 49.1219L33.9436 49.4347C31.2616 49.735 28.5683 49.9235 25.8706 49.9999Z" fill="#2752E7"/>
</svg>
