<svg width="60" height="60" viewBox="0 0 60 60" fill="none" xmlns="http://www.w3.org/2000/svg">
<path d="M58.2352 40.4382C58.2432 40.4034 58.2432 40.3672 58.2352 40.3324C58.2394 40.3179 58.2394 40.3026 58.2352 40.2882L49.4117 15.5824V15.5118C49.4142 15.4854 49.4142 15.4588 49.4117 15.4324C49.3731 15.3672 49.3256 15.3078 49.2705 15.2559C49.2087 15.2009 49.1406 15.1535 49.0676 15.1147C48.9946 15.0791 48.9176 15.0524 48.8382 15.0353L48.5294 15H32.647V11.6382C33.6563 11.0555 34.4451 10.1561 34.8911 9.07937C35.3371 8.00266 35.4153 6.80888 35.1137 5.68318C34.812 4.55747 34.1474 3.56275 33.2228 2.85329C32.2982 2.14383 31.1654 1.75928 29.9999 1.75928C28.8345 1.75928 27.7017 2.14383 26.7771 2.85329C25.8525 3.56275 25.1878 4.55747 24.8862 5.68318C24.5846 6.80888 24.6628 8.00266 25.1088 9.07937C25.5548 10.1561 26.3436 11.0555 27.3529 11.6382V15H11.3029C11.2235 15.0171 11.1465 15.0438 11.0735 15.0794C11.0005 15.1182 10.9323 15.1656 10.8705 15.2206C10.8155 15.2725 10.768 15.3319 10.7294 15.3971C10.7268 15.4235 10.7268 15.4501 10.7294 15.4765V15.5471L1.90582 40.2529C1.90166 40.2674 1.90166 40.2826 1.90582 40.2971C1.89788 40.3319 1.89788 40.3681 1.90582 40.4029C1.84203 40.45 1.79304 40.5143 1.76465 40.5882C1.76465 43.1624 2.78723 45.6311 4.60744 47.4513C6.42764 49.2715 8.89637 50.2941 11.4705 50.2941C14.0447 50.2941 16.5134 49.2715 18.3336 47.4513C20.1538 45.6311 21.1764 43.1624 21.1764 40.5882C21.1855 40.5387 21.1855 40.4878 21.1764 40.4382C21.1844 40.4034 21.1844 40.3672 21.1764 40.3324C21.1806 40.3179 21.1806 40.3026 21.1764 40.2882L12.7235 16.7647H27.3529V47.4794C26.6779 47.8682 26.097 48.4011 25.6517 49.0401C25.2063 49.6792 24.9074 50.4086 24.7764 51.1765H18.5294C17.8273 51.1765 17.154 51.4554 16.6576 51.9518C16.1612 52.4482 15.8823 53.1215 15.8823 53.8235V58.2353H44.1176V53.8235C44.1176 53.1215 43.8387 52.4482 43.3423 51.9518C42.8459 51.4554 42.1726 51.1765 41.4705 51.1765H35.2235C35.0924 50.4086 34.7936 49.6792 34.3482 49.0401C33.9029 48.4011 33.322 47.8682 32.647 47.4794V16.7647H47.2764L38.8941 40.2441C38.8899 40.2585 38.8899 40.2738 38.8941 40.2882C38.8861 40.3231 38.8861 40.3593 38.8941 40.3941C38.8545 40.4518 38.8303 40.5186 38.8235 40.5882C38.8235 43.1624 39.8461 45.6311 41.6663 47.4513C43.4865 49.2715 45.9552 50.2941 48.5294 50.2941C51.1035 50.2941 53.5722 49.2715 55.3925 47.4513C57.2127 45.6311 58.2352 43.1624 58.2352 40.5882C58.2444 40.5387 58.2444 40.4878 58.2352 40.4382ZM19.0411 39.7059H3.89994L11.4705 18.5294L19.0411 39.7059ZM40.9588 39.7059L48.5294 18.5294L56.0999 39.7059H40.9588Z" fill="#7765E3"/>
</svg>
