<svg width="60" height="60" viewBox="0 0 60 60" fill="none" xmlns="http://www.w3.org/2000/svg">
<path d="M7.74996 28.25L16.75 36.5L14.25 48C14 49.5 14.5 51 15.75 51.75C16.25 52.25 17 52.5 17.75 52.5C18.25 52.5 18.75 52.5 19.25 52.25C19.25 52.25 19.5 52.25 19.5 52L29.75 46.25L40 52C40 52 40.25 52 40.25 52.25C41.5 52.75 43 52.75 44 52C45.25 51.25 45.75 49.75 45.5 48.25L43 36.75C44 36 45.5 34.5 47 33L51.75 28.75L52 28.5C53 27.5 53.25 26 52.75 24.75C52.25 23.5 51.25 22.5 49.75 22.25H49.5L37.75 21L33 10.25C33 10.25 33 10 32.75 10C32.5 8.25 31.25 7.5 30 7.5C28.75 7.5 27.5 8.25 26.75 9.5C26.75 9.5 26.75 9.75 26.5 9.75L21.75 20.5L9.99996 21.75H9.74996C8.49996 22 7.24996 23 6.74996 24.25C6.49996 25.75 6.74996 27.25 7.74996 28.25Z" fill="#FFBA0C"/>
</svg>
