<svg width="60" height="60" viewBox="0 0 60 60" fill="none" xmlns="http://www.w3.org/2000/svg">
<path d="M30 3.75C15.5039 3.75 3.75 15.5039 3.75 30C3.75 44.4961 15.5039 56.25 30 56.25C44.4961 56.25 56.25 44.4961 56.25 30C56.25 15.5039 44.4961 3.75 30 3.75ZM50.8945 21.6211L43.6875 23.8359C42.9492 22.1953 41.918 20.6953 40.6055 19.3828C39.293 18.0703 37.793 17.0391 36.1523 16.3008L38.3672 9.09375C41.1562 10.207 43.7109 11.8945 45.9023 14.0742C48.0938 16.2773 49.7812 18.832 50.8945 21.6211ZM30 41.25C23.7891 41.25 18.75 36.2109 18.75 30C18.75 23.7891 23.7891 18.75 30 18.75C36.2109 18.75 41.25 23.7891 41.25 30C41.25 36.2109 36.2109 41.25 30 41.25ZM14.0859 14.0859C16.2773 11.8945 18.832 10.2187 21.6211 9.10547L23.8359 16.3125C22.1953 17.0508 20.6953 18.082 19.3828 19.3945C18.0703 20.707 17.0391 22.207 16.3008 23.8477L9.09375 21.6328C10.2188 18.832 11.9062 16.2773 14.0859 14.0859ZM9.10547 38.3789L16.3125 36.1641C17.0508 37.8047 18.082 39.3047 19.3945 40.6172C20.707 41.9297 22.207 42.9609 23.8477 43.6992L21.6328 50.9062C18.8438 49.793 16.2891 48.1055 14.0977 45.9258C11.9062 43.7227 10.2187 41.168 9.10547 38.3789ZM45.9141 45.9141C43.7227 48.1055 41.168 49.7812 38.3789 50.8945L36.1641 43.6875C37.8047 42.9492 39.3047 41.918 40.6172 40.6055C41.9297 39.293 42.9609 37.793 43.6992 36.1523L50.9062 38.3672C49.7812 41.168 48.0938 43.7227 45.9141 45.9141Z" fill="#2D59E9"/>
</svg>
