<svg width="50" height="30" viewBox="0 0 50 30" fill="none" xmlns="http://www.w3.org/2000/svg">
<path d="M49.8001 1.54955C49.5464 0.938854 49.0611 0.453556 48.4504 0.199942C48.15 0.0718765 47.8273 0.00394882 47.5007 0H35.0043C34.3415 0 33.7058 0.263316 33.2371 0.732021C32.7684 1.20073 32.5051 1.83643 32.5051 2.49928C32.5051 3.16212 32.7684 3.79782 33.2371 4.26653C33.7058 4.73523 34.3415 4.99855 35.0043 4.99855H41.4775L27.5065 18.9695L19.2839 10.7219C19.0516 10.4876 18.7751 10.3017 18.4706 10.1748C18.166 10.0479 17.8394 9.98261 17.5094 9.98261C17.1795 9.98261 16.8528 10.0479 16.5483 10.1748C16.2437 10.3017 15.9673 10.4876 15.7349 10.7219L0.739281 25.7175C0.505028 25.9499 0.319096 26.2263 0.192212 26.5309C0.0653267 26.8354 0 27.1621 0 27.492C0 27.822 0.0653267 28.1486 0.192212 28.4532C0.319096 28.7577 0.505028 29.0342 0.739281 29.2665C0.971622 29.5008 1.24804 29.6867 1.5526 29.8136C1.85716 29.9405 2.18383 30.0058 2.51377 30.0058C2.8437 30.0058 3.17037 29.9405 3.47493 29.8136C3.77949 29.6867 4.05591 29.5008 4.28825 29.2665L17.5094 16.0204L25.732 24.268C25.9644 24.5022 26.2408 24.6881 26.5454 24.815C26.8499 24.9419 27.1766 25.0072 27.5065 25.0072C27.8365 25.0072 28.1631 24.9419 28.4677 24.815C28.7722 24.6881 29.0487 24.5022 29.281 24.268L45.0014 8.52253V14.9957C45.0014 15.6585 45.2648 16.2942 45.7335 16.7629C46.2022 17.2316 46.8379 17.4949 47.5007 17.4949C48.1636 17.4949 48.7993 17.2316 49.268 16.7629C49.7367 16.2942 50 15.6585 50 14.9957V2.49928C49.9961 2.17268 49.9281 1.85002 49.8001 1.54955Z" fill="#FFDD2E"/>
</svg>
