<svg width="137" height="22" viewBox="0 0 137 22" fill="none" xmlns="http://www.w3.org/2000/svg">
<g clip-path="url(#clip0_160_368)">
<path d="M32.4371 15.4719L25.3193 2.51682C23.7658 -0.18114 19.94 -0.205446 18.4329 2.63836L10.9671 16.1038C9.57593 18.5831 11.2917 21.6699 14.0972 21.6699H29.0985C31.904 21.6942 34.0139 18.4859 32.4371 15.4719Z" fill="#9F9F9F"/>
<path d="M22.166 16.4928L21.7255 15.6907C21.3081 14.9372 20.4039 13.333 20.4039 13.333L14.3755 2.34671C12.8221 -0.0838842 9.11232 -0.302642 7.55887 2.78422L0.533528 15.5205C-0.927187 18.1942 0.811762 21.6699 3.96506 21.6942H18.8736H25.2265H29.0059C25.1569 21.7186 23.9282 19.6039 22.166 16.4928Z" fill="#9F9F9F"/>
<path d="M22.1659 16.4442L21.7253 15.6421C21.308 14.8886 20.4038 13.2844 20.4038 13.2844L16.5085 6.08984L10.9207 16.1039C9.52954 18.5831 11.2453 21.67 14.0508 21.67H18.8503H25.2033H29.0058C25.1337 21.6457 23.9281 19.5797 22.1659 16.4442Z" fill="#9F9F9F"/>
<path d="M125.105 6.05147C126.148 5.03062 127.98 4.54449 130.647 4.54449H136.884V0.825684H129.511C127.748 0.825684 126.264 1.02014 125.105 1.40903C123.969 1.79793 122.972 2.40557 122.114 3.25628C121.21 4.17991 120.491 5.32228 119.981 6.68341C119.471 8.06884 119.216 9.57582 119.216 11.1557C119.216 12.6627 119.471 14.121 119.981 15.4579C120.491 16.7947 121.21 17.9614 122.114 18.885C122.949 19.7357 123.946 20.3434 125.059 20.7323C126.195 21.1212 127.702 21.3156 129.511 21.3156H136.884V17.6454H130.647C129.232 17.6454 128.258 17.5968 127.702 17.4753C127.122 17.3537 126.589 17.1593 126.148 16.8676C125.268 16.2843 124.595 15.5308 124.155 14.5828C123.737 13.6592 123.529 12.4925 123.529 11.1314C123.529 8.79803 124.062 7.07232 125.105 6.05147Z" fill="#9F9F9F"/>
<path d="M70.8269 21.3643H88.2165V17.767H75.0699V12.6385H86.547V9.23564H75.0699V4.47168H88.2165V0.850098H70.8269V21.3643Z" fill="#9F9F9F"/>
<path d="M92.5521 0.850098L100.691 11.1072L92.5521 21.3643H97.8154L104.238 13.2461V8.99258L97.8154 0.850098H92.5521Z" fill="#9F9F9F"/>
<path d="M112.307 0.850098L105.884 8.99258V13.2461L112.307 21.3643H117.57L109.408 11.1072L117.57 0.850098H112.307Z" fill="#9F9F9F"/>
<path d="M53.7853 10.9614L45.9716 0.850098H41.9373V21.3643H46.1803V7.68007L52.9506 16.1872H54.5967L61.367 7.60717V21.3643H65.61V0.850098H61.6222L53.7853 10.9614Z" fill="#9F9F9F"/>
</g>
<defs>
<clipPath id="clip0_160_368">
<rect width="137" height="22" fill="white"/>
</clipPath>
</defs>
</svg>
