<svg width="137" height="38" viewBox="0 0 137 38" fill="none" xmlns="http://www.w3.org/2000/svg">
<g clip-path="url(#clip0_160_361)">
<path fill-rule="evenodd" clip-rule="evenodd" d="M47.089 23.2546L45.4001 20.312H42.9273V23.2546H41.4727V14.419H45.8525C46.3865 14.4148 46.9113 14.5584 47.3699 14.8342C47.8285 15.1101 48.2032 15.5076 48.4534 15.9834C48.7034 16.4592 48.8192 16.9951 48.7881 17.5327C48.7569 18.0704 48.5802 18.5891 48.277 19.0324C47.9603 19.5025 47.5134 19.8682 46.992 20.0839L48.7942 23.2546H47.089ZM45.8525 15.9188H42.9273V18.8531H45.8525C46.0438 18.8529 46.2328 18.8131 46.4081 18.736C46.5832 18.6589 46.7408 18.5461 46.8708 18.4048C47.0722 18.1985 47.209 17.9371 47.2641 17.6531C47.3192 17.369 47.2904 17.0748 47.181 16.8072C47.0715 16.5396 46.8866 16.3103 46.6489 16.1479C46.4113 15.9857 46.1315 15.8975 45.8446 15.8944L45.8525 15.9188ZM61.4251 14.419L57.037 23.2546H58.6695L61.4251 17.7201L64.1728 23.2546H65.8051L61.4251 14.419ZM79.9147 14.419H78.0561L75.5589 17.6793L73.07 14.419H71.2033L74.864 19.1302V23.2546H76.3186V19.0569L79.9147 14.419ZM87.3655 14.419H90.2828C91.4418 14.4276 92.5509 14.8958 93.3705 15.7224C94.1901 16.549 94.6543 17.6678 94.6628 18.8368C94.6564 20.0065 94.1929 21.1264 93.3728 21.9535C92.5529 22.7807 91.4425 23.2482 90.2828 23.2546H87.3655V14.419ZM90.2828 21.7548C91.0558 21.7527 91.7966 21.4419 92.3433 20.8906C92.8899 20.3392 93.1979 19.5921 93.2001 18.8123C93.1916 18.0346 92.8816 17.291 92.3363 16.7411C91.791 16.1911 91.0539 15.8784 90.2828 15.8698H88.812V21.7548H90.2828ZM104.385 14.419H102.93V23.2546H104.385V14.419ZM119.949 19.5622C119.957 20.0482 119.866 20.5307 119.681 20.9796C119.496 21.4283 119.222 21.8339 118.874 22.1705C118.363 22.6854 117.714 23.0359 117.006 23.1777C116.297 23.3193 115.564 23.2459 114.897 22.9665C114.231 22.6871 113.662 22.2145 113.262 21.6084C112.862 21.0024 112.65 20.2902 112.651 19.5622V14.419H114.106V19.5622C114.106 20.1481 114.337 20.7099 114.748 21.1242C115.158 21.5384 115.715 21.7711 116.296 21.7711C116.877 21.7711 117.434 21.5384 117.845 21.1242C118.255 20.7099 118.486 20.1481 118.486 19.5622V14.419H119.949V19.5622ZM129.671 23.2546V17.9728L132.603 20.9234L135.522 17.9728V23.2546H137V14.419L132.603 18.8368L128.224 14.419V23.2546H129.671Z" fill="#9F9F9F"/>
<path d="M30.668 14.1418V27.281L16.1784 35.7171L1.68089 27.281V10.4005L16.1784 1.95621L27.3144 8.44431L28.9953 7.46621L16.1784 0L0 9.42241V28.2591L16.1784 37.6815L32.357 28.2591V13.1637L30.668 14.1418Z" fill="#9F9F9F"/>
<path d="M12.1218 27.2892H9.69739V19.0894H17.7786C18.5432 19.0809 19.2736 18.769 19.812 18.2214C20.3504 17.6738 20.6534 16.9344 20.6555 16.1632C20.6598 15.7819 20.5869 15.4036 20.441 15.0518C20.2949 14.6999 20.0793 14.382 19.8069 14.1174C19.5434 13.8442 19.2279 13.6276 18.8794 13.4806C18.5308 13.3334 18.1564 13.2589 17.7786 13.2615H9.69739V10.7673H17.7866C19.2028 10.7759 20.5587 11.3471 21.5601 12.3572C22.5615 13.3673 23.1279 14.7348 23.1363 16.1632C23.145 17.2566 22.8145 18.3254 22.1909 19.2197C21.617 20.0755 20.8082 20.744 19.8635 21.1433C18.928 21.4426 17.9518 21.5912 16.9704 21.5836H12.1218V27.2892Z" fill="#9F9F9F"/>
<path d="M23.0798 27.0853H20.2514L18.0695 23.2462C18.9327 23.1929 19.7842 23.0173 20.5989 22.7246L23.0798 27.0853Z" fill="#9F9F9F"/>
<path d="M28.9791 11.4112L30.6518 12.3486L32.3247 11.4112V9.4305L30.6518 8.45239L28.9791 9.4305V11.4112Z" fill="#9F9F9F"/>
</g>
<defs>
<clipPath id="clip0_160_361">
<rect width="137" height="38" fill="white"/>
</clipPath>
</defs>
</svg>
