<svg width="104" height="30" viewBox="0 0 104 30" fill="none" xmlns="http://www.w3.org/2000/svg">
<path fill-rule="evenodd" clip-rule="evenodd" d="M56.0815 9.56152H59.7805V22.3996H56.0815V9.56152Z" fill="#9F9F9F"/>
<path d="M53.698 14.7996C53.2991 14.0705 52.7289 13.4473 52.0411 12.9862C52.8914 12.0253 53.3929 10.7491 53.3316 9.35202C53.2066 6.58151 50.8306 4.44287 48.0495 4.44287H40.3388V22.3982H49.1612C52.0111 22.3982 54.322 20.0963 54.322 17.2535C54.322 16.3649 54.0969 15.5299 53.698 14.7996ZM48.5872 19.351H44.0366V14.9441H48.5609C49.7489 14.9441 50.7543 15.8851 50.7543 17.1488C50.7543 18.3964 49.7514 19.351 48.5872 19.351ZM47.6205 11.897H44.0366V7.49131H47.593C48.7823 7.49131 49.7877 8.43101 49.7877 9.69475C49.7852 10.941 48.7823 11.897 47.6205 11.897Z" fill="#9F9F9F"/>
<path d="M103.538 4.97485H99.2828L95.9589 10.2853L92.6363 4.97485H88.3796L93.8318 13.6865L88.3796 22.3993H92.6363L95.9589 17.0888L99.2828 22.3993H103.538L98.0873 13.6865L103.538 4.97485Z" fill="#9F9F9F"/>
<path d="M72.9721 15.2582V22.3982H69.2743V14.6188C69.2743 13.4872 68.3377 12.5736 67.1922 12.6061C66.0893 12.6397 65.2377 13.6006 65.2377 14.7023V22.3957H61.5387V9.55762H65.2377V10.1695C66.0705 9.77696 66.9984 9.55762 67.98 9.55762C68.4715 9.55762 68.9504 9.61245 69.4106 9.71714C71.4602 10.182 72.9083 12.0066 72.9608 14.1004C72.9683 14.4767 72.9721 14.8656 72.9721 15.2582Z" fill="#9F9F9F"/>
<path fill-rule="evenodd" clip-rule="evenodd" d="M56.0815 4.44287H59.7805V8.12941H56.0815V4.44287Z" fill="#9F9F9F"/>
<path d="M87.3892 9.56157H81.0104C80.9891 9.56157 80.9691 9.55908 80.9466 9.55908C77.3902 9.55908 74.5065 12.4343 74.5065 15.98C74.5065 19.5082 77.3614 22.3697 80.8916 22.3959C80.9079 22.3996 80.9266 22.3996 80.9466 22.3996C82.3197 22.3996 83.6902 22.801 83.6902 23.9912C83.6902 25.1988 82.4485 26.2245 80.9466 26.2245C79.4322 26.2245 78.2043 25.0007 78.2043 23.4914H74.5052C74.5052 27.0359 77.3902 29.9111 80.9454 29.9111C84.5043 29.9111 87.3855 27.0359 87.3855 23.4914C87.3855 23.4914 87.4568 21.5734 85.8248 20.17C86.8002 19.0471 87.3867 17.5852 87.3867 15.98C87.3867 14.7424 87.0366 13.5883 86.4276 12.6088H87.3892V9.56157ZM80.9466 18.7131C79.4322 18.7131 78.2043 17.4892 78.2043 15.98C78.2043 14.4707 79.4322 13.2469 80.9466 13.2469C82.461 13.2469 83.6902 14.4707 83.6902 15.98C83.6902 17.4892 82.461 18.7131 80.9466 18.7131Z" fill="#9F9F9F"/>
<path d="M34.2702 0C30.3136 0 26.402 0.997035 22.9556 2.88517C21.1098 3.89592 19.4054 5.14969 17.891 6.61408C17.5346 6.95681 17.1857 7.31575 16.8518 7.68216C15.7351 8.90851 14.7447 10.2545 13.9131 11.6815C13.618 12.1937 13.2904 12.6935 12.9403 13.1708C12.894 13.2332 12.8502 13.2955 12.8002 13.3565C9.7377 17.3958 5.07206 19.7114 0 19.7114V27.1742C3.95661 27.1742 7.86819 26.1772 11.3146 24.2903C13.1566 23.282 14.861 22.0258 16.3791 20.5614C16.7355 20.2174 17.0844 19.8584 17.4196 19.4933C18.5375 18.2657 19.5242 16.9222 20.3558 15.4939L20.4108 15.4017C20.6921 14.9206 21.0023 14.452 21.3287 14.0059C21.3749 13.9448 21.4212 13.8812 21.47 13.8164C24.5312 9.77842 29.1981 7.46156 34.2702 7.46156V0Z" fill="#9F9F9F"/>
<path d="M34.2702 19.714C29.1981 19.714 24.5312 17.3972 21.4675 13.3579C21.4224 13.2969 21.3749 13.2358 21.3287 13.1698C20.9798 12.6962 20.6521 12.1952 20.357 11.6817C19.5254 10.2559 18.5363 8.91117 17.4183 7.68357C17.0844 7.31965 16.7355 6.96072 16.3791 6.61674C14.8648 5.15235 13.1616 3.89733 11.3146 2.88783C7.86819 1.00094 3.95661 0.00390625 0 0.00390625V7.46672C5.07206 7.46672 9.73895 9.78233 12.8027 13.8216C12.8502 13.8826 12.8952 13.9462 12.9415 14.0073C13.2704 14.4547 13.5805 14.9245 13.8581 15.4006L13.9169 15.4978C14.7472 16.9223 15.7351 18.2659 16.8518 19.4947C17.1845 19.8586 17.5346 20.2175 17.891 20.5615C19.4079 22.0259 21.1123 23.2822 22.9556 24.2904C26.402 26.1773 30.3136 27.1744 34.2702 27.1744V19.714Z" fill="#9F9F9F"/>
</svg>
