<svg width="144" height="27" viewBox="0 0 144 27" fill="none" xmlns="http://www.w3.org/2000/svg">
<path d="M91.4759 7.00317L91.0478 9.6188H80.0873C79.3166 9.6188 78.6316 10.2094 78.4604 10.9688L78.2035 12.3188H87.8795L87.4514 14.9344H77.7753L76.5765 21.6844H73.922L75.8915 10.9688C76.3196 8.69067 78.2891 7.08755 80.6011 7.00317H91.4759ZM89.849 21.7688L92.5035 7.08755H95.158L92.5035 21.7688H89.849ZM111.085 7.08755L108.43 21.7688L106.118 19.7438L97.8125 12.4875L96.1855 21.7688H93.531L96.1855 7.08755L98.4975 9.11255L106.803 16.3688L108.516 7.00317L111.085 7.08755ZM114.082 10.9688L113.825 12.3188H123.415L122.987 14.9344H113.397L112.883 17.7188C112.712 18.3094 113.14 18.9 113.739 19.0688H124.871L124.443 21.6844H113.568C111.77 21.7688 110.229 20.3344 110.229 18.5625C110.229 18.3094 110.229 17.9719 110.314 17.7188L111.513 10.9688C111.941 8.69067 113.911 7.08755 116.223 7.00317H127.097L126.669 9.6188H115.794C114.938 9.70317 114.253 10.2094 114.082 10.9688ZM142.511 7.08755L135.403 14.4282L139.856 21.7688H136.517L133.348 16.6219L128.382 21.7688H125.042L132.064 14.4282L127.611 7.08755H130.951L134.119 12.3188L139.171 7.08755H142.511Z" fill="#9F9F9F"/>
<path d="M44.4657 7.0874C48.5759 7.0874 51.316 10.378 50.5454 14.428C50.2029 16.1999 49.261 17.8874 47.9765 19.153C47.8053 19.3218 47.634 19.4062 47.4627 19.5749C45.9214 20.9249 43.952 21.6843 41.8969 21.7687H34.5328L37.1017 7.0874H44.4657ZM37.5298 19.153H42.325C45.0651 19.0687 47.3771 17.128 47.8909 14.428C48.4047 12.3187 47.0346 10.2937 44.9795 9.7874C44.637 9.70303 44.2945 9.70303 43.952 9.70303H39.1568L37.5298 19.153ZM50.2885 21.7687L52.8574 7.0874H55.5118L52.943 21.7687H50.2885ZM57.9951 14.428C57.4813 16.5374 58.8514 18.5624 60.9065 19.0687C61.249 19.153 61.5915 19.153 61.934 19.153H66.7292L67.243 16.3687H62.4478L62.8759 13.753H70.24L68.7843 21.853H61.4202C57.31 21.853 54.5699 18.5624 55.3406 14.5124C56.1969 10.378 59.7933 7.34053 64.0747 7.17178H71.4388L71.0107 9.7874H63.6466C60.8208 9.7874 58.5089 11.728 57.9951 14.428Z" fill="#9F9F9F"/>
<path d="M70.24 21.7688L72.8089 7.00317H75.4633L72.8945 21.7688H70.24Z" fill="#9F9F9F"/>
<path d="M29.8232 10.6313C29.8232 11.8125 29.652 12.9938 29.4807 14.175C27.9394 22.275 23.2298 26.3251 15.4376 26.3251H10.4711V26.2407L11.67 20.6719H15.0951C19.2909 20.6719 21.8598 18.3094 22.7161 13.5C22.8017 13.1625 22.8017 12.9094 22.8873 12.5719L29.652 8.69067C29.7376 9.2813 29.8232 9.9563 29.8232 10.6313ZM27.34 3.62817L21.2604 7.08755C20.2328 6.49692 19.034 6.15942 17.8352 6.2438H7.98792V6.07505L9.18672 0.675049H19.3765C20.661 0.675049 21.9454 0.843799 23.2298 1.1813C24.6855 1.60317 25.9699 2.27817 27.0831 3.29067C27.1688 3.37505 27.2544 3.45942 27.34 3.62817Z" fill="#9F9F9F"/>
<path d="M17.664 11.0532L16.8077 16.622H12.5262L10.4711 26.1563V26.2407H1.22324L4.73401 21.6001L7.04599 11.0532H17.664Z" fill="#9F9F9F"/>
</svg>
