<svg width="155" height="44" viewBox="0 0 155 44" fill="none" xmlns="http://www.w3.org/2000/svg">
<path d="M79.4391 28.3009C79.4605 27.297 80.2935 26.5067 81.2974 26.528C82.3013 26.5494 83.0916 27.3824 83.0702 28.3863C83.0488 29.3688 82.2372 30.1591 81.2547 30.1591C80.2508 30.1378 79.4391 29.3047 79.4391 28.3009ZM101.76 13.8407V17.5144H96.2275C94.3692 17.5144 93.0663 17.9416 92.3615 18.796C91.678 19.6077 91.3362 20.8251 91.3362 22.4698C91.3362 24.3067 91.8916 25.6523 93.0236 26.5067C93.4721 26.8271 93.9848 27.062 94.5187 27.1902C95.2663 27.3397 96.0139 27.4038 96.7828 27.3824H101.76V31.0562H95.4372C94.0702 31.0989 92.7032 30.928 91.4003 30.5222C90.3751 30.1591 89.478 29.5183 88.7731 28.6853C87.278 26.9339 86.509 24.6912 86.5945 22.3844C86.5945 19.3086 87.4488 17.0232 89.1789 15.528C89.8838 14.9086 90.7382 14.4601 91.6566 14.2251C92.8954 13.9475 94.1556 13.8193 95.4158 13.8407H101.76ZM113.037 13.6057C116.134 13.6057 118.441 14.5242 119.894 16.3611C121.303 18.1552 122.008 20.3979 121.923 22.6834C122.029 25.097 121.09 27.4465 119.36 29.1125C117.8 30.5649 115.664 31.3125 112.952 31.3125C110.154 31.3125 107.954 30.4795 106.352 28.8348C104.878 27.3397 104.152 25.1824 104.152 22.3203C104.088 20.1203 104.835 17.9843 106.266 16.3183C107.847 14.5242 110.09 13.6271 113.037 13.6057ZM113.08 17.1941C110.303 17.1941 108.915 18.9669 108.915 22.4912C108.851 23.6232 109.086 24.7552 109.598 25.7805C110.325 27.0407 111.67 27.7669 113.123 27.6814C115.857 27.6814 117.224 25.93 117.224 22.4057C117.224 18.9882 115.835 17.2581 113.08 17.1941ZM125.361 13.8407H142.342C143.517 13.7979 144.713 13.9261 145.866 14.1824C146.635 14.396 147.34 14.8232 147.895 15.4212C148.963 16.7242 149.519 18.3902 149.412 20.0989V31.0562H144.798V20.8465C144.82 20.2698 144.777 19.6931 144.692 19.1164C144.627 18.7746 144.457 18.4756 144.2 18.2407C143.602 17.728 142.812 17.4504 142.022 17.5144H139.565V31.0562H134.952V17.5144H129.975V31.0562H125.361V13.8407ZM53.0605 22.4484L46.3964 13.6271H51.6935L55.6877 19.5009L60.0022 13.6271H65.2352L58.3576 22.4484L65.2352 31.4407H60.1518L55.6877 25.3319L51.309 31.4407H46.1615L53.0605 22.4484ZM71.9848 16.8096H64.1886L66.9013 13.6271H83.0488V16.8096H76.3207V31.462H72.0061L71.9848 16.8096Z" fill="#9F9F9F"/>
<path d="M79.4391 28.3011C79.4605 27.2972 80.2935 26.5069 81.2974 26.5283C82.3013 26.5496 83.0916 27.3826 83.0702 28.3865C83.0488 29.369 82.2372 30.1593 81.2547 30.1593C80.2508 30.138 79.4391 29.305 79.4391 28.3011Z" fill="#9F9F9F"/>
<path d="M22.1751 38.8098C12.8838 38.8739 5.30127 31.3981 5.23719 22.1282C5.17312 12.837 12.6488 5.25443 21.9187 5.19035C31.21 5.12627 38.7925 12.5806 38.8566 21.8719V22.0001C38.878 31.2486 31.4236 38.7671 22.1751 38.8098ZM22.1751 7.68938C14.2721 7.64666 7.82166 13.9904 7.77894 21.9146C7.73622 29.8175 14.0799 36.268 22.0042 36.3107C29.9071 36.3535 36.3576 30.0098 36.4003 22.1069V22.0001C36.4003 14.1185 30.0566 7.7321 22.1751 7.68938ZM22.7731 19.6933L25.9984 15.7418C26.3401 15.336 26.276 14.7166 25.8702 14.3748C25.6993 14.2467 25.4857 14.1612 25.2721 14.1612C24.9945 14.1612 24.7168 14.2894 24.5459 14.503L21.5556 18.1554L18.544 14.503C18.3731 14.2894 18.0954 14.1612 17.8178 14.1612H15.3401C14.8061 14.1612 14.3789 14.6098 14.3789 15.1437C14.3789 15.3573 14.4644 15.5709 14.5925 15.7418L19.0566 21.1884L13.3751 28.1515C13.0333 28.5573 13.0547 29.1554 13.4605 29.4972C13.8663 29.8389 14.4644 29.8175 14.8061 29.4117L14.8275 29.3904L20.2954 22.7049L22.7731 19.6933ZM30.2488 14.1612C29.9712 14.1612 29.6935 14.2894 29.5226 14.503L24.076 21.1884L21.5984 24.2214L18.3731 28.1729C18.0314 28.5787 18.0741 29.1768 18.4799 29.5185C18.8857 29.8603 19.4838 29.8175 19.8255 29.4117L22.8158 25.7593L25.8061 29.4117C25.977 29.6253 26.2547 29.7535 26.5323 29.7535H29.01C29.544 29.7535 29.9712 29.3263 29.9712 28.7923C29.9712 28.5573 29.8857 28.3438 29.7362 28.1729L25.2935 22.7263L30.9751 15.7632C31.3168 15.336 31.2314 14.7379 30.8255 14.3962C30.676 14.2467 30.4624 14.1826 30.2488 14.1612Z" fill="#9F9F9F"/>
</svg>
