<svg width="173" height="48" viewBox="0 0 173 48" fill="none" xmlns="http://www.w3.org/2000/svg">
<g opacity="0.8">
<path opacity="0.8" d="M40.2436 8.07045L40.4899 9.5181C40.4899 9.60082 40.7361 11.1726 40.7361 13.6129C40.7361 15.9291 40.531 19.114 39.669 22.5883C38.8482 25.8973 37.3706 29.868 34.7026 33.756C32.0347 37.644 28.1354 41.4492 22.5123 44.5099L21.8145 44.8821L21.1168 44.5099C15.4526 41.4492 11.5943 37.6025 8.92647 33.756C6.25856 29.868 4.78094 25.9386 3.96005 22.5883C3.09811 19.114 2.89288 15.9291 2.89288 13.6129C2.89288 11.1726 3.13916 9.60082 3.13916 9.5181L3.38543 8.07045C3.46751 7.57411 3.13916 7.11913 2.64661 7.03641C2.15408 6.95369 1.70258 7.28458 1.6205 7.78091L1.37423 9.22857C1.33318 9.39402 1.08691 11.0485 1.08691 13.6129C1.08691 16.0532 1.33318 19.3622 2.23616 23.0433C3.01603 26.559 4.57572 30.7365 7.40782 34.8314C10.2399 38.9261 14.3444 42.9796 20.2549 46.1644L21.3631 46.7848C21.6503 46.9503 21.9377 46.9503 22.225 46.7848L23.3332 46.1644C29.2436 42.9796 33.3481 38.9261 36.1802 34.8314C39.0123 30.7365 40.572 26.559 41.434 23.0847C42.337 19.4035 42.5833 16.1359 42.5833 13.6542C42.5833 11.0898 42.337 9.43538 42.2959 9.26993L42.0496 7.82228C41.9676 7.32594 41.516 6.99504 41.0235 7.07777C40.4899 7.11913 40.1616 7.57411 40.2436 8.07045Z" fill="#171921" stroke="#171921" stroke-width="0.529384" stroke-miterlimit="10"/>
<path opacity="0.8" d="M8.31077 7.07795L21.8145 2.94181L35.6055 7.20205C36.0981 7.36749 36.5906 7.07795 36.7548 6.58162C36.919 6.08528 36.6317 5.58894 36.1392 5.42349L22.0607 1.12191C21.8966 1.08054 21.6913 1.08054 21.5272 1.12191L7.77718 5.34078C7.28464 5.50622 7.03837 6.00256 7.16151 6.4989C7.32569 6.95387 7.81822 7.2434 8.31077 7.07795Z" fill="#171921" stroke="#171921" stroke-width="0.529384" stroke-miterlimit="10"/>
<path opacity="0.8" d="M1.66158 8.36116L20.9937 46.3723C21.1578 46.6619 21.4452 46.8687 21.7735 46.8687C22.1019 46.8687 22.4302 46.7032 22.5944 46.3723L34.3743 24.1612V24.1199L41.9676 8.3198C42.1728 7.86483 42.0086 7.32713 41.5571 7.12032C41.1057 6.91351 40.5721 7.07896 40.3669 7.53393L32.7736 23.334L21.8146 44.0148L3.26232 7.53393C3.01606 7.07896 2.48247 6.91351 2.03098 7.12032C1.62053 7.36849 1.41531 7.90618 1.66158 8.36116Z" fill="#171921" stroke="#171921" stroke-width="0.529384" stroke-miterlimit="10"/>
<path opacity="0.8" d="M10.8966 25.2766H32.4042C32.8967 25.2766 33.3071 24.863 33.3071 24.3667C33.3071 23.8703 32.8967 23.4567 32.4042 23.4567H10.8966C10.4041 23.4567 9.99365 23.8703 9.99365 24.3667C9.99365 24.863 10.4041 25.2766 10.8966 25.2766Z" fill="#171921" stroke="#171921" stroke-width="0.529384" stroke-miterlimit="10"/>
<path opacity="0.8" d="M66.0801 10.9808C66.0801 12.044 65.8889 12.9628 65.5064 13.7371C65.124 14.5116 64.5993 15.1087 63.9324 15.5287C63.2656 15.9487 62.5039 16.1588 61.6474 16.1588C60.791 16.1588 60.0293 15.9487 59.3625 15.5287C58.6956 15.1087 58.171 14.5116 57.7885 13.7371C57.406 12.9628 57.2148 12.044 57.2148 10.9808C57.2148 9.91773 57.406 8.99896 57.7885 8.22458C58.171 7.45019 58.6956 6.85299 59.3625 6.43299C60.0293 6.01298 60.791 5.80298 61.6474 5.80298C62.5039 5.80298 63.2656 6.01298 63.9324 6.43299C64.5993 6.85299 65.124 7.45019 65.5064 8.22458C65.8889 8.99896 66.0801 9.91773 66.0801 10.9808ZM64.9033 10.9808C64.9033 10.108 64.7578 9.3714 64.4669 8.77092C64.1792 8.17044 63.7886 7.71597 63.295 7.40753C62.8047 7.09909 62.2555 6.94487 61.6474 6.94487C61.0395 6.94487 60.4886 7.09909 59.995 7.40753C59.5047 7.71597 59.114 8.17044 58.8231 8.77092C58.5354 9.3714 58.3916 10.108 58.3916 10.9808C58.3916 11.8537 58.5354 12.5904 58.8231 13.1908C59.114 13.7913 59.5047 14.2458 59.995 14.5542C60.4886 14.8626 61.0395 15.0169 61.6474 15.0169C62.2555 15.0169 62.8047 14.8626 63.295 14.5542C63.7886 14.2458 64.1792 13.7913 64.4669 13.1908C64.7578 12.5904 64.9033 11.8537 64.9033 10.9808ZM77.7449 5.94079V16.0209H76.568L71.0959 8.10646H70.9978V16.0209H69.7818V5.94079H70.9586L76.4504 13.875H76.5485V5.94079H77.7449ZM87.3755 16.0209V5.94079H90.8864C91.586 5.94079 92.1629 6.0622 92.6173 6.30502C93.0716 6.54455 93.41 6.86776 93.6323 7.27464C93.8545 7.67824 93.9657 8.12613 93.9657 8.61833C93.9657 9.05147 93.8889 9.40913 93.7352 9.69132C93.5849 9.97351 93.3855 10.1966 93.137 10.3607C92.8918 10.5248 92.6255 10.6462 92.3378 10.7249V10.8234C92.645 10.8431 92.954 10.9514 93.2645 11.1482C93.5751 11.3451 93.835 11.6273 94.0442 11.9948C94.2534 12.3624 94.3579 12.8118 94.3579 13.3434C94.3579 13.8487 94.2436 14.3032 94.0147 14.7068C93.786 15.1104 93.4247 15.4303 92.9311 15.6666C92.4375 15.9028 91.7952 16.0209 91.0041 16.0209H87.3755ZM88.5916 14.9381H91.0041C91.7984 14.9381 92.3623 14.784 92.6957 14.4754C93.0325 14.1638 93.2008 13.7864 93.2008 13.3434C93.2008 13.0022 93.1141 12.6871 92.9409 12.3984C92.7676 12.1063 92.5208 11.8734 92.2004 11.6995C91.8801 11.5222 91.501 11.4337 91.0629 11.4337H88.5916V14.9381ZM88.5916 10.3705H90.8472C91.2133 10.3705 91.5435 10.2984 91.8377 10.154C92.1351 10.0096 92.3705 9.80617 92.5438 9.54366C92.7202 9.28116 92.8085 8.97271 92.8085 8.61833C92.8085 8.17536 92.6548 7.79965 92.3476 7.4912C92.0404 7.17948 91.5532 7.02362 90.8864 7.02362H88.5916V10.3705ZM106.486 10.9808C106.486 12.044 106.295 12.9628 105.912 13.7371C105.53 14.5116 105.005 15.1087 104.338 15.5287C103.672 15.9487 102.91 16.1588 102.053 16.1588C101.197 16.1588 100.435 15.9487 99.7684 15.5287C99.1016 15.1087 98.577 14.5116 98.1945 13.7371C97.812 12.9628 97.6208 12.044 97.6208 10.9808C97.6208 9.91773 97.812 8.99896 98.1945 8.22458C98.577 7.45019 99.1016 6.85299 99.7684 6.43299C100.435 6.01298 101.197 5.80298 102.053 5.80298C102.91 5.80298 103.672 6.01298 104.338 6.43299C105.005 6.85299 105.53 7.45019 105.912 8.22458C106.295 8.99896 106.486 9.91773 106.486 10.9808ZM105.309 10.9808C105.309 10.108 105.164 9.3714 104.873 8.77092C104.585 8.17044 104.195 7.71597 103.701 7.40753C103.211 7.09909 102.661 6.94487 102.053 6.94487C101.445 6.94487 100.895 7.09909 100.401 7.40753C99.9107 7.71597 99.52 8.17044 99.229 8.77092C98.9415 9.3714 98.7976 10.108 98.7976 10.9808C98.7976 11.8537 98.9415 12.5904 99.229 13.1908C99.52 13.7913 99.9107 14.2458 100.401 14.5542C100.895 14.8626 101.445 15.0169 102.053 15.0169C102.661 15.0169 103.211 14.8626 103.701 14.5542C104.195 14.2458 104.585 13.7913 104.873 13.1908C105.164 12.5904 105.309 11.8537 105.309 10.9808ZM110.128 16.0209H108.853L112.541 5.94079H113.796L117.482 16.0209H116.207L113.207 7.53551H113.129L110.128 16.0209ZM110.599 12.0834H115.737V13.1662H110.599V12.0834ZM120.704 16.0209V5.94079H124.098C124.881 5.94079 125.526 6.07532 126.029 6.34439C126.532 6.61018 126.905 6.97604 127.147 7.44198C127.388 7.90793 127.51 8.43786 127.51 9.03177C127.51 9.6257 127.388 10.1523 127.147 10.6117C126.905 11.0712 126.534 11.432 126.034 11.6946C125.533 11.9538 124.894 12.0834 124.117 12.0834H121.371V10.9808H124.077C124.614 10.9808 125.045 10.9021 125.372 10.7446C125.702 10.5871 125.941 10.364 126.087 10.0752C126.239 9.78319 126.314 9.43538 126.314 9.03177C126.314 8.62818 126.239 8.27544 126.087 7.97356C125.938 7.67167 125.697 7.43871 125.367 7.27464C125.037 7.10729 124.601 7.02362 124.057 7.02362H121.92V16.0209H120.704ZM125.431 11.4928L127.902 16.0209H126.49L124.057 11.4928H125.431ZM134.292 16.0209H131.193V5.94079H134.43C135.403 5.94079 136.237 6.14259 136.93 6.54619C137.623 6.94651 138.154 7.52238 138.524 8.2738C138.893 9.02193 139.078 9.91773 139.078 10.9612C139.078 12.0112 138.891 12.9152 138.518 13.6732C138.147 14.4279 137.603 15.0087 136.891 15.4156C136.178 15.8191 135.312 16.0209 134.292 16.0209ZM132.409 14.9381H134.213C135.044 14.9381 135.732 14.7773 136.278 14.4558C136.824 14.1342 137.23 13.6765 137.499 13.0826C137.767 12.4887 137.901 11.7816 137.901 10.9612C137.901 10.1474 137.768 9.44687 137.504 8.85951C137.239 8.26888 136.843 7.81605 136.317 7.50104C135.79 7.18276 135.135 7.02362 134.35 7.02362H132.409V14.9381Z" fill="#171921" stroke="#171921" stroke-width="0.265807" stroke-miterlimit="10"/>
<path d="M150.358 14.3999C152.158 14.3999 153.618 12.9347 153.618 11.1272C153.618 9.31974 152.158 7.85449 150.358 7.85449C148.557 7.85449 147.097 9.31974 147.097 11.1272C147.097 12.9347 148.557 14.3999 150.358 14.3999Z" fill="#40B884"/>
<path d="M150.358 14.3999C152.158 14.3999 153.618 12.9347 153.618 11.1272C153.618 9.31974 152.158 7.85449 150.358 7.85449C148.557 7.85449 147.097 9.31974 147.097 11.1272C147.097 12.9347 148.557 14.3999 150.358 14.3999Z" fill="#40B884"/>
<path opacity="0.8" d="M70.4394 26.7251H58.7267C58.5207 26.7251 58.349 26.7943 58.1771 26.9673C58.0398 27.1059 57.9367 27.3135 57.9367 27.5212V36.9705C57.9367 37.1783 58.0054 37.3513 58.1771 37.5244C58.3146 37.6628 58.5207 37.7667 58.7267 37.7667H70.4394V39.3589H58.7267C58.0741 39.3589 57.5245 39.1166 57.0781 38.6666C56.6315 38.2167 56.3911 37.6628 56.3911 37.0052V27.4866C56.3911 26.8289 56.6315 26.2752 57.0781 25.8252C57.5245 25.3752 58.0741 25.1329 58.7267 25.1329H70.4394V26.7251Z" fill="#171921" stroke="#171921" stroke-width="0.265807" stroke-miterlimit="10"/>
<path opacity="0.8" d="M92.4224 25.1329V26.7251H81.1563V31.4324H90.2241V33.0593H81.1563V37.7667H92.4224V39.3589H79.5762V25.1676H92.4224V25.1329Z" fill="#171921" stroke="#171921" stroke-width="0.265807" stroke-miterlimit="10"/>
<path opacity="0.8" d="M115.641 27.4866V31.6401C115.641 32.2979 115.401 32.8516 114.954 33.3016C114.508 33.7516 113.959 33.9939 113.306 33.9939H111.142L115.573 39.2897H113.477L109.047 34.0285H103.894C103.791 34.0285 103.517 33.9939 103.139 33.9592V39.3243H101.559V25.1329H113.306C113.959 25.1329 114.508 25.3752 114.954 25.8252C115.401 26.2752 115.641 26.8289 115.641 27.4866ZM103.894 32.4016H113.271C113.477 32.4016 113.649 32.3324 113.787 32.194C113.924 32.0556 113.993 31.8824 113.993 31.6747V27.5212C113.993 27.3135 113.924 27.1405 113.787 26.9673C113.649 26.8289 113.477 26.7251 113.271 26.7251H103.894C103.688 26.7251 103.517 26.7943 103.345 26.9673C103.208 27.1059 103.104 27.3135 103.104 27.5212V31.6747C103.104 31.8824 103.173 32.0556 103.345 32.194C103.482 32.3324 103.688 32.4016 103.894 32.4016Z" fill="#171921" stroke="#171921" stroke-width="0.265807" stroke-miterlimit="10"/>
<path opacity="0.8" d="M124.057 25.1329H138.14V26.7251H131.888V39.3243H130.309V26.7251H124.057V25.1329Z" fill="#171921" stroke="#171921" stroke-width="0.265807" stroke-miterlimit="10"/>
<path opacity="0.8" d="M146.658 39.3243V25.1329H148.238V39.3243H146.658Z" fill="#171921" stroke="#171921" stroke-width="0.265807" stroke-miterlimit="10"/>
<path opacity="0.8" d="M169.396 25.1329H171.423L165.549 32.2286L171.457 39.3243H169.396L164.141 33.0247H159.608V39.3243H157.993V25.1329H159.608V31.4324H164.141L169.396 25.1329Z" fill="#171921" stroke="#171921" stroke-width="0.265807" stroke-miterlimit="10"/>
</g>
</svg>
