<svg width="49" height="31" viewBox="0 0 49 31" fill="none" xmlns="http://www.w3.org/2000/svg">
<path d="M42.3148 14.3938C42.4055 13.8528 42.4607 13.3064 42.4799 12.7581C42.4877 9.95182 41.5631 7.22241 39.8516 4.99849C38.14 2.77456 35.7382 1.18207 33.0235 0.471083C30.3087 -0.239904 27.4347 -0.0291211 24.8527 1.07033C22.2707 2.16979 20.127 4.09564 18.7582 6.54549C17.9409 6.23296 17.0774 6.05843 16.2029 6.02905C15.1446 6.0288 14.0966 6.23703 13.1188 6.64185C12.141 7.04667 11.2525 7.64015 10.504 8.38839C9.75563 9.13664 9.16193 10.025 8.75688 11.0027C8.35183 11.9804 8.14335 13.0284 8.14335 14.0867C8.14335 14.1327 8.16831 14.1711 8.17023 14.2153C6.11311 14.3648 4.19473 15.3084 2.82056 16.8465C1.44639 18.3846 0.724112 20.3967 0.806378 22.4576C0.888645 24.5185 1.76901 26.4667 3.26141 27.8903C4.75381 29.314 6.74129 30.1016 8.80378 30.0867H40.8C42.9218 30.0867 44.9566 29.2439 46.4569 27.7436C47.9572 26.2433 48.8 24.2084 48.8 22.0867C48.7837 20.25 48.127 18.4765 46.9431 17.0721C45.7592 15.6678 44.1223 14.7205 42.3148 14.3938Z" fill="#2752E7"/>
</svg>
