<svg width="42" height="36" viewBox="0 0 42 36" fill="none" xmlns="http://www.w3.org/2000/svg">
<path d="M9.22108 17.7912H2.45542C1.20252 17.7912 0.200195 18.7935 0.200195 20.0464V33.7448C0.200195 34.9977 1.20252 36 2.45542 36H9.22108C10.474 36 11.4763 34.9977 11.4763 33.7448V20.0464C11.4763 18.7935 10.474 17.7912 9.22108 17.7912ZM24.5065 12.529H17.7408C16.4879 12.529 15.4856 13.5313 15.4856 14.7842V33.7448C15.4856 34.9977 16.4879 36 17.7408 36H24.5065C25.7594 36 26.7617 34.9977 26.7617 33.7448V14.7842C26.6782 13.5313 25.6758 12.529 24.5065 12.529ZM39.7083 0H32.9427C31.6898 0 30.6874 1.00232 30.6874 2.25522V33.7448C30.6874 34.9977 31.6898 36 32.9427 36H39.7083C40.9612 36 41.9635 34.9977 41.9635 33.7448V2.17169C41.9635 1.00232 40.9612 0 39.7083 0Z" fill="#FFBA0C"/>
</svg>
