<svg width="33" height="36" viewBox="0 0 33 36" fill="none" xmlns="http://www.w3.org/2000/svg">
<path d="M16.6001 0C15.5392 0 14.5218 0.421427 13.7717 1.17157C13.0215 1.92172 12.6001 2.93913 12.6001 4V4.682C7.9401 6.33 4.6001 10.776 4.6001 16V26H2.6001C2.06966 26 1.56096 26.2107 1.18588 26.5858C0.810812 26.9609 0.600098 27.4696 0.600098 28C0.600098 28.5304 0.810812 29.0391 1.18588 29.4142C1.56096 29.7893 2.06966 30 2.6001 30H30.6001C31.1305 30 31.6392 29.7893 32.0143 29.4142C32.3894 29.0391 32.6001 28.5304 32.6001 28C32.6001 27.4696 32.3894 26.9609 32.0143 26.5858C31.6392 26.2107 31.1305 26 30.6001 26H28.6001V16C28.6004 13.5179 27.8313 11.0967 26.3986 9.06978C24.9659 7.04287 22.9401 5.50993 20.6001 4.682V4C20.6001 2.93913 20.1787 1.92172 19.4285 1.17157C18.6784 0.421427 17.661 0 16.6001 0ZM16.6001 36C15.5392 36 14.5218 35.5786 13.7717 34.8284C13.0215 34.0783 12.6001 33.0609 12.6001 32H20.6001C20.6001 33.0609 20.1787 34.0783 19.4285 34.8284C18.6784 35.5786 17.661 36 16.6001 36Z" fill="#FF3500"/>
</svg>
