<svg width="33" height="36" viewBox="0 0 33 36" fill="none" xmlns="http://www.w3.org/2000/svg">
<path fill-rule="evenodd" clip-rule="evenodd" d="M15.9284 0.0644484C16.1863 -0.0214828 16.4649 -0.0214828 16.7228 0.0644484L31.7925 5.0877C32.3421 5.27087 32.695 5.80613 32.6468 6.38335L31.2512 23.1318C31.0429 25.6315 29.6675 27.8864 27.5405 29.2158L16.9912 35.8091C16.5839 36.0636 16.0672 36.0636 15.66 35.8091L5.11075 29.2158C2.98368 27.8864 1.60838 25.6315 1.40007 23.1318L0.00437283 6.38335C-0.0437332 5.80613 0.309218 5.27087 0.858728 5.0877L15.9284 0.0644484ZM22.2368 15.5391C22.7272 15.0487 22.7272 14.2536 22.2368 13.7632C21.7463 13.2727 20.9513 13.2727 20.4609 13.7632L14.6512 19.5728L12.1903 17.1121C11.6999 16.6216 10.9048 16.6216 10.4143 17.1121C9.92391 17.6025 9.92391 18.3975 10.4143 18.8879L13.7632 22.2368C14.2537 22.7272 15.0487 22.7272 15.5391 22.2368L22.2368 15.5391Z" fill="#2FBF71"/>
</svg>
